<ttFont>
<head>
    <!-- Most of this table will be recalculated by the compiler -->
    <tableVersion value="1.0"/>
    <fontRevision value="1.05199"/>
    <checkSumAdjustment value="0x175e8f0f"/>
    <magicNumber value="0x5f0f3cf5"/>
    <flags value="00000000 00000011"/>
    <unitsPerEm value="1000"/>
    <created value="Sat Apr  9 14:31:12 2016"/>
    <modified value="Tue Jul 26 14:47:39 2016"/>
    <xMin value="-512"/>
    <yMin value="-342"/>
    <xMax value="1368"/>
    <yMax value="916"/>
    <macStyle value="00000000 00000000"/>
    <lowestRecPPEM value="7"/>
    <fontDirectionHint value="2"/>
    <indexToLocFormat value="0"/>
    <glyphDataFormat value="0"/>
  </head>
    <TTGlyph name=".notdef" xMin="50" yMin="0" xMax="450" yMax="660">
      <contour>
        <pt x="50" y="660" on="1"/>
        <pt x="450" y="660" on="1"/>
        <pt x="450" y="0" on="1"/>
        <pt x="50" y="0" on="1"/>
      </contour>
      <contour>
        <pt x="370" y="80" on="1"/>
        <pt x="370" y="580" on="1"/>
        <pt x="130" y="580" on="1"/>
        <pt x="130" y="80" on="1"/>
      </contour>
    </TTGlyph>
    <TTGlyph name="A" xMin="-3" yMin="0" xMax="687" yMax="660">
      <contour>
        <pt x="440" y="137" on="1"/>
        <pt x="239" y="137" on="1"/>
        <pt x="201" y="0" on="1"/>
        <pt x="-3" y="0" on="1"/>
        <pt x="219" y="660" on="1"/>
        <pt x="464" y="660" on="1"/>
        <pt x="687" y="0" on="1"/>
        <pt x="477" y="0" on="1"/>
      </contour>
      <contour>
        <pt x="404" y="269" on="1"/>
        <pt x="369" y="400" on="1"/>
        <pt x="341" y="508" on="1"/>
        <pt x="339" y="508" on="1"/>
        <pt x="312" y="401" on="1"/>
        <pt x="275" y="269" on="1"/>
      </contour>
    </TTGlyph>
    <TTGlyph name="A.swsh" xMin="-1" yMin="-110" xMax="920" yMax="660">
      <contour>
        <pt x="673" y="137" on="1"/>
        <pt x="462" y="137" on="1"/>
        <pt x="448" y="92" on="1"/>
        <pt x="418" y="-10" on="0"/>
        <pt x="291" y="-110" on="0"/>
        <pt x="175" y="-110" on="1"/>
        <pt x="110" y="-110" on="0"/>
        <pt x="18" y="-72" on="0"/>
        <pt x="-1" y="-34" on="1"/>
        <pt x="55" y="99" on="1"/>
        <pt x="75" y="65" on="0"/>
        <pt x="125" y="38" on="0"/>
        <pt x="162" y="38" on="1"/>
        <pt x="206" y="38" on="0"/>
        <pt x="262" y="97" on="0"/>
        <pt x="284" y="165" on="1"/>
        <pt x="402" y="513" on="1"/>
        <pt x="294" y="513" on="1"/>
        <pt x="255" y="513" on="0"/>
        <pt x="215" y="474" on="0"/>
        <pt x="215" y="441" on="1"/>
        <pt x="215" y="409" on="0"/>
        <pt x="259" y="366" on="0"/>
        <pt x="298" y="363" on="1"/>
        <pt x="241" y="229" on="1"/>
        <pt x="148" y="233" on="0"/>
        <pt x="35" y="348" on="0"/>
        <pt x="35" y="444" on="1"/>
        <pt x="35" y="548" on="0"/>
        <pt x="165" y="660" on="0"/>
        <pt x="291" y="660" on="1"/>
        <pt x="697" y="660" on="1"/>
        <pt x="920" y="0" on="1"/>
        <pt x="710" y="0" on="1"/>
      </contour>
      <contour>
        <pt x="637" y="269" on="1"/>
        <pt x="602" y="400" on="1"/>
        <pt x="574" y="508" on="1"/>
        <pt x="571" y="508" on="1"/>
        <pt x="545" y="401" on="1"/>
        <pt x="504" y="269" on="1"/>
      </contour>
    </TTGlyph>
    <TTGlyph name="AE" xMin="-7" yMin="0" xMax="891" yMax="660">
      <contour>
        <pt x="891" y="145" on="1"/>
        <pt x="891" y="0" on="1"/>
        <pt x="410" y="0" on="1"/>
        <pt x="410" y="190" on="1"/>
        <pt x="255" y="190" on="1"/>
        <pt x="196" y="0" on="1"/>
        <pt x="-7" y="0" on="1"/>
        <pt x="239" y="660" on="1"/>
        <pt x="878" y="660" on="1"/>
        <pt x="878" y="515" on="1"/>
        <pt x="599" y="515" on="1"/>
        <pt x="599" y="397" on="1"/>
        <pt x="813" y="397" on="1"/>
        <pt x="813" y="262" on="1"/>
        <pt x="599" y="262" on="1"/>
        <pt x="599" y="145" on="1"/>
      </contour>
      <contour>
        <pt x="410" y="315" on="1"/>
        <pt x="410" y="522" on="1"/>
        <pt x="357" y="522" on="1"/>
        <pt x="293" y="315" on="1"/>
      </contour>
    </TTGlyph>
    <TTGlyph name="Aacute" xMin="-3" yMin="0" xMax="687" yMax="881">
      <component glyphName="A" x="0" y="0" flags="0x0"/>
      <component glyphName="acutecomb.cap" x="341" y="0" flags="0x0"/>
    </TTGlyph>
    <TTGlyph name="Aacute.swsh" xMin="-1" yMin="-110" xMax="920" yMax="881">
      <component glyphName="A.swsh" x="0" y="0" flags="0x0"/>
      <component glyphName="acutecomb.cap" x="574" y="0" flags="0x0"/>
    </TTGlyph>
    <TTGlyph name="Abreve" xMin="-3" yMin="0" xMax="687" yMax="875">
      <component glyphName="A" x="0" y="0" flags="0x0"/>
      <component glyphName="breve" x="91" y="160" flags="0x4"/>
    </TTGlyph>
    <TTGlyph name="Abreve.swsh" xMin="-1" yMin="-110" xMax="920" yMax="875">
      <component glyphName="A.swsh" x="0" y="0" flags="0x0"/>
      <component glyphName="breve" x="324" y="160" flags="0x4"/>
    </TTGlyph>
    <TTGlyph name="Acircumflex" xMin="-3" yMin="0" xMax="687" yMax="880">
      <component glyphName="A" x="0" y="0" flags="0x0"/>
      <component glyphName="uni0302.cap" x="341" y="0" flags="0x0"/>
    </TTGlyph>
    <TTGlyph name="Acircumflex.swsh" xMin="-1" yMin="-110" xMax="920" yMax="880">
      <component glyphName="A.swsh" x="0" y="0" flags="0x0"/>
      <component glyphName="uni0302.cap" x="574" y="0" flags="0x0"/>
    </TTGlyph>
    <TTGlyph name="Adieresis" xMin="-3" yMin="0" xMax="687" yMax="876">
      <component glyphName="A" x="0" y="0" flags="0x0"/>
      <component glyphName="dieresis" x="90" y="160" flags="0x4"/>
    </TTGlyph>
    <TTGlyph name="Adieresis.swsh" xMin="-1" yMin="-110" xMax="920" yMax="876">
      <component glyphName="A.swsh" x="0" y="0" flags="0x0"/>
      <component glyphName="dieresis" x="323" y="160" flags="0x4"/>
    </TTGlyph>
    <TTGlyph name="Adieresis.titl" xMin="-3" yMin="0" xMax="687" yMax="662">
      <contour>
        <pt x="96" y="512" on="0"/>
        <pt x="52" y="551" on="0"/>
        <pt x="52" y="587" on="1"/>
        <pt x="52" y="622" on="0"/>
        <pt x="97" y="662" on="0"/>
        <pt x="137" y="662" on="1"/>
        <pt x="171" y="662" on="0"/>
        <pt x="190" y="647" on="1"/>
        <pt x="145" y="512" on="1"/>
        <pt x="137" y="512" on="1"/>
      </contour>
      <contour>
        <pt x="537" y="512" on="1"/>
        <pt x="493" y="647" on="1"/>
        <pt x="513" y="662" on="0"/>
        <pt x="546" y="662" on="1"/>
        <pt x="586" y="662" on="0"/>
        <pt x="631" y="622" on="0"/>
        <pt x="631" y="587" on="1"/>
        <pt x="631" y="551" on="0"/>
        <pt x="587" y="512" on="0"/>
        <pt x="546" y="512" on="1"/>
      </contour>
      <contour>
        <pt x="440" y="137" on="1"/>
        <pt x="239" y="137" on="1"/>
        <pt x="201" y="0" on="1"/>
        <pt x="-3" y="0" on="1"/>
        <pt x="219" y="660" on="1"/>
        <pt x="464" y="660" on="1"/>
        <pt x="687" y="0" on="1"/>
        <pt x="477" y="0" on="1"/>
      </contour>
      <contour>
        <pt x="404" y="269" on="1"/>
        <pt x="369" y="400" on="1"/>
        <pt x="341" y="508" on="1"/>
        <pt x="339" y="508" on="1"/>
        <pt x="312" y="401" on="1"/>
        <pt x="275" y="269" on="1"/>
      </contour>
    </TTGlyph>
    <TTGlyph name="Adieresis.titl.001" xMin="-22" yMin="0" xMax="705" yMax="662">
      <contour>
        <pt x="25" y="500" on="0"/>
        <pt x="-22" y="543" on="0"/>
        <pt x="-22" y="581" on="1"/>
        <pt x="-22" y="619" on="0"/>
        <pt x="25" y="662" on="0"/>
        <pt x="67" y="662" on="1"/>
        <pt x="110" y="662" on="0"/>
        <pt x="159" y="619" on="0"/>
        <pt x="159" y="581" on="1"/>
        <pt x="159" y="543" on="0"/>
        <pt x="110" y="500" on="0"/>
        <pt x="67" y="500" on="1"/>
      </contour>
      <contour>
        <pt x="571" y="500" on="0"/>
        <pt x="524" y="543" on="0"/>
        <pt x="524" y="581" on="1"/>
        <pt x="524" y="619" on="0"/>
        <pt x="571" y="662" on="0"/>
        <pt x="614" y="662" on="1"/>
        <pt x="657" y="662" on="0"/>
        <pt x="705" y="619" on="0"/>
        <pt x="705" y="581" on="1"/>
        <pt x="705" y="543" on="0"/>
        <pt x="657" y="500" on="0"/>
        <pt x="614" y="500" on="1"/>
      </contour>
      <contour>
        <pt x="464" y="660" on="1"/>
        <pt x="687" y="0" on="1"/>
        <pt x="477" y="0" on="1"/>
        <pt x="440" y="137" on="1"/>
        <pt x="239" y="137" on="1"/>
        <pt x="201" y="0" on="1"/>
        <pt x="-3" y="0" on="1"/>
        <pt x="219" y="660" on="1"/>
      </contour>
      <contour>
        <pt x="404" y="269" on="1"/>
        <pt x="369" y="400" on="1"/>
        <pt x="341" y="508" on="1"/>
        <pt x="339" y="508" on="1"/>
        <pt x="312" y="401" on="1"/>
        <pt x="275" y="269" on="1"/>
      </contour>
    </TTGlyph>
    <TTGlyph name="Agrave" xMin="-3" yMin="0" xMax="687" yMax="881">
      <component glyphName="A" x="0" y="0" flags="0x0"/>
      <component glyphName="gravecomb.cap" x="340" y="0" flags="0x0"/>
    </TTGlyph>
    <TTGlyph name="Agrave.swsh" xMin="-1" yMin="-110" xMax="920" yMax="881">
      <component glyphName="A.swsh" x="0" y="0" flags="0x0"/>
      <component glyphName="gravecomb.cap" x="572" y="0" flags="0x0"/>
    </TTGlyph>
    <TTGlyph name="Amacron" xMin="-3" yMin="0" xMax="687" yMax="838">
      <component glyphName="A" x="0" y="0" flags="0x0"/>
      <component glyphName="macron" x="91" y="160" flags="0x4"/>
    </TTGlyph>
    <TTGlyph name="Amacron.swsh" xMin="-1" yMin="-110" xMax="920" yMax="838">
      <component glyphName="A.swsh" x="0" y="0" flags="0x0"/>
      <component glyphName="macron" x="324" y="160" flags="0x4"/>
    </TTGlyph>
    <TTGlyph name="Aogonek" xMin="-3" yMin="-215" xMax="692" yMax="660">
      <contour>
        <pt x="692" y="-190" on="1"/>
        <pt x="670" y="-204" on="0"/>
        <pt x="617" y="-215" on="0"/>
        <pt x="581" y="-215" on="1"/>
        <pt x="516" y="-215" on="0"/>
        <pt x="435" y="-156" on="0"/>
        <pt x="435" y="-99" on="1"/>
        <pt x="435" y="-35" on="0"/>
        <pt x="495" y="0" on="1"/>
        <pt x="477" y="0" on="1"/>
        <pt x="440" y="137" on="1"/>
        <pt x="239" y="137" on="1"/>
        <pt x="201" y="0" on="1"/>
        <pt x="-3" y="0" on="1"/>
        <pt x="219" y="660" on="1"/>
        <pt x="464" y="660" on="1"/>
        <pt x="687" y="0" on="1"/>
        <pt x="624" y="-7" on="0"/>
        <pt x="572" y="-39" on="0"/>
        <pt x="572" y="-65" on="1"/>
        <pt x="572" y="-85" on="0"/>
        <pt x="599" y="-106" on="0"/>
        <pt x="624" y="-106" on="1"/>
        <pt x="653" y="-106" on="0"/>
        <pt x="667" y="-97" on="1"/>
      </contour>
      <contour>
        <pt x="404" y="269" on="1"/>
        <pt x="369" y="400" on="1"/>
        <pt x="341" y="508" on="1"/>
        <pt x="339" y="508" on="1"/>
        <pt x="312" y="401" on="1"/>
        <pt x="275" y="269" on="1"/>
      </contour>
    </TTGlyph>
    <TTGlyph name="Aogonek.swsh" xMin="-1" yMin="-215" xMax="925" yMax="660">
      <contour>
        <pt x="925" y="-190" on="1"/>
        <pt x="903" y="-204" on="0"/>
        <pt x="850" y="-215" on="0"/>
        <pt x="814" y="-215" on="1"/>
        <pt x="749" y="-215" on="0"/>
        <pt x="668" y="-156" on="0"/>
        <pt x="668" y="-99" on="1"/>
        <pt x="668" y="-35" on="0"/>
        <pt x="728" y="0" on="1"/>
        <pt x="710" y="0" on="1"/>
        <pt x="673" y="137" on="1"/>
        <pt x="462" y="137" on="1"/>
        <pt x="448" y="92" on="1"/>
        <pt x="418" y="-10" on="0"/>
        <pt x="291" y="-110" on="0"/>
        <pt x="175" y="-110" on="1"/>
        <pt x="110" y="-110" on="0"/>
        <pt x="18" y="-72" on="0"/>
        <pt x="-1" y="-34" on="1"/>
        <pt x="55" y="99" on="1"/>
        <pt x="75" y="65" on="0"/>
        <pt x="125" y="38" on="0"/>
        <pt x="162" y="38" on="1"/>
        <pt x="206" y="38" on="0"/>
        <pt x="262" y="97" on="0"/>
        <pt x="284" y="165" on="1"/>
        <pt x="402" y="513" on="1"/>
        <pt x="294" y="513" on="1"/>
        <pt x="255" y="513" on="0"/>
        <pt x="215" y="474" on="0"/>
        <pt x="215" y="441" on="1"/>
        <pt x="215" y="409" on="0"/>
        <pt x="259" y="366" on="0"/>
        <pt x="298" y="363" on="1"/>
        <pt x="241" y="229" on="1"/>
        <pt x="148" y="233" on="0"/>
        <pt x="35" y="348" on="0"/>
        <pt x="35" y="444" on="1"/>
        <pt x="35" y="548" on="0"/>
        <pt x="165" y="660" on="0"/>
        <pt x="291" y="660" on="1"/>
        <pt x="697" y="660" on="1"/>
        <pt x="920" y="0" on="1"/>
        <pt x="857" y="-7" on="0"/>
        <pt x="805" y="-39" on="0"/>
        <pt x="805" y="-65" on="1"/>
        <pt x="805" y="-85" on="0"/>
        <pt x="832" y="-106" on="0"/>
        <pt x="857" y="-106" on="1"/>
        <pt x="886" y="-106" on="0"/>
        <pt x="900" y="-97" on="1"/>
      </contour>
      <contour>
        <pt x="637" y="269" on="1"/>
        <pt x="602" y="400" on="1"/>
        <pt x="574" y="508" on="1"/>
        <pt x="571" y="508" on="1"/>
        <pt x="545" y="401" on="1"/>
        <pt x="504" y="269" on="1"/>
      </contour>
    </TTGlyph>
    <TTGlyph name="Aring" xMin="-3" yMin="0" xMax="687" yMax="864">
      <contour>
        <pt x="440" y="137" on="1"/>
        <pt x="239" y="137" on="1"/>
        <pt x="201" y="0" on="1"/>
        <pt x="-3" y="0" on="1"/>
        <pt x="221" y="643" on="1"/>
        <pt x="184" y="674" on="0"/>
        <pt x="184" y="731" on="1"/>
        <pt x="184" y="792" on="0"/>
        <pt x="268" y="864" on="0"/>
        <pt x="342" y="864" on="1"/>
        <pt x="417" y="864" on="0"/>
        <pt x="501" y="792" on="0"/>
        <pt x="501" y="731" on="1"/>
        <pt x="501" y="675" on="0"/>
        <pt x="462" y="644" on="1"/>
        <pt x="687" y="0" on="1"/>
        <pt x="477" y="0" on="1"/>
      </contour>
      <contour>
        <pt x="317" y="775" on="0"/>
        <pt x="288" y="747" on="0"/>
        <pt x="288" y="723" on="1"/>
        <pt x="288" y="700" on="0"/>
        <pt x="317" y="672" on="0"/>
        <pt x="342" y="672" on="1"/>
        <pt x="367" y="672" on="0"/>
        <pt x="396" y="700" on="0"/>
        <pt x="396" y="723" on="1"/>
        <pt x="396" y="747" on="0"/>
        <pt x="367" y="775" on="0"/>
        <pt x="342" y="775" on="1"/>
      </contour>
      <contour>
        <pt x="404" y="269" on="1"/>
        <pt x="369" y="400" on="1"/>
        <pt x="342" y="508" on="1"/>
        <pt x="338" y="508" on="1"/>
        <pt x="312" y="401" on="1"/>
        <pt x="275" y="269" on="1"/>
      </contour>
    </TTGlyph>
    <TTGlyph name="Atilde" xMin="-3" yMin="0" xMax="687" yMax="880">
      <component glyphName="A" x="0" y="0" flags="0x0"/>
      <component glyphName="tilde" x="91" y="160" flags="0x4"/>
    </TTGlyph>
    <TTGlyph name="Atilde.swsh" xMin="-1" yMin="-110" xMax="920" yMax="880">
      <component glyphName="A.swsh" x="0" y="0" flags="0x0"/>
      <component glyphName="tilde" x="324" y="160" flags="0x4"/>
    </TTGlyph>
    <TTGlyph name="B" xMin="61" yMin="0" xMax="672" yMax="660">
      <contour>
        <pt x="61" y="660" on="1"/>
        <pt x="412" y="660" on="1"/>
        <pt x="655" y="659" on="0"/>
        <pt x="655" y="483" on="1"/>
        <pt x="655" y="423" on="0"/>
        <pt x="583" y="343" on="0"/>
        <pt x="513" y="333" on="1"/>
        <pt x="513" y="332" on="1"/>
        <pt x="592" y="322" on="0"/>
        <pt x="672" y="240" on="0"/>
        <pt x="672" y="176" on="1"/>
        <pt x="672" y="89" on="0"/>
        <pt x="552" y="0" on="0"/>
        <pt x="433" y="0" on="1"/>
        <pt x="61" y="0" on="1"/>
      </contour>
      <contour>
        <pt x="369" y="398" on="1"/>
        <pt x="446" y="398" on="0"/>
        <pt x="446" y="457" on="1"/>
        <pt x="446" y="516" on="0"/>
        <pt x="369" y="516" on="1"/>
        <pt x="257" y="516" on="1"/>
        <pt x="257" y="398" on="1"/>
      </contour>
      <contour>
        <pt x="386" y="138" on="1"/>
        <pt x="463" y="138" on="0"/>
        <pt x="463" y="198" on="1"/>
        <pt x="463" y="257" on="0"/>
        <pt x="386" y="257" on="1"/>
        <pt x="257" y="257" on="1"/>
        <pt x="257" y="138" on="1"/>
      </contour>
    </TTGlyph>
    <TTGlyph name="C" xMin="36" yMin="-10" xMax="664" yMax="670">
      <contour>
        <pt x="637" y="90" on="0"/>
        <pt x="482" y="-10" on="0"/>
        <pt x="367" y="-10" on="1"/>
        <pt x="265" y="-10" on="0"/>
        <pt x="116" y="70" on="0"/>
        <pt x="36" y="224" on="0"/>
        <pt x="36" y="330" on="1"/>
        <pt x="36" y="436" on="0"/>
        <pt x="116" y="589" on="0"/>
        <pt x="264" y="670" on="0"/>
        <pt x="366" y="670" on="1"/>
        <pt x="478" y="670" on="0"/>
        <pt x="636" y="575" on="0"/>
        <pt x="658" y="479" on="1"/>
        <pt x="481" y="408" on="1"/>
        <pt x="470" y="469" on="0"/>
        <pt x="420" y="514" on="0"/>
        <pt x="372" y="514" on="1"/>
        <pt x="311" y="514" on="0"/>
        <pt x="246" y="422" on="0"/>
        <pt x="246" y="330" on="1"/>
        <pt x="246" y="146" on="0"/>
        <pt x="370" y="146" on="1"/>
        <pt x="420" y="146" on="0"/>
        <pt x="473" y="193" on="0"/>
        <pt x="482" y="245" on="1"/>
        <pt x="664" y="196" on="1"/>
      </contour>
    </TTGlyph>
    <TTGlyph name="Cacute" xMin="36" yMin="-10" xMax="664" yMax="881">
      <component glyphName="C" x="0" y="0" flags="0x0"/>
      <component glyphName="acutecomb.cap" x="359" y="0" flags="0x0"/>
    </TTGlyph>
    <TTGlyph name="Ccaron" xMin="36" yMin="-10" xMax="664" yMax="881">
      <component glyphName="C" x="0" y="0" flags="0x0"/>
      <component glyphName="uni030C.cap" x="359" y="0" flags="0x0"/>
    </TTGlyph>
    <TTGlyph name="Ccedilla" xMin="36" yMin="-215" xMax="664" yMax="670">
      <contour>
        <pt x="642" y="111" on="0"/>
        <pt x="533" y="14" on="0"/>
        <pt x="453" y="-2" on="1"/>
        <pt x="504" y="-38" on="0"/>
        <pt x="504" y="-93" on="1"/>
        <pt x="504" y="-155" on="0"/>
        <pt x="420" y="-215" on="0"/>
        <pt x="351" y="-215" on="1"/>
        <pt x="304" y="-215" on="0"/>
        <pt x="243" y="-193" on="0"/>
        <pt x="222" y="-173" on="1"/>
        <pt x="264" y="-85" on="1"/>
        <pt x="293" y="-114" on="0"/>
        <pt x="337" y="-114" on="1"/>
        <pt x="362" y="-114" on="0"/>
        <pt x="392" y="-89" on="0"/>
        <pt x="392" y="-67" on="1"/>
        <pt x="392" y="-47" on="0"/>
        <pt x="364" y="-19" on="0"/>
        <pt x="328" y="-8" on="1"/>
        <pt x="191" y="3" on="0"/>
        <pt x="36" y="180" on="0"/>
        <pt x="36" y="330" on="1"/>
        <pt x="36" y="436" on="0"/>
        <pt x="116" y="589" on="0"/>
        <pt x="264" y="670" on="0"/>
        <pt x="366" y="670" on="1"/>
        <pt x="478" y="670" on="0"/>
        <pt x="636" y="575" on="0"/>
        <pt x="658" y="479" on="1"/>
        <pt x="481" y="408" on="1"/>
        <pt x="470" y="469" on="0"/>
        <pt x="420" y="514" on="0"/>
        <pt x="372" y="514" on="1"/>
        <pt x="311" y="514" on="0"/>
        <pt x="246" y="422" on="0"/>
        <pt x="246" y="330" on="1"/>
        <pt x="246" y="146" on="0"/>
        <pt x="370" y="146" on="1"/>
        <pt x="420" y="146" on="0"/>
        <pt x="473" y="193" on="0"/>
        <pt x="482" y="245" on="1"/>
        <pt x="664" y="196" on="1"/>
      </contour>
    </TTGlyph>
    <TTGlyph name="D" xMin="61" yMin="0" xMax="681" yMax="660">
      <contour>
        <pt x="518" y="660" on="0"/>
        <pt x="681" y="489" on="0"/>
        <pt x="681" y="330" on="1"/>
        <pt x="681" y="171" on="0"/>
        <pt x="518" y="0" on="0"/>
        <pt x="364" y="0" on="1"/>
        <pt x="61" y="0" on="1"/>
        <pt x="61" y="660" on="1"/>
        <pt x="364" y="660" on="1"/>
      </contour>
      <contour>
        <pt x="411" y="149" on="0"/>
        <pt x="471" y="236" on="0"/>
        <pt x="471" y="330" on="1"/>
        <pt x="471" y="424" on="0"/>
        <pt x="411" y="511" on="0"/>
        <pt x="339" y="511" on="1"/>
        <pt x="265" y="511" on="1"/>
        <pt x="265" y="149" on="1"/>
        <pt x="339" y="149" on="1"/>
      </contour>
    </TTGlyph>
    <TTGlyph name="Dcaron" xMin="61" yMin="0" xMax="681" yMax="881">
      <component glyphName="D" x="0" y="0" flags="0x0"/>
      <component glyphName="uni030C.cap" x="330" y="0" flags="0x0"/>
    </TTGlyph>
    <TTGlyph name="Dcroat" xMin="10" yMin="0" xMax="708" yMax="660">
      <contour>
        <pt x="545" y="660" on="0"/>
        <pt x="708" y="489" on="0"/>
        <pt x="708" y="330" on="1"/>
        <pt x="708" y="171" on="0"/>
        <pt x="545" y="0" on="0"/>
        <pt x="391" y="0" on="1"/>
        <pt x="88" y="0" on="1"/>
        <pt x="88" y="283" on="1"/>
        <pt x="10" y="283" on="1"/>
        <pt x="10" y="373" on="1"/>
        <pt x="88" y="373" on="1"/>
        <pt x="88" y="660" on="1"/>
        <pt x="391" y="660" on="1"/>
      </contour>
      <contour>
        <pt x="438" y="149" on="0"/>
        <pt x="498" y="236" on="0"/>
        <pt x="498" y="330" on="1"/>
        <pt x="498" y="424" on="0"/>
        <pt x="438" y="511" on="0"/>
        <pt x="366" y="511" on="1"/>
        <pt x="292" y="511" on="1"/>
        <pt x="292" y="373" on="1"/>
        <pt x="399" y="373" on="1"/>
        <pt x="399" y="283" on="1"/>
        <pt x="292" y="283" on="1"/>
        <pt x="292" y="149" on="1"/>
        <pt x="366" y="149" on="1"/>
      </contour>
    </TTGlyph>
    <TTGlyph name="E" xMin="61" yMin="0" xMax="606" yMax="660">
      <contour>
        <pt x="606" y="153" on="1"/>
        <pt x="606" y="0" on="1"/>
        <pt x="61" y="0" on="1"/>
        <pt x="61" y="660" on="1"/>
        <pt x="593" y="660" on="1"/>
        <pt x="593" y="507" on="1"/>
        <pt x="265" y="507" on="1"/>
        <pt x="265" y="400" on="1"/>
        <pt x="527" y="400" on="1"/>
        <pt x="527" y="258" on="1"/>
        <pt x="265" y="258" on="1"/>
        <pt x="265" y="153" on="1"/>
      </contour>
    </TTGlyph>
    <TTGlyph name="E.swsh" xMin="10" yMin="0" xMax="884" yMax="660">
      <contour>
        <pt x="884" y="153" on="1"/>
        <pt x="884" y="0" on="1"/>
        <pt x="339" y="0" on="1"/>
        <pt x="339" y="513" on="1"/>
        <pt x="269" y="513" on="1"/>
        <pt x="230" y="513" on="0"/>
        <pt x="190" y="474" on="0"/>
        <pt x="190" y="441" on="1"/>
        <pt x="190" y="409" on="0"/>
        <pt x="234" y="366" on="0"/>
        <pt x="273" y="363" on="1"/>
        <pt x="216" y="229" on="1"/>
        <pt x="123" y="233" on="0"/>
        <pt x="10" y="348" on="0"/>
        <pt x="10" y="444" on="1"/>
        <pt x="10" y="548" on="0"/>
        <pt x="140" y="660" on="0"/>
        <pt x="266" y="660" on="1"/>
        <pt x="871" y="660" on="1"/>
        <pt x="871" y="507" on="1"/>
        <pt x="543" y="507" on="1"/>
        <pt x="543" y="400" on="1"/>
        <pt x="805" y="400" on="1"/>
        <pt x="805" y="258" on="1"/>
        <pt x="543" y="258" on="1"/>
        <pt x="543" y="153" on="1"/>
      </contour>
    </TTGlyph>
    <TTGlyph name="E.swsh.001" xMin="61" yMin="0" xMax="851" yMax="660">
      <contour>
        <pt x="760" y="376" on="0"/>
        <pt x="851" y="277" on="0"/>
        <pt x="851" y="201" on="1"/>
        <pt x="851" y="0" on="0"/>
        <pt x="627" y="0" on="1"/>
        <pt x="61" y="0" on="1"/>
        <pt x="61" y="660" on="1"/>
        <pt x="632" y="660" on="1"/>
        <pt x="632" y="507" on="1"/>
        <pt x="265" y="507" on="1"/>
        <pt x="265" y="399" on="1"/>
        <pt x="464" y="399" on="1"/>
        <pt x="464" y="256" on="1"/>
        <pt x="265" y="256" on="1"/>
        <pt x="265" y="153" on="1"/>
        <pt x="600" y="153" on="1"/>
        <pt x="640" y="153" on="0"/>
        <pt x="678" y="179" on="0"/>
        <pt x="678" y="208" on="1"/>
        <pt x="678" y="261" on="0"/>
        <pt x="603" y="269" on="1"/>
        <pt x="668" y="390" on="1"/>
      </contour>
    </TTGlyph>
    <TTGlyph name="Eacute" xMin="61" yMin="0" xMax="606" yMax="881">
      <component glyphName="E" x="0" y="0" flags="0x0"/>
      <component glyphName="acutecomb.cap" x="318" y="0" flags="0x0"/>
    </TTGlyph>
    <TTGlyph name="Eacute.swsh" xMin="10" yMin="0" xMax="884" yMax="881">
      <component glyphName="E.swsh" x="0" y="0" flags="0x0"/>
      <component glyphName="acutecomb.cap" x="596" y="0" flags="0x0"/>
    </TTGlyph>
    <TTGlyph name="Eacute.swsh.001" xMin="61" yMin="0" xMax="851" yMax="881">
      <component glyphName="E.swsh.001" x="0" y="0" flags="0x0"/>
      <component glyphName="acutecomb.cap" x="323" y="0" flags="0x0"/>
    </TTGlyph>
    <TTGlyph name="Ecaron" xMin="61" yMin="0" xMax="606" yMax="881">
      <component glyphName="E" x="0" y="0" flags="0x0"/>
      <component glyphName="uni030C.cap" x="318" y="0" flags="0x0"/>
    </TTGlyph>
    <TTGlyph name="Ecaron.swsh" xMin="10" yMin="0" xMax="884" yMax="881">
      <component glyphName="E.swsh" x="0" y="0" flags="0x0"/>
      <component glyphName="uni030C.cap" x="596" y="0" flags="0x0"/>
    </TTGlyph>
    <TTGlyph name="Ecaron.swsh.001" xMin="61" yMin="0" xMax="851" yMax="881">
      <component glyphName="E.swsh.001" x="0" y="0" flags="0x0"/>
      <component glyphName="uni030C.cap" x="323" y="0" flags="0x0"/>
    </TTGlyph>
    <TTGlyph name="Ecircumflex" xMin="61" yMin="0" xMax="606" yMax="880">
      <component glyphName="E" x="0" y="0" flags="0x0"/>
      <component glyphName="uni0302.cap" x="318" y="0" flags="0x0"/>
    </TTGlyph>
    <TTGlyph name="Ecircumflex.swsh" xMin="10" yMin="0" xMax="884" yMax="880">
      <component glyphName="E.swsh" x="0" y="0" flags="0x0"/>
      <component glyphName="uni0302.cap" x="596" y="0" flags="0x0"/>
    </TTGlyph>
    <TTGlyph name="Ecircumflex.swsh.001" xMin="61" yMin="0" xMax="851" yMax="880">
      <component glyphName="E.swsh.001" x="0" y="0" flags="0x0"/>
      <component glyphName="uni0302.cap" x="323" y="0" flags="0x0"/>
    </TTGlyph>
    <TTGlyph name="Edieresis" xMin="61" yMin="0" xMax="606" yMax="876">
      <component glyphName="E" x="0" y="0" flags="0x0"/>
      <component glyphName="dieresis" x="67" y="160" flags="0x4"/>
    </TTGlyph>
    <TTGlyph name="Edieresis.swsh" xMin="10" yMin="0" xMax="884" yMax="876">
      <component glyphName="E.swsh" x="0" y="0" flags="0x0"/>
      <component glyphName="dieresis" x="345" y="160" flags="0x4"/>
    </TTGlyph>
    <TTGlyph name="Edieresis.swsh.001" xMin="61" yMin="0" xMax="851" yMax="876">
      <component glyphName="E.swsh.001" x="0" y="0" flags="0x0"/>
      <component glyphName="dieresis" x="72" y="160" flags="0x4"/>
    </TTGlyph>
    <TTGlyph name="Edotaccent" xMin="61" yMin="0" xMax="606" yMax="884">
      <component glyphName="E" x="0" y="0" flags="0x0"/>
      <component glyphName="dotaccent" x="68" y="160" flags="0x4"/>
    </TTGlyph>
    <TTGlyph name="Edotaccent.swsh" xMin="10" yMin="0" xMax="884" yMax="884">
      <component glyphName="E.swsh" x="0" y="0" flags="0x0"/>
      <component glyphName="dotaccent" x="346" y="160" flags="0x4"/>
    </TTGlyph>
    <TTGlyph name="Edotaccent.swsh.001" xMin="61" yMin="0" xMax="851" yMax="884">
      <component glyphName="E.swsh.001" x="0" y="0" flags="0x0"/>
      <component glyphName="dotaccent" x="73" y="160" flags="0x4"/>
    </TTGlyph>
    <TTGlyph name="Egrave" xMin="61" yMin="0" xMax="606" yMax="881">
      <component glyphName="E" x="0" y="0" flags="0x0"/>
      <component glyphName="gravecomb.cap" x="319" y="0" flags="0x0"/>
    </TTGlyph>
    <TTGlyph name="Egrave.swsh" xMin="10" yMin="0" xMax="884" yMax="881">
      <component glyphName="E.swsh" x="0" y="0" flags="0x0"/>
      <component glyphName="gravecomb.cap" x="593" y="0" flags="0x0"/>
    </TTGlyph>
    <TTGlyph name="Egrave.swsh.001" xMin="61" yMin="0" xMax="851" yMax="881">
      <component glyphName="E.swsh.001" x="0" y="0" flags="0x0"/>
      <component glyphName="gravecomb.cap" x="323" y="0" flags="0x0"/>
    </TTGlyph>
    <TTGlyph name="Emacron" xMin="61" yMin="0" xMax="606" yMax="838">
      <component glyphName="E" x="0" y="0" flags="0x0"/>
      <component glyphName="macron" x="68" y="160" flags="0x4"/>
    </TTGlyph>
    <TTGlyph name="Emacron.swsh" xMin="10" yMin="0" xMax="884" yMax="838">
      <component glyphName="E.swsh" x="0" y="0" flags="0x0"/>
      <component glyphName="macron" x="346" y="160" flags="0x4"/>
    </TTGlyph>
    <TTGlyph name="Emacron.swsh.001" xMin="61" yMin="0" xMax="851" yMax="838">
      <component glyphName="E.swsh.001" x="0" y="0" flags="0x0"/>
      <component glyphName="macron" x="73" y="160" flags="0x4"/>
    </TTGlyph>
    <TTGlyph name="Eogonek" xMin="61" yMin="-215" xMax="611" yMax="660">
      <contour>
        <pt x="611" y="-190" on="1"/>
        <pt x="589" y="-204" on="0"/>
        <pt x="536" y="-215" on="0"/>
        <pt x="500" y="-215" on="1"/>
        <pt x="436" y="-215" on="0"/>
        <pt x="354" y="-157" on="0"/>
        <pt x="354" y="-100" on="1"/>
        <pt x="354" y="-35" on="0"/>
        <pt x="427" y="0" on="1"/>
        <pt x="61" y="0" on="1"/>
        <pt x="61" y="660" on="1"/>
        <pt x="593" y="660" on="1"/>
        <pt x="593" y="507" on="1"/>
        <pt x="265" y="507" on="1"/>
        <pt x="265" y="400" on="1"/>
        <pt x="527" y="400" on="1"/>
        <pt x="527" y="258" on="1"/>
        <pt x="265" y="258" on="1"/>
        <pt x="265" y="153" on="1"/>
        <pt x="606" y="153" on="1"/>
        <pt x="606" y="0" on="1"/>
        <pt x="543" y="-7" on="0"/>
        <pt x="491" y="-39" on="0"/>
        <pt x="491" y="-65" on="1"/>
        <pt x="491" y="-84" on="0"/>
        <pt x="519" y="-106" on="0"/>
        <pt x="543" y="-106" on="1"/>
        <pt x="572" y="-106" on="0"/>
        <pt x="586" y="-97" on="1"/>
      </contour>
    </TTGlyph>
    <TTGlyph name="Eogonek.swsh" xMin="10" yMin="-215" xMax="890" yMax="660">
      <contour>
        <pt x="890" y="-190" on="1"/>
        <pt x="868" y="-204" on="0"/>
        <pt x="815" y="-215" on="0"/>
        <pt x="779" y="-215" on="1"/>
        <pt x="715" y="-215" on="0"/>
        <pt x="633" y="-157" on="0"/>
        <pt x="633" y="-100" on="1"/>
        <pt x="633" y="-35" on="0"/>
        <pt x="706" y="0" on="1"/>
        <pt x="339" y="0" on="1"/>
        <pt x="339" y="513" on="1"/>
        <pt x="269" y="513" on="1"/>
        <pt x="230" y="513" on="0"/>
        <pt x="190" y="474" on="0"/>
        <pt x="190" y="441" on="1"/>
        <pt x="190" y="409" on="0"/>
        <pt x="234" y="366" on="0"/>
        <pt x="273" y="363" on="1"/>
        <pt x="216" y="229" on="1"/>
        <pt x="123" y="233" on="0"/>
        <pt x="10" y="348" on="0"/>
        <pt x="10" y="444" on="1"/>
        <pt x="10" y="548" on="0"/>
        <pt x="140" y="660" on="0"/>
        <pt x="266" y="660" on="1"/>
        <pt x="871" y="660" on="1"/>
        <pt x="871" y="507" on="1"/>
        <pt x="543" y="507" on="1"/>
        <pt x="543" y="400" on="1"/>
        <pt x="805" y="400" on="1"/>
        <pt x="805" y="258" on="1"/>
        <pt x="543" y="258" on="1"/>
        <pt x="543" y="153" on="1"/>
        <pt x="884" y="153" on="1"/>
        <pt x="884" y="1" on="1"/>
        <pt x="885" y="0" on="1"/>
        <pt x="822" y="-7" on="0"/>
        <pt x="770" y="-39" on="0"/>
        <pt x="770" y="-65" on="1"/>
        <pt x="770" y="-84" on="0"/>
        <pt x="798" y="-106" on="0"/>
        <pt x="822" y="-106" on="1"/>
        <pt x="851" y="-106" on="0"/>
        <pt x="865" y="-97" on="1"/>
      </contour>
    </TTGlyph>
    <TTGlyph name="Eth" xMin="10" yMin="0" xMax="708" yMax="660">
      <component glyphName="Dcroat" x="0" y="0" flags="0x0"/>
    </TTGlyph>
    <TTGlyph name="Euro" xMin="12" yMin="-10" xMax="684" yMax="670">
      <contour>
        <pt x="684" y="176" on="1"/>
        <pt x="664" y="84" on="0"/>
        <pt x="519" y="-10" on="0"/>
        <pt x="413" y="-10" on="1"/>
        <pt x="290" y="-10" on="0"/>
        <pt x="127" y="110" on="0"/>
        <pt x="100" y="221" on="1"/>
        <pt x="12" y="221" on="1"/>
        <pt x="12" y="287" on="1"/>
        <pt x="90" y="287" on="1"/>
        <pt x="88" y="315" on="0"/>
        <pt x="88" y="330" on="1"/>
        <pt x="88" y="347" on="0"/>
        <pt x="89" y="355" on="1"/>
        <pt x="12" y="355" on="1"/>
        <pt x="12" y="421" on="1"/>
        <pt x="96" y="421" on="1"/>
        <pt x="119" y="540" on="0"/>
        <pt x="285" y="670" on="0"/>
        <pt x="413" y="670" on="1"/>
        <pt x="514" y="670" on="0"/>
        <pt x="661" y="586" on="0"/>
        <pt x="682" y="513" on="1"/>
        <pt x="537" y="445" on="1"/>
        <pt x="532" y="490" on="0"/>
        <pt x="469" y="532" on="0"/>
        <pt x="423" y="532" on="1"/>
        <pt x="309" y="532" on="0"/>
        <pt x="282" y="421" on="1"/>
        <pt x="482" y="421" on="1"/>
        <pt x="454" y="355" on="1"/>
        <pt x="273" y="355" on="1"/>
        <pt x="272" y="347" on="0"/>
        <pt x="272" y="330" on="1"/>
        <pt x="272" y="313" on="0"/>
        <pt x="274" y="287" on="1"/>
        <pt x="449" y="287" on="1"/>
        <pt x="424" y="221" on="1"/>
        <pt x="286" y="221" on="1"/>
        <pt x="315" y="128" on="0"/>
        <pt x="419" y="128" on="1"/>
        <pt x="464" y="128" on="0"/>
        <pt x="523" y="173" on="0"/>
        <pt x="532" y="220" on="1"/>
      </contour>
    </TTGlyph>
    <TTGlyph name="Euro.tf" xMin="12" yMin="-10" xMax="585" yMax="670">
      <contour>
        <pt x="585" y="171" on="1"/>
        <pt x="571" y="88" on="0"/>
        <pt x="442" y="-10" on="0"/>
        <pt x="348" y="-10" on="1"/>
        <pt x="244" y="-10" on="0"/>
        <pt x="112" y="111" on="0"/>
        <pt x="92" y="225" on="1"/>
        <pt x="12" y="225" on="1"/>
        <pt x="12" y="291" on="1"/>
        <pt x="84" y="291" on="1"/>
        <pt x="83" y="304" on="0"/>
        <pt x="83" y="330" on="1"/>
        <pt x="83" y="348" on="0"/>
        <pt x="84" y="357" on="1"/>
        <pt x="12" y="357" on="1"/>
        <pt x="12" y="423" on="1"/>
        <pt x="90" y="423" on="1"/>
        <pt x="109" y="542" on="0"/>
        <pt x="246" y="670" on="0"/>
        <pt x="357" y="670" on="1"/>
        <pt x="455" y="670" on="0"/>
        <pt x="561" y="600" on="0"/>
        <pt x="580" y="521" on="1"/>
        <pt x="436" y="453" on="1"/>
        <pt x="432" y="493" on="0"/>
        <pt x="394" y="532" on="0"/>
        <pt x="359" y="532" on="1"/>
        <pt x="280" y="532" on="0"/>
        <pt x="256" y="423" on="1"/>
        <pt x="401" y="423" on="1"/>
        <pt x="387" y="357" on="1"/>
        <pt x="249" y="357" on="1"/>
        <pt x="248" y="348" on="0"/>
        <pt x="248" y="330" on="1"/>
        <pt x="248" y="303" on="0"/>
        <pt x="249" y="291" on="1"/>
        <pt x="373" y="291" on="1"/>
        <pt x="360" y="225" on="1"/>
        <pt x="258" y="225" on="1"/>
        <pt x="283" y="128" on="0"/>
        <pt x="351" y="128" on="1"/>
        <pt x="392" y="128" on="0"/>
        <pt x="435" y="168" on="0"/>
        <pt x="438" y="210" on="1"/>
      </contour>
    </TTGlyph>
    <TTGlyph name="F" xMin="61" yMin="0" xMax="592" yMax="660">
      <contour>
        <pt x="265" y="507" on="1"/>
        <pt x="265" y="392" on="1"/>
        <pt x="527" y="392" on="1"/>
        <pt x="527" y="239" on="1"/>
        <pt x="265" y="239" on="1"/>
        <pt x="265" y="0" on="1"/>
        <pt x="61" y="0" on="1"/>
        <pt x="61" y="660" on="1"/>
        <pt x="592" y="660" on="1"/>
        <pt x="592" y="507" on="1"/>
      </contour>
    </TTGlyph>
    <TTGlyph name="F.swsh" xMin="10" yMin="0" xMax="850" yMax="660">
      <contour>
        <pt x="523" y="507" on="1"/>
        <pt x="523" y="392" on="1"/>
        <pt x="785" y="392" on="1"/>
        <pt x="785" y="239" on="1"/>
        <pt x="523" y="239" on="1"/>
        <pt x="523" y="0" on="1"/>
        <pt x="319" y="0" on="1"/>
        <pt x="319" y="513" on="1"/>
        <pt x="269" y="513" on="1"/>
        <pt x="230" y="513" on="0"/>
        <pt x="190" y="474" on="0"/>
        <pt x="190" y="441" on="1"/>
        <pt x="190" y="409" on="0"/>
        <pt x="234" y="366" on="0"/>
        <pt x="273" y="363" on="1"/>
        <pt x="216" y="229" on="1"/>
        <pt x="123" y="233" on="0"/>
        <pt x="10" y="348" on="0"/>
        <pt x="10" y="444" on="1"/>
        <pt x="10" y="548" on="0"/>
        <pt x="140" y="660" on="0"/>
        <pt x="266" y="660" on="1"/>
        <pt x="850" y="660" on="1"/>
        <pt x="850" y="507" on="1"/>
      </contour>
    </TTGlyph>
    <TTGlyph name="G" xMin="36" yMin="-10" xMax="672" yMax="670">
      <contour>
        <pt x="363" y="365" on="1"/>
        <pt x="671" y="365" on="1"/>
        <pt x="671" y="0" on="1"/>
        <pt x="533" y="0" on="1"/>
        <pt x="526" y="76" on="1"/>
        <pt x="473" y="-10" on="0"/>
        <pt x="343" y="-10" on="1"/>
        <pt x="255" y="-10" on="0"/>
        <pt x="116" y="68" on="0"/>
        <pt x="36" y="220" on="0"/>
        <pt x="36" y="328" on="1"/>
        <pt x="36" y="435" on="0"/>
        <pt x="117" y="589" on="0"/>
        <pt x="268" y="670" on="0"/>
        <pt x="372" y="670" on="1"/>
        <pt x="490" y="670" on="0"/>
        <pt x="632" y="588" on="0"/>
        <pt x="672" y="495" on="1"/>
        <pt x="482" y="424" on="1"/>
        <pt x="463" y="514" on="0"/>
        <pt x="379" y="514" on="1"/>
        <pt x="246" y="514" on="0"/>
        <pt x="246" y="330" on="1"/>
        <pt x="246" y="232" on="0"/>
        <pt x="314" y="142" on="0"/>
        <pt x="385" y="142" on="1"/>
        <pt x="437" y="142" on="0"/>
        <pt x="499" y="186" on="0"/>
        <pt x="499" y="229" on="1"/>
        <pt x="499" y="234" on="1"/>
        <pt x="363" y="234" on="1"/>
      </contour>
    </TTGlyph>
    <TTGlyph name="G.ss04" xMin="36" yMin="-10" xMax="682" yMax="670">
      <contour>
        <pt x="682" y="366" on="1"/>
        <pt x="682" y="279" on="1"/>
        <pt x="682" y="131" on="0"/>
        <pt x="515" y="-10" on="0"/>
        <pt x="369" y="-10" on="1"/>
        <pt x="269" y="-10" on="0"/>
        <pt x="119" y="67" on="0"/>
        <pt x="36" y="219" on="0"/>
        <pt x="36" y="328" on="1"/>
        <pt x="36" y="435" on="0"/>
        <pt x="117" y="589" on="0"/>
        <pt x="268" y="670" on="0"/>
        <pt x="372" y="670" on="1"/>
        <pt x="490" y="670" on="0"/>
        <pt x="632" y="588" on="0"/>
        <pt x="672" y="495" on="1"/>
        <pt x="482" y="424" on="1"/>
        <pt x="472" y="470" on="0"/>
        <pt x="420" y="514" on="0"/>
        <pt x="374" y="514" on="1"/>
        <pt x="313" y="514" on="0"/>
        <pt x="246" y="422" on="0"/>
        <pt x="246" y="330" on="1"/>
        <pt x="246" y="231" on="0"/>
        <pt x="314" y="146" on="0"/>
        <pt x="390" y="146" on="1"/>
        <pt x="446" y="146" on="0"/>
        <pt x="509" y="199" on="0"/>
        <pt x="509" y="236" on="1"/>
        <pt x="509" y="243" on="1"/>
        <pt x="369" y="243" on="1"/>
        <pt x="369" y="366" on="1"/>
      </contour>
    </TTGlyph>
    <TTGlyph name="Gbreve" xMin="36" yMin="-10" xMax="672" yMax="875">
      <component glyphName="G" x="0" y="0" flags="0x0"/>
      <component glyphName="breve" x="116" y="160" flags="0x4"/>
    </TTGlyph>
    <TTGlyph name="Gbreve.ss04" xMin="36" yMin="-10" xMax="682" yMax="875">
      <component glyphName="G.ss04" x="0" y="0" flags="0x0"/>
      <component glyphName="breve" x="116" y="160" flags="0x4"/>
    </TTGlyph>
    <TTGlyph name="Gcommaaccent.sc" xMin="32" yMin="-242" xMax="599" yMax="568">
      <component glyphName="g.sc" x="0" y="0" flags="0x0"/>
      <component glyphName="uni0326" x="745" y="0" flags="0x0"/>
    </TTGlyph>
    <TTGlyph name="Gcommaaccent.sc.ss04" xMin="37" yMin="-242" xMax="605" yMax="568">
      <component glyphName="g.sc.ss04" x="0" y="0" flags="0x0"/>
      <component glyphName="uni0326" x="786" y="0" flags="0x0"/>
    </TTGlyph>
    <TTGlyph name="Gcommaaccent.ss04" xMin="36" yMin="-242" xMax="682" yMax="670">
      <component glyphName="G.ss04" x="0" y="0" flags="0x0"/>
      <component glyphName="uni0326" x="791" y="0" flags="0x0"/>
    </TTGlyph>
    <TTGlyph name="H" xMin="61" yMin="0" xMax="684" yMax="660">
      <contour>
        <pt x="684" y="660" on="1"/>
        <pt x="684" y="0" on="1"/>
        <pt x="479" y="0" on="1"/>
        <pt x="479" y="256" on="1"/>
        <pt x="265" y="256" on="1"/>
        <pt x="265" y="0" on="1"/>
        <pt x="61" y="0" on="1"/>
        <pt x="61" y="660" on="1"/>
        <pt x="265" y="660" on="1"/>
        <pt x="265" y="409" on="1"/>
        <pt x="479" y="409" on="1"/>
        <pt x="479" y="660" on="1"/>
      </contour>
    </TTGlyph>
    <TTGlyph name="Hinferior" xMin="36" yMin="-189" xMax="453" yMax="208">
      <component glyphName="Hsuperior" x="0" y="-522" flags="0x4"/>
    </TTGlyph>
    <TTGlyph name="Hsuperior" xMin="36" yMin="333" xMax="453" yMax="730">
      <contour>
        <pt x="453" y="730" on="1"/>
        <pt x="453" y="333" on="1"/>
        <pt x="311" y="333" on="1"/>
        <pt x="311" y="483" on="1"/>
        <pt x="178" y="483" on="1"/>
        <pt x="178" y="333" on="1"/>
        <pt x="36" y="333" on="1"/>
        <pt x="36" y="730" on="1"/>
        <pt x="178" y="730" on="1"/>
        <pt x="178" y="587" on="1"/>
        <pt x="311" y="587" on="1"/>
        <pt x="311" y="730" on="1"/>
      </contour>
    </TTGlyph>
    <TTGlyph name="I" xMin="61" yMin="0" xMax="265" yMax="660">
      <contour>
        <pt x="265" y="0" on="1"/>
        <pt x="61" y="0" on="1"/>
        <pt x="61" y="660" on="1"/>
        <pt x="265" y="660" on="1"/>
      </contour>
    </TTGlyph>
    <TTGlyph name="IJ" xMin="61" yMin="-10" xMax="919" yMax="660">
      <component glyphName="I" x="0" y="0" flags="0x0"/>
      <component glyphName="J" x="326" y="0" flags="0x0"/>
    </TTGlyph>
    <TTGlyph name="IJ.ss05" xMin="60" yMin="-10" xMax="626" yMax="660">
      <contour>
        <pt x="626" y="263" on="1"/>
        <pt x="626" y="135" on="0"/>
        <pt x="471" y="-10" on="0"/>
        <pt x="336" y="-10" on="1"/>
        <pt x="205" y="-10" on="0"/>
        <pt x="60" y="96" on="0"/>
        <pt x="60" y="199" on="1"/>
        <pt x="60" y="224" on="0"/>
        <pt x="62" y="237" on="1"/>
        <pt x="266" y="237" on="1"/>
        <pt x="265" y="230" on="0"/>
        <pt x="265" y="218" on="1"/>
        <pt x="265" y="146" on="0"/>
        <pt x="341" y="146" on="1"/>
        <pt x="382" y="146" on="0"/>
        <pt x="421" y="201" on="0"/>
        <pt x="421" y="261" on="1"/>
        <pt x="421" y="660" on="1"/>
        <pt x="626" y="660" on="1"/>
      </contour>
      <contour>
        <pt x="265" y="291" on="1"/>
        <pt x="61" y="291" on="1"/>
        <pt x="61" y="660" on="1"/>
        <pt x="265" y="660" on="1"/>
      </contour>
    </TTGlyph>
    <TTGlyph name="Iacute" xMin="61" yMin="0" xMax="318" yMax="881">
      <component glyphName="I" x="0" y="0" flags="0x0"/>
      <component glyphName="acutecomb.cap" x="165" y="0" flags="0x0"/>
    </TTGlyph>
    <TTGlyph name="Iacute_J.loclNLD" xMin="61" yMin="-10" xMax="972" yMax="881">
      <component glyphName="I" x="0" y="0" flags="0x0"/>
      <component glyphName="acutecomb.cap" x="165" y="0" flags="0x0"/>
      <component glyphName="J" x="326" y="0" flags="0x0"/>
      <component glyphName="acutecomb.cap" x="819" y="0" flags="0x0"/>
    </TTGlyph>
    <TTGlyph name="Iacute_J.loclNLD.ss05" xMin="46" yMin="-10" xMax="670" yMax="881">
      <component glyphName="acutecomb.cap" x="517" y="0" flags="0x0"/>
      <component glyphName="acutecomb.cap" x="149" y="0" flags="0x0"/>
      <component glyphName="IJ.ss05" x="-14" y="0" flags="0x0"/>
    </TTGlyph>
    <TTGlyph name="Icircumflex" xMin="-31" yMin="0" xMax="357" yMax="880">
      <component glyphName="I" x="0" y="0" flags="0x0"/>
      <component glyphName="uni0302.cap" x="163" y="0" flags="0x0"/>
    </TTGlyph>
    <TTGlyph name="Idieresis" xMin="-36" yMin="0" xMax="363" yMax="876">
      <contour>
        <pt x="97" y="876" on="0"/>
        <pt x="147" y="831" on="0"/>
        <pt x="147" y="791" on="1"/>
        <pt x="147" y="751" on="0"/>
        <pt x="98" y="706" on="0"/>
        <pt x="54" y="706" on="1"/>
        <pt x="11" y="706" on="0"/>
        <pt x="-36" y="751" on="0"/>
        <pt x="-36" y="791" on="1"/>
        <pt x="-36" y="831" on="0"/>
        <pt x="11" y="876" on="0"/>
        <pt x="54" y="876" on="1"/>
      </contour>
      <contour>
        <pt x="313" y="876" on="0"/>
        <pt x="363" y="831" on="0"/>
        <pt x="363" y="791" on="1"/>
        <pt x="363" y="751" on="0"/>
        <pt x="313" y="706" on="0"/>
        <pt x="269" y="706" on="1"/>
        <pt x="226" y="706" on="0"/>
        <pt x="179" y="751" on="0"/>
        <pt x="179" y="791" on="1"/>
        <pt x="179" y="831" on="0"/>
        <pt x="226" y="876" on="0"/>
        <pt x="269" y="876" on="1"/>
      </contour>
      <contour>
        <pt x="265" y="0" on="1"/>
        <pt x="61" y="0" on="1"/>
        <pt x="61" y="660" on="1"/>
        <pt x="265" y="660" on="1"/>
      </contour>
    </TTGlyph>
    <TTGlyph name="Idotaccent" xMin="61" yMin="0" xMax="268" yMax="884">
      <component glyphName="I" x="0" y="0" flags="0x0"/>
      <component glyphName="dotaccent" x="-87" y="160" flags="0x4"/>
    </TTGlyph>
    <TTGlyph name="Igrave" xMin="8" yMin="0" xMax="265" yMax="881">
      <component glyphName="I" x="0" y="0" flags="0x0"/>
      <component glyphName="gravecomb.cap" x="161" y="0" flags="0x0"/>
    </TTGlyph>
    <TTGlyph name="Imacron" xMin="8" yMin="0" xMax="316" yMax="838">
      <contour>
        <pt x="316" y="719" on="1"/>
        <pt x="8" y="719" on="1"/>
        <pt x="8" y="838" on="1"/>
        <pt x="316" y="838" on="1"/>
      </contour>
      <contour>
        <pt x="265" y="0" on="1"/>
        <pt x="61" y="0" on="1"/>
        <pt x="61" y="660" on="1"/>
        <pt x="265" y="660" on="1"/>
      </contour>
    </TTGlyph>
    <TTGlyph name="Iogonek" xMin="16" yMin="-215" xMax="273" yMax="660">
      <contour>
        <pt x="273" y="-190" on="1"/>
        <pt x="251" y="-204" on="0"/>
        <pt x="198" y="-215" on="0"/>
        <pt x="161" y="-215" on="1"/>
        <pt x="97" y="-215" on="0"/>
        <pt x="16" y="-157" on="0"/>
        <pt x="16" y="-100" on="1"/>
        <pt x="16" y="-68" on="0"/>
        <pt x="48" y="-17" on="0"/>
        <pt x="77" y="0" on="1"/>
        <pt x="61" y="0" on="1"/>
        <pt x="61" y="660" on="1"/>
        <pt x="265" y="660" on="1"/>
        <pt x="265" y="0" on="1"/>
        <pt x="203" y="-9" on="0"/>
        <pt x="153" y="-40" on="0"/>
        <pt x="153" y="-65" on="1"/>
        <pt x="153" y="-85" on="0"/>
        <pt x="179" y="-106" on="0"/>
        <pt x="204" y="-106" on="1"/>
        <pt x="231" y="-106" on="0"/>
        <pt x="247" y="-96" on="1"/>
      </contour>
    </TTGlyph>
    <TTGlyph name="J" xMin="26" yMin="-10" xMax="593" yMax="660">
      <contour>
        <pt x="593" y="263" on="1"/>
        <pt x="593" y="133" on="0"/>
        <pt x="437" y="-10" on="0"/>
        <pt x="295" y="-10" on="1"/>
        <pt x="161" y="-10" on="0"/>
        <pt x="26" y="109" on="0"/>
        <pt x="26" y="212" on="1"/>
        <pt x="26" y="244" on="0"/>
        <pt x="32" y="277" on="1"/>
        <pt x="236" y="311" on="1"/>
        <pt x="231" y="269" on="0"/>
        <pt x="231" y="245" on="1"/>
        <pt x="231" y="192" on="0"/>
        <pt x="268" y="146" on="0"/>
        <pt x="307" y="146" on="1"/>
        <pt x="350" y="146" on="0"/>
        <pt x="388" y="210" on="0"/>
        <pt x="388" y="281" on="1"/>
        <pt x="388" y="660" on="1"/>
        <pt x="593" y="660" on="1"/>
      </contour>
    </TTGlyph>
    <TTGlyph name="K" xMin="61" yMin="0" xMax="704" yMax="660">
      <contour>
        <pt x="332" y="265" on="1"/>
        <pt x="265" y="178" on="1"/>
        <pt x="265" y="0" on="1"/>
        <pt x="61" y="0" on="1"/>
        <pt x="61" y="660" on="1"/>
        <pt x="265" y="660" on="1"/>
        <pt x="265" y="390" on="1"/>
        <pt x="467" y="660" on="1"/>
        <pt x="688" y="660" on="1"/>
        <pt x="476" y="395" on="1"/>
        <pt x="704" y="0" on="1"/>
        <pt x="473" y="0" on="1"/>
      </contour>
    </TTGlyph>
    <TTGlyph name="Kcommaaccent.sc" xMin="61" yMin="-242" xMax="678" yMax="560">
      <component glyphName="k.sc" x="0" y="0" flags="0x0"/>
      <component glyphName="uni0326" x="759" y="0" flags="0x0"/>
    </TTGlyph>
    <TTGlyph name="L" xMin="61" yMin="0" xMax="579" yMax="660">
      <contour>
        <pt x="579" y="153" on="1"/>
        <pt x="579" y="0" on="1"/>
        <pt x="61" y="0" on="1"/>
        <pt x="61" y="660" on="1"/>
        <pt x="265" y="660" on="1"/>
        <pt x="265" y="153" on="1"/>
      </contour>
    </TTGlyph>
    <TTGlyph name="L.swsh" xMin="61" yMin="0" xMax="709" yMax="660">
      <contour>
        <pt x="620" y="418" on="0"/>
        <pt x="709" y="296" on="0"/>
        <pt x="709" y="216" on="1"/>
        <pt x="709" y="111" on="0"/>
        <pt x="578" y="0" on="0"/>
        <pt x="453" y="0" on="1"/>
        <pt x="61" y="0" on="1"/>
        <pt x="61" y="660" on="1"/>
        <pt x="265" y="660" on="1"/>
        <pt x="265" y="153" on="1"/>
        <pt x="450" y="153" on="1"/>
        <pt x="493" y="153" on="0"/>
        <pt x="536" y="188" on="0"/>
        <pt x="536" y="219" on="1"/>
        <pt x="536" y="253" on="0"/>
        <pt x="496" y="294" on="0"/>
        <pt x="454" y="295" on="1"/>
        <pt x="511" y="421" on="1"/>
      </contour>
    </TTGlyph>
    <TTGlyph name="Lacute" xMin="61" yMin="0" xMax="579" yMax="881">
      <component glyphName="L" x="0" y="0" flags="0x0"/>
      <component glyphName="acutecomb.cap" x="163" y="0" flags="0x0"/>
    </TTGlyph>
    <TTGlyph name="Lacute.swsh" xMin="61" yMin="0" xMax="709" yMax="881">
      <component glyphName="L.swsh" x="0" y="0" flags="0x0"/>
      <component glyphName="acutecomb.cap" x="163" y="0" flags="0x0"/>
    </TTGlyph>
    <TTGlyph name="Lcaron" xMin="61" yMin="0" xMax="579" yMax="701">
      <contour>
        <pt x="477" y="447" on="1"/>
        <pt x="346" y="447" on="1"/>
        <pt x="372" y="701" on="1"/>
        <pt x="544" y="701" on="1"/>
      </contour>
      <contour>
        <pt x="579" y="153" on="1"/>
        <pt x="579" y="0" on="1"/>
        <pt x="61" y="0" on="1"/>
        <pt x="61" y="660" on="1"/>
        <pt x="265" y="660" on="1"/>
        <pt x="265" y="153" on="1"/>
      </contour>
    </TTGlyph>
    <TTGlyph name="Lcaron.swsh" xMin="61" yMin="0" xMax="709" yMax="701">
      <contour>
        <pt x="463" y="447" on="1"/>
        <pt x="350" y="447" on="1"/>
        <pt x="372" y="701" on="1"/>
        <pt x="520" y="701" on="1"/>
      </contour>
      <contour>
        <pt x="620" y="418" on="0"/>
        <pt x="709" y="296" on="0"/>
        <pt x="709" y="216" on="1"/>
        <pt x="709" y="111" on="0"/>
        <pt x="578" y="0" on="0"/>
        <pt x="453" y="0" on="1"/>
        <pt x="61" y="0" on="1"/>
        <pt x="61" y="660" on="1"/>
        <pt x="265" y="660" on="1"/>
        <pt x="265" y="153" on="1"/>
        <pt x="450" y="153" on="1"/>
        <pt x="493" y="153" on="0"/>
        <pt x="536" y="188" on="0"/>
        <pt x="536" y="219" on="1"/>
        <pt x="536" y="253" on="0"/>
        <pt x="496" y="294" on="0"/>
        <pt x="454" y="295" on="1"/>
        <pt x="511" y="421" on="1"/>
      </contour>
    </TTGlyph>
    <TTGlyph name="Lcommaaccent.sc" xMin="61" yMin="-242" xMax="541" yMax="560">
      <component glyphName="l.sc" x="0" y="0" flags="0x0"/>
      <component glyphName="uni0326" x="724" y="0" flags="0x0"/>
    </TTGlyph>
    <TTGlyph name="Lcommaaccent.swsh" xMin="61" yMin="-242" xMax="709" yMax="660">
      <component glyphName="L.swsh" x="0" y="0" flags="0x0"/>
      <component glyphName="uni0326" x="774" y="0" flags="0x0"/>
    </TTGlyph>
    <TTGlyph name="Ldot" xMin="61" yMin="0" xMax="640" yMax="660">
      <component glyphName="L" x="0" y="0" flags="0x0"/>
      <component glyphName="period" x="379" y="269" flags="0x4"/>
    </TTGlyph>
    <TTGlyph name="Lslash" xMin="-5" yMin="0" xMax="625" yMax="660">
      <contour>
        <pt x="625" y="153" on="1"/>
        <pt x="625" y="0" on="1"/>
        <pt x="107" y="0" on="1"/>
        <pt x="107" y="206" on="1"/>
        <pt x="-5" y="155" on="1"/>
        <pt x="-5" y="295" on="1"/>
        <pt x="107" y="346" on="1"/>
        <pt x="107" y="660" on="1"/>
        <pt x="311" y="660" on="1"/>
        <pt x="311" y="440" on="1"/>
        <pt x="480" y="517" on="1"/>
        <pt x="480" y="377" on="1"/>
        <pt x="311" y="300" on="1"/>
        <pt x="311" y="153" on="1"/>
      </contour>
    </TTGlyph>
    <TTGlyph name="Lslash.swsh" xMin="-5" yMin="0" xMax="755" yMax="660">
      <contour>
        <pt x="666" y="418" on="0"/>
        <pt x="755" y="296" on="0"/>
        <pt x="755" y="216" on="1"/>
        <pt x="755" y="111" on="0"/>
        <pt x="624" y="0" on="0"/>
        <pt x="499" y="0" on="1"/>
        <pt x="107" y="0" on="1"/>
        <pt x="107" y="206" on="1"/>
        <pt x="-5" y="155" on="1"/>
        <pt x="-5" y="295" on="1"/>
        <pt x="107" y="346" on="1"/>
        <pt x="107" y="660" on="1"/>
        <pt x="311" y="660" on="1"/>
        <pt x="311" y="440" on="1"/>
        <pt x="480" y="517" on="1"/>
        <pt x="480" y="377" on="1"/>
        <pt x="311" y="300" on="1"/>
        <pt x="311" y="153" on="1"/>
        <pt x="496" y="153" on="1"/>
        <pt x="539" y="153" on="0"/>
        <pt x="582" y="188" on="0"/>
        <pt x="582" y="219" on="1"/>
        <pt x="582" y="253" on="0"/>
        <pt x="542" y="294" on="0"/>
        <pt x="500" y="295" on="1"/>
        <pt x="557" y="421" on="1"/>
      </contour>
    </TTGlyph>
    <TTGlyph name="M" xMin="61" yMin="0" xMax="870" yMax="660">
      <contour>
        <pt x="870" y="0" on="1"/>
        <pt x="690" y="0" on="1"/>
        <pt x="690" y="264" on="1"/>
        <pt x="694" y="477" on="1"/>
        <pt x="692" y="477" on="1"/>
        <pt x="547" y="0" on="1"/>
        <pt x="383" y="0" on="1"/>
        <pt x="240" y="477" on="1"/>
        <pt x="237" y="477" on="1"/>
        <pt x="241" y="264" on="1"/>
        <pt x="241" y="0" on="1"/>
        <pt x="61" y="0" on="1"/>
        <pt x="61" y="660" on="1"/>
        <pt x="349" y="660" on="1"/>
        <pt x="438" y="347" on="1"/>
        <pt x="471" y="216" on="1"/>
        <pt x="473" y="216" on="1"/>
        <pt x="506" y="347" on="1"/>
        <pt x="595" y="660" on="1"/>
        <pt x="870" y="660" on="1"/>
      </contour>
    </TTGlyph>
    <TTGlyph name="M.swsh" xMin="10" yMin="-110" xMax="1128" yMax="660">
      <contour>
        <pt x="1128" y="660" on="1"/>
        <pt x="1128" y="0" on="1"/>
        <pt x="948" y="0" on="1"/>
        <pt x="948" y="264" on="1"/>
        <pt x="952" y="477" on="1"/>
        <pt x="950" y="477" on="1"/>
        <pt x="805" y="0" on="1"/>
        <pt x="641" y="0" on="1"/>
        <pt x="498" y="477" on="1"/>
        <pt x="495" y="477" on="1"/>
        <pt x="499" y="264" on="1"/>
        <pt x="499" y="125" on="1"/>
        <pt x="499" y="4" on="0"/>
        <pt x="372" y="-110" on="0"/>
        <pt x="257" y="-110" on="1"/>
        <pt x="181" y="-110" on="0"/>
        <pt x="85" y="-67" on="0"/>
        <pt x="55" y="-18" on="1"/>
        <pt x="119" y="108" on="1"/>
        <pt x="153" y="38" on="0"/>
        <pt x="230" y="38" on="1"/>
        <pt x="319" y="38" on="0"/>
        <pt x="319" y="118" on="1"/>
        <pt x="319" y="513" on="1"/>
        <pt x="269" y="513" on="1"/>
        <pt x="230" y="513" on="0"/>
        <pt x="191" y="473" on="0"/>
        <pt x="191" y="441" on="1"/>
        <pt x="191" y="409" on="0"/>
        <pt x="235" y="366" on="0"/>
        <pt x="273" y="363" on="1"/>
        <pt x="216" y="229" on="1"/>
        <pt x="124" y="233" on="0"/>
        <pt x="10" y="348" on="0"/>
        <pt x="10" y="444" on="1"/>
        <pt x="10" y="548" on="0"/>
        <pt x="141" y="660" on="0"/>
        <pt x="266" y="660" on="1"/>
        <pt x="607" y="660" on="1"/>
        <pt x="696" y="347" on="1"/>
        <pt x="729" y="216" on="1"/>
        <pt x="731" y="216" on="1"/>
        <pt x="764" y="347" on="1"/>
        <pt x="853" y="660" on="1"/>
      </contour>
    </TTGlyph>
    <TTGlyph name="M.swsh.001" xMin="10" yMin="0" xMax="1128" yMax="660">
      <contour>
        <pt x="1128" y="660" on="1"/>
        <pt x="1128" y="0" on="1"/>
        <pt x="948" y="0" on="1"/>
        <pt x="948" y="264" on="1"/>
        <pt x="952" y="477" on="1"/>
        <pt x="950" y="477" on="1"/>
        <pt x="805" y="0" on="1"/>
        <pt x="641" y="0" on="1"/>
        <pt x="498" y="477" on="1"/>
        <pt x="495" y="477" on="1"/>
        <pt x="499" y="264" on="1"/>
        <pt x="499" y="0" on="1"/>
        <pt x="319" y="0" on="1"/>
        <pt x="319" y="513" on="1"/>
        <pt x="269" y="513" on="1"/>
        <pt x="230" y="513" on="0"/>
        <pt x="191" y="473" on="0"/>
        <pt x="191" y="441" on="1"/>
        <pt x="191" y="409" on="0"/>
        <pt x="235" y="366" on="0"/>
        <pt x="273" y="363" on="1"/>
        <pt x="216" y="229" on="1"/>
        <pt x="124" y="233" on="0"/>
        <pt x="10" y="348" on="0"/>
        <pt x="10" y="444" on="1"/>
        <pt x="10" y="548" on="0"/>
        <pt x="141" y="660" on="0"/>
        <pt x="266" y="660" on="1"/>
        <pt x="607" y="660" on="1"/>
        <pt x="696" y="347" on="1"/>
        <pt x="729" y="216" on="1"/>
        <pt x="731" y="216" on="1"/>
        <pt x="764" y="347" on="1"/>
        <pt x="853" y="660" on="1"/>
      </contour>
    </TTGlyph>
    <TTGlyph name="N" xMin="61" yMin="0" xMax="683" yMax="660">
      <contour>
        <pt x="683" y="0" on="1"/>
        <pt x="459" y="0" on="1"/>
        <pt x="279" y="327" on="1"/>
        <pt x="237" y="417" on="1"/>
        <pt x="235" y="417" on="1"/>
        <pt x="239" y="286" on="1"/>
        <pt x="239" y="0" on="1"/>
        <pt x="61" y="0" on="1"/>
        <pt x="61" y="660" on="1"/>
        <pt x="284" y="660" on="1"/>
        <pt x="464" y="333" on="1"/>
        <pt x="507" y="243" on="1"/>
        <pt x="508" y="243" on="1"/>
        <pt x="504" y="374" on="1"/>
        <pt x="504" y="660" on="1"/>
        <pt x="683" y="660" on="1"/>
      </contour>
    </TTGlyph>
    <TTGlyph name="N.swsh" xMin="61" yMin="0" xMax="949" yMax="723">
      <contour>
        <pt x="824" y="723" on="0"/>
        <pt x="918" y="682" on="0"/>
        <pt x="949" y="639" on="1"/>
        <pt x="881" y="516" on="1"/>
        <pt x="862" y="548" on="0"/>
        <pt x="816" y="575" on="0"/>
        <pt x="777" y="575" on="1"/>
        <pt x="732" y="575" on="0"/>
        <pt x="683" y="521" on="0"/>
        <pt x="683" y="470" on="1"/>
        <pt x="683" y="0" on="1"/>
        <pt x="459" y="0" on="1"/>
        <pt x="279" y="327" on="1"/>
        <pt x="237" y="417" on="1"/>
        <pt x="235" y="417" on="1"/>
        <pt x="239" y="286" on="1"/>
        <pt x="239" y="0" on="1"/>
        <pt x="61" y="0" on="1"/>
        <pt x="61" y="660" on="1"/>
        <pt x="284" y="660" on="1"/>
        <pt x="464" y="333" on="1"/>
        <pt x="507" y="243" on="1"/>
        <pt x="508" y="243" on="1"/>
        <pt x="504" y="374" on="1"/>
        <pt x="504" y="487" on="1"/>
        <pt x="504" y="608" on="0"/>
        <pt x="634" y="723" on="0"/>
        <pt x="750" y="723" on="1"/>
      </contour>
    </TTGlyph>
    <TTGlyph name="Nacute" xMin="61" yMin="0" xMax="683" yMax="881">
      <component glyphName="N" x="0" y="0" flags="0x0"/>
      <component glyphName="acutecomb.cap" x="373" y="0" flags="0x0"/>
    </TTGlyph>
    <TTGlyph name="Nacute.swsh" xMin="61" yMin="0" xMax="949" yMax="881">
      <component glyphName="N.swsh" x="0" y="0" flags="0x0"/>
      <component glyphName="acutecomb.cap" x="373" y="0" flags="0x0"/>
    </TTGlyph>
    <TTGlyph name="Ncaron" xMin="61" yMin="0" xMax="683" yMax="881">
      <component glyphName="N" x="0" y="0" flags="0x0"/>
      <component glyphName="uni030C.cap" x="373" y="0" flags="0x0"/>
    </TTGlyph>
    <TTGlyph name="Ncaron.swsh" xMin="61" yMin="0" xMax="949" yMax="881">
      <component glyphName="N.swsh" x="0" y="0" flags="0x0"/>
      <component glyphName="uni030C.cap" x="373" y="0" flags="0x0"/>
    </TTGlyph>
    <TTGlyph name="Ncommaaccent.sc" xMin="61" yMin="-242" xMax="640" yMax="560">
      <component glyphName="n.sc" x="0" y="0" flags="0x0"/>
      <component glyphName="uni0326" x="758" y="0" flags="0x0"/>
    </TTGlyph>
    <TTGlyph name="Ncommaaccent.swsh" xMin="61" yMin="-242" xMax="949" yMax="723">
      <component glyphName="N.swsh" x="0" y="0" flags="0x0"/>
      <component glyphName="uni0326" x="785" y="0" flags="0x0"/>
    </TTGlyph>
    <TTGlyph name="Ntilde" xMin="61" yMin="0" xMax="683" yMax="880">
      <component glyphName="N" x="0" y="0" flags="0x0"/>
      <component glyphName="tilde" x="123" y="160" flags="0x4"/>
    </TTGlyph>
    <TTGlyph name="Ntilde.swsh" xMin="61" yMin="0" xMax="949" yMax="880">
      <component glyphName="N.swsh" x="0" y="0" flags="0x0"/>
      <component glyphName="tilde" x="123" y="160" flags="0x4"/>
    </TTGlyph>
    <TTGlyph name="O" xMin="36" yMin="-10" xMax="696" yMax="670">
      <contour>
        <pt x="522" y="670" on="0"/>
        <pt x="696" y="491" on="0"/>
        <pt x="696" y="330" on="1"/>
        <pt x="696" y="169" on="0"/>
        <pt x="522" y="-10" on="0"/>
        <pt x="367" y="-10" on="1"/>
        <pt x="265" y="-10" on="0"/>
        <pt x="116" y="70" on="0"/>
        <pt x="36" y="224" on="0"/>
        <pt x="36" y="330" on="1"/>
        <pt x="36" y="436" on="0"/>
        <pt x="116" y="590" on="0"/>
        <pt x="265" y="670" on="0"/>
        <pt x="367" y="670" on="1"/>
      </contour>
      <contour>
        <pt x="306" y="514" on="0"/>
        <pt x="246" y="423" on="0"/>
        <pt x="246" y="330" on="1"/>
        <pt x="246" y="237" on="0"/>
        <pt x="306" y="146" on="0"/>
        <pt x="367" y="146" on="1"/>
        <pt x="428" y="146" on="0"/>
        <pt x="487" y="236" on="0"/>
        <pt x="487" y="330" on="1"/>
        <pt x="487" y="424" on="0"/>
        <pt x="428" y="514" on="0"/>
        <pt x="367" y="514" on="1"/>
      </contour>
    </TTGlyph>
    <TTGlyph name="OE" xMin="36" yMin="-10" xMax="1014" yMax="670">
      <contour>
        <pt x="1014" y="153" on="1"/>
        <pt x="1014" y="0" on="1"/>
        <pt x="550" y="0" on="1"/>
        <pt x="550" y="71" on="1"/>
        <pt x="472" y="-10" on="0"/>
        <pt x="348" y="-10" on="1"/>
        <pt x="253" y="-10" on="0"/>
        <pt x="112" y="71" on="0"/>
        <pt x="36" y="224" on="0"/>
        <pt x="36" y="330" on="1"/>
        <pt x="36" y="436" on="0"/>
        <pt x="112" y="589" on="0"/>
        <pt x="253" y="670" on="0"/>
        <pt x="348" y="670" on="1"/>
        <pt x="472" y="670" on="0"/>
        <pt x="550" y="590" on="1"/>
        <pt x="550" y="660" on="1"/>
        <pt x="1002" y="660" on="1"/>
        <pt x="1002" y="507" on="1"/>
        <pt x="680" y="507" on="1"/>
        <pt x="680" y="400" on="1"/>
        <pt x="936" y="400" on="1"/>
        <pt x="936" y="258" on="1"/>
        <pt x="680" y="258" on="1"/>
        <pt x="680" y="153" on="1"/>
      </contour>
      <contour>
        <pt x="418" y="146" on="0"/>
        <pt x="477" y="237" on="0"/>
        <pt x="477" y="330" on="1"/>
        <pt x="477" y="423" on="0"/>
        <pt x="418" y="514" on="0"/>
        <pt x="359" y="514" on="1"/>
        <pt x="300" y="514" on="0"/>
        <pt x="241" y="423" on="0"/>
        <pt x="241" y="330" on="1"/>
        <pt x="241" y="237" on="0"/>
        <pt x="300" y="146" on="0"/>
        <pt x="359" y="146" on="1"/>
      </contour>
    </TTGlyph>
    <TTGlyph name="Oacute" xMin="36" yMin="-10" xMax="696" yMax="881">
      <component glyphName="O" x="0" y="0" flags="0x0"/>
      <component glyphName="acutecomb.cap" x="367" y="0" flags="0x0"/>
    </TTGlyph>
    <TTGlyph name="Ocircumflex" xMin="36" yMin="-10" xMax="696" yMax="880">
      <component glyphName="O" x="0" y="0" flags="0x0"/>
      <component glyphName="uni0302.cap" x="367" y="0" flags="0x0"/>
    </TTGlyph>
    <TTGlyph name="Odieresis" xMin="36" yMin="-10" xMax="696" yMax="876">
      <component glyphName="O" x="0" y="0" flags="0x0"/>
      <component glyphName="dieresis" x="116" y="160" flags="0x4"/>
    </TTGlyph>
    <TTGlyph name="Odieresis.titl" xMin="36" yMin="-10" xMax="696" yMax="670">
      <contour>
        <pt x="522" y="670" on="0"/>
        <pt x="696" y="491" on="0"/>
        <pt x="696" y="330" on="1"/>
        <pt x="696" y="169" on="0"/>
        <pt x="522" y="-10" on="0"/>
        <pt x="367" y="-10" on="1"/>
        <pt x="265" y="-10" on="0"/>
        <pt x="116" y="70" on="0"/>
        <pt x="36" y="224" on="0"/>
        <pt x="36" y="330" on="1"/>
        <pt x="36" y="436" on="0"/>
        <pt x="116" y="590" on="0"/>
        <pt x="265" y="670" on="0"/>
        <pt x="367" y="670" on="1"/>
      </contour>
      <contour>
        <pt x="117" y="611" on="0"/>
        <pt x="77" y="548" on="1"/>
        <pt x="53" y="566" on="0"/>
        <pt x="53" y="601" on="1"/>
        <pt x="53" y="633" on="0"/>
        <pt x="93" y="670" on="0"/>
        <pt x="128" y="670" on="1"/>
        <pt x="168" y="670" on="0"/>
        <pt x="188" y="648" on="1"/>
      </contour>
      <contour>
        <pt x="621" y="607" on="0"/>
        <pt x="546" y="648" on="1"/>
        <pt x="565" y="670" on="0"/>
        <pt x="604" y="670" on="1"/>
        <pt x="641" y="670" on="0"/>
        <pt x="683" y="633" on="0"/>
        <pt x="683" y="601" on="1"/>
        <pt x="683" y="566" on="0"/>
        <pt x="657" y="546" on="1"/>
      </contour>
      <contour>
        <pt x="306" y="514" on="0"/>
        <pt x="246" y="423" on="0"/>
        <pt x="246" y="330" on="1"/>
        <pt x="246" y="237" on="0"/>
        <pt x="306" y="146" on="0"/>
        <pt x="367" y="146" on="1"/>
        <pt x="428" y="146" on="0"/>
        <pt x="487" y="236" on="0"/>
        <pt x="487" y="330" on="1"/>
        <pt x="487" y="424" on="0"/>
        <pt x="428" y="514" on="0"/>
        <pt x="367" y="514" on="1"/>
      </contour>
    </TTGlyph>
    <TTGlyph name="Odieresis.titl.001" xMin="36" yMin="-10" xMax="696" yMax="670">
      <contour>
        <pt x="696" y="464" on="0"/>
        <pt x="696" y="330" on="1"/>
        <pt x="696" y="224" on="0"/>
        <pt x="617" y="71" on="0"/>
        <pt x="469" y="-10" on="0"/>
        <pt x="367" y="-10" on="1"/>
        <pt x="264" y="-10" on="0"/>
        <pt x="115" y="71" on="0"/>
        <pt x="36" y="224" on="0"/>
        <pt x="36" y="330" on="1"/>
        <pt x="36" y="465" on="0"/>
        <pt x="100" y="552" on="1"/>
        <pt x="85" y="560" on="0"/>
        <pt x="68" y="587" on="0"/>
        <pt x="68" y="605" on="1"/>
        <pt x="68" y="634" on="0"/>
        <pt x="104" y="668" on="0"/>
        <pt x="135" y="668" on="1"/>
        <pt x="158" y="668" on="0"/>
        <pt x="192" y="650" on="0"/>
        <pt x="199" y="634" on="1"/>
        <pt x="270" y="670" on="0"/>
        <pt x="367" y="670" on="1"/>
        <pt x="464" y="670" on="0"/>
        <pt x="536" y="633" on="1"/>
        <pt x="543" y="650" on="0"/>
        <pt x="575" y="668" on="0"/>
        <pt x="598" y="668" on="1"/>
        <pt x="630" y="668" on="0"/>
        <pt x="668" y="635" on="0"/>
        <pt x="668" y="607" on="1"/>
        <pt x="668" y="566" on="0"/>
        <pt x="633" y="552" on="1"/>
      </contour>
      <contour>
        <pt x="427" y="146" on="0"/>
        <pt x="487" y="237" on="0"/>
        <pt x="487" y="330" on="1"/>
        <pt x="487" y="423" on="0"/>
        <pt x="427" y="514" on="0"/>
        <pt x="367" y="514" on="1"/>
        <pt x="306" y="514" on="0"/>
        <pt x="246" y="423" on="0"/>
        <pt x="246" y="330" on="1"/>
        <pt x="246" y="237" on="0"/>
        <pt x="306" y="146" on="0"/>
        <pt x="367" y="146" on="1"/>
      </contour>
    </TTGlyph>
    <TTGlyph name="Ograve" xMin="36" yMin="-10" xMax="696" yMax="881">
      <component glyphName="O" x="0" y="0" flags="0x0"/>
      <component glyphName="gravecomb.cap" x="365" y="0" flags="0x0"/>
    </TTGlyph>
    <TTGlyph name="Ohungarumlaut" xMin="36" yMin="-10" xMax="696" yMax="881">
      <component glyphName="O" x="0" y="0" flags="0x0"/>
      <component glyphName="acutecomb.cap" x="490" y="0" flags="0x0"/>
      <component glyphName="acutecomb.cap" x="249" y="0" flags="0x0"/>
    </TTGlyph>
    <TTGlyph name="Oinferior" xMin="24" yMin="-195" xMax="450" yMax="213">
      <component glyphName="Osuperior" x="0" y="-522" flags="0x4"/>
    </TTGlyph>
    <TTGlyph name="Omacron" xMin="36" yMin="-10" xMax="696" yMax="838">
      <component glyphName="O" x="0" y="0" flags="0x0"/>
      <component glyphName="macron" x="117" y="160" flags="0x4"/>
    </TTGlyph>
    <TTGlyph name="Oslash" xMin="36" yMin="-24" xMax="696" yMax="681">
      <contour>
        <pt x="696" y="494" on="0"/>
        <pt x="696" y="330" on="1"/>
        <pt x="696" y="169" on="0"/>
        <pt x="522" y="-10" on="0"/>
        <pt x="367" y="-10" on="1"/>
        <pt x="262" y="-10" on="0"/>
        <pt x="187" y="32" on="1"/>
        <pt x="147" y="-24" on="1"/>
        <pt x="55" y="-24" on="1"/>
        <pt x="128" y="76" on="1"/>
        <pt x="83" y="120" on="0"/>
        <pt x="36" y="248" on="0"/>
        <pt x="36" y="330" on="1"/>
        <pt x="36" y="436" on="0"/>
        <pt x="116" y="590" on="0"/>
        <pt x="265" y="670" on="0"/>
        <pt x="367" y="670" on="1"/>
        <pt x="471" y="670" on="0"/>
        <pt x="547" y="628" on="1"/>
        <pt x="585" y="681" on="1"/>
        <pt x="676" y="681" on="1"/>
        <pt x="605" y="585" on="1"/>
      </contour>
      <contour>
        <pt x="306" y="514" on="0"/>
        <pt x="246" y="423" on="0"/>
        <pt x="246" y="330" on="1"/>
        <pt x="246" y="276" on="0"/>
        <pt x="257" y="235" on="1"/>
        <pt x="438" y="491" on="1"/>
        <pt x="410" y="514" on="0"/>
        <pt x="367" y="514" on="1"/>
      </contour>
      <contour>
        <pt x="428" y="146" on="0"/>
        <pt x="487" y="236" on="0"/>
        <pt x="487" y="330" on="1"/>
        <pt x="487" y="381" on="0"/>
        <pt x="478" y="417" on="1"/>
        <pt x="300" y="166" on="1"/>
        <pt x="328" y="146" on="0"/>
        <pt x="367" y="146" on="1"/>
      </contour>
    </TTGlyph>
    <TTGlyph name="Osuperior" xMin="24" yMin="327" xMax="450" yMax="735">
      <contour>
        <pt x="335" y="735" on="0"/>
        <pt x="450" y="627" on="0"/>
        <pt x="450" y="531" on="1"/>
        <pt x="450" y="435" on="0"/>
        <pt x="335" y="327" on="0"/>
        <pt x="237" y="327" on="1"/>
        <pt x="139" y="327" on="0"/>
        <pt x="24" y="435" on="0"/>
        <pt x="24" y="531" on="1"/>
        <pt x="24" y="627" on="0"/>
        <pt x="139" y="735" on="0"/>
        <pt x="237" y="735" on="1"/>
      </contour>
      <contour>
        <pt x="201" y="636" on="0"/>
        <pt x="167" y="585" on="0"/>
        <pt x="167" y="531" on="1"/>
        <pt x="167" y="477" on="0"/>
        <pt x="201" y="426" on="0"/>
        <pt x="237" y="426" on="1"/>
        <pt x="273" y="426" on="0"/>
        <pt x="307" y="477" on="0"/>
        <pt x="307" y="531" on="1"/>
        <pt x="307" y="585" on="0"/>
        <pt x="273" y="636" on="0"/>
        <pt x="237" y="636" on="1"/>
      </contour>
    </TTGlyph>
    <TTGlyph name="Otilde" xMin="36" yMin="-10" xMax="696" yMax="880">
      <component glyphName="O" x="0" y="0" flags="0x0"/>
      <component glyphName="tilde" x="117" y="160" flags="0x4"/>
    </TTGlyph>
    <TTGlyph name="P" xMin="61" yMin="0" xMax="656" yMax="660">
      <contour>
        <pt x="520" y="660" on="0"/>
        <pt x="656" y="546" on="0"/>
        <pt x="656" y="435" on="1"/>
        <pt x="656" y="330" on="0"/>
        <pt x="519" y="219" on="0"/>
        <pt x="389" y="219" on="1"/>
        <pt x="265" y="219" on="1"/>
        <pt x="265" y="0" on="1"/>
        <pt x="61" y="0" on="1"/>
        <pt x="61" y="660" on="1"/>
        <pt x="389" y="660" on="1"/>
      </contour>
      <contour>
        <pt x="405" y="363" on="0"/>
        <pt x="451" y="399" on="0"/>
        <pt x="451" y="437" on="1"/>
        <pt x="451" y="475" on="0"/>
        <pt x="405" y="511" on="0"/>
        <pt x="356" y="511" on="1"/>
        <pt x="265" y="511" on="1"/>
        <pt x="265" y="363" on="1"/>
        <pt x="356" y="363" on="1"/>
      </contour>
    </TTGlyph>
    <TTGlyph name="Q" xMin="36" yMin="-207" xMax="696" yMax="670">
      <contour>
        <pt x="599" y="-54" on="0"/>
        <pt x="643" y="-15" on="1"/>
        <pt x="690" y="-158" on="1"/>
        <pt x="633" y="-207" on="0"/>
        <pt x="511" y="-207" on="1"/>
        <pt x="408" y="-207" on="0"/>
        <pt x="301" y="-115" on="0"/>
        <pt x="301" y="-38" on="1"/>
        <pt x="301" y="-17" on="0"/>
        <pt x="303" y="-6" on="1"/>
        <pt x="177" y="12" on="0"/>
        <pt x="36" y="188" on="0"/>
        <pt x="36" y="330" on="1"/>
        <pt x="36" y="436" on="0"/>
        <pt x="116" y="590" on="0"/>
        <pt x="265" y="670" on="0"/>
        <pt x="367" y="670" on="1"/>
        <pt x="522" y="670" on="0"/>
        <pt x="696" y="491" on="0"/>
        <pt x="696" y="330" on="1"/>
        <pt x="696" y="186" on="0"/>
        <pt x="554" y="11" on="0"/>
        <pt x="427" y="-6" on="1"/>
        <pt x="431" y="-32" on="0"/>
        <pt x="476" y="-54" on="0"/>
        <pt x="518" y="-54" on="1"/>
      </contour>
      <contour>
        <pt x="246" y="237" on="0"/>
        <pt x="306" y="146" on="0"/>
        <pt x="367" y="146" on="1"/>
        <pt x="428" y="146" on="0"/>
        <pt x="487" y="236" on="0"/>
        <pt x="487" y="330" on="1"/>
        <pt x="487" y="424" on="0"/>
        <pt x="428" y="514" on="0"/>
        <pt x="367" y="514" on="1"/>
        <pt x="306" y="514" on="0"/>
        <pt x="246" y="423" on="0"/>
        <pt x="246" y="330" on="1"/>
      </contour>
    </TTGlyph>
    <TTGlyph name="R" xMin="61" yMin="0" xMax="695" yMax="660">
      <contour>
        <pt x="344" y="229" on="1"/>
        <pt x="261" y="229" on="1"/>
        <pt x="261" y="0" on="1"/>
        <pt x="61" y="0" on="1"/>
        <pt x="61" y="660" on="1"/>
        <pt x="399" y="660" on="1"/>
        <pt x="525" y="660" on="0"/>
        <pt x="657" y="550" on="0"/>
        <pt x="657" y="444" on="1"/>
        <pt x="657" y="372" on="0"/>
        <pt x="595" y="274" on="0"/>
        <pt x="534" y="251" on="1"/>
        <pt x="695" y="0" on="1"/>
        <pt x="472" y="0" on="1"/>
      </contour>
      <contour>
        <pt x="261" y="368" on="1"/>
        <pt x="360" y="368" on="1"/>
        <pt x="410" y="368" on="0"/>
        <pt x="452" y="401" on="0"/>
        <pt x="452" y="439" on="1"/>
        <pt x="452" y="477" on="0"/>
        <pt x="409" y="511" on="0"/>
        <pt x="360" y="511" on="1"/>
        <pt x="261" y="511" on="1"/>
      </contour>
    </TTGlyph>
    <TTGlyph name="R.ss03" xMin="61" yMin="0" xMax="667" yMax="660">
      <contour>
        <pt x="61" y="660" on="1"/>
        <pt x="399" y="660" on="1"/>
        <pt x="525" y="660" on="0"/>
        <pt x="657" y="553" on="0"/>
        <pt x="657" y="452" on="1"/>
        <pt x="657" y="380" on="0"/>
        <pt x="590" y="300" on="0"/>
        <pt x="531" y="283" on="1"/>
        <pt x="531" y="281" on="1"/>
        <pt x="578" y="269" on="0"/>
        <pt x="621" y="214" on="0"/>
        <pt x="628" y="173" on="1"/>
        <pt x="639" y="96" on="0"/>
        <pt x="653" y="31" on="0"/>
        <pt x="667" y="5" on="1"/>
        <pt x="667" y="0" on="1"/>
        <pt x="454" y="0" on="1"/>
        <pt x="447" y="16" on="0"/>
        <pt x="440" y="59" on="0"/>
        <pt x="437" y="82" on="1"/>
        <pt x="434" y="116" on="0"/>
        <pt x="427" y="154" on="1"/>
        <pt x="420" y="195" on="0"/>
        <pt x="375" y="229" on="0"/>
        <pt x="330" y="229" on="1"/>
        <pt x="261" y="229" on="1"/>
        <pt x="261" y="0" on="1"/>
        <pt x="61" y="0" on="1"/>
      </contour>
      <contour>
        <pt x="360" y="368" on="1"/>
        <pt x="410" y="368" on="0"/>
        <pt x="452" y="401" on="0"/>
        <pt x="452" y="439" on="1"/>
        <pt x="452" y="477" on="0"/>
        <pt x="409" y="511" on="0"/>
        <pt x="360" y="511" on="1"/>
        <pt x="261" y="511" on="1"/>
        <pt x="261" y="368" on="1"/>
      </contour>
    </TTGlyph>
    <TTGlyph name="R.swsh" xMin="10" yMin="-110" xMax="953" yMax="660">
      <contour>
        <pt x="602" y="229" on="1"/>
        <pt x="519" y="229" on="1"/>
        <pt x="519" y="134" on="1"/>
        <pt x="519" y="6" on="0"/>
        <pt x="385" y="-110" on="0"/>
        <pt x="265" y="-110" on="1"/>
        <pt x="113" y="-110" on="0"/>
        <pt x="54" y="-10" on="1"/>
        <pt x="127" y="108" on="1"/>
        <pt x="146" y="71" on="0"/>
        <pt x="197" y="38" on="0"/>
        <pt x="236" y="38" on="1"/>
        <pt x="274" y="38" on="0"/>
        <pt x="319" y="87" on="0"/>
        <pt x="319" y="127" on="1"/>
        <pt x="319" y="513" on="1"/>
        <pt x="269" y="513" on="1"/>
        <pt x="230" y="513" on="0"/>
        <pt x="190" y="474" on="0"/>
        <pt x="190" y="441" on="1"/>
        <pt x="190" y="409" on="0"/>
        <pt x="234" y="366" on="0"/>
        <pt x="273" y="363" on="1"/>
        <pt x="216" y="229" on="1"/>
        <pt x="123" y="233" on="0"/>
        <pt x="10" y="348" on="0"/>
        <pt x="10" y="444" on="1"/>
        <pt x="10" y="548" on="0"/>
        <pt x="140" y="660" on="0"/>
        <pt x="266" y="660" on="1"/>
        <pt x="657" y="660" on="1"/>
        <pt x="783" y="660" on="0"/>
        <pt x="915" y="550" on="0"/>
        <pt x="915" y="444" on="1"/>
        <pt x="915" y="372" on="0"/>
        <pt x="853" y="274" on="0"/>
        <pt x="792" y="251" on="1"/>
        <pt x="953" y="0" on="1"/>
        <pt x="730" y="0" on="1"/>
      </contour>
      <contour>
        <pt x="519" y="368" on="1"/>
        <pt x="618" y="368" on="1"/>
        <pt x="668" y="368" on="0"/>
        <pt x="710" y="401" on="0"/>
        <pt x="710" y="439" on="1"/>
        <pt x="710" y="477" on="0"/>
        <pt x="667" y="511" on="0"/>
        <pt x="618" y="511" on="1"/>
        <pt x="519" y="511" on="1"/>
      </contour>
    </TTGlyph>
    <TTGlyph name="R.swsh.001" xMin="61" yMin="-99" xMax="763" yMax="660">
      <contour>
        <pt x="643" y="76" on="0"/>
        <pt x="720" y="21" on="0"/>
        <pt x="763" y="14" on="1"/>
        <pt x="651" y="-99" on="1"/>
        <pt x="592" y="-91" on="0"/>
        <pt x="509" y="-36" on="0"/>
        <pt x="477" y="9" on="1"/>
        <pt x="324" y="229" on="1"/>
        <pt x="261" y="229" on="1"/>
        <pt x="261" y="0" on="1"/>
        <pt x="61" y="0" on="1"/>
        <pt x="61" y="660" on="1"/>
        <pt x="399" y="660" on="1"/>
        <pt x="525" y="660" on="0"/>
        <pt x="657" y="550" on="0"/>
        <pt x="657" y="444" on="1"/>
        <pt x="657" y="366" on="0"/>
        <pt x="585" y="266" on="0"/>
        <pt x="516" y="244" on="1"/>
        <pt x="604" y="127" on="1"/>
      </contour>
      <contour>
        <pt x="261" y="368" on="1"/>
        <pt x="360" y="368" on="1"/>
        <pt x="410" y="368" on="0"/>
        <pt x="452" y="401" on="0"/>
        <pt x="452" y="439" on="1"/>
        <pt x="452" y="477" on="0"/>
        <pt x="409" y="511" on="0"/>
        <pt x="360" y="511" on="1"/>
        <pt x="261" y="511" on="1"/>
      </contour>
    </TTGlyph>
    <TTGlyph name="Racute" xMin="61" yMin="0" xMax="695" yMax="881">
      <component glyphName="R" x="0" y="0" flags="0x0"/>
      <component glyphName="acutecomb.cap" x="332" y="0" flags="0x0"/>
    </TTGlyph>
    <TTGlyph name="Racute.ss03" xMin="61" yMin="0" xMax="667" yMax="881">
      <component glyphName="R.ss03" x="0" y="0" flags="0x0"/>
      <component glyphName="acutecomb.cap" x="332" y="0" flags="0x0"/>
    </TTGlyph>
    <TTGlyph name="Racute.swsh" xMin="10" yMin="-110" xMax="953" yMax="881">
      <component glyphName="R.swsh" x="0" y="0" flags="0x0"/>
      <component glyphName="acutecomb.cap" x="590" y="0" flags="0x0"/>
    </TTGlyph>
    <TTGlyph name="Racute.swsh.001" xMin="61" yMin="-99" xMax="763" yMax="881">
      <component glyphName="R.swsh.001" x="0" y="0" flags="0x0"/>
      <component glyphName="acutecomb.cap" x="332" y="0" flags="0x0"/>
    </TTGlyph>
    <TTGlyph name="Rcaron" xMin="61" yMin="0" xMax="695" yMax="881">
      <component glyphName="R" x="0" y="0" flags="0x0"/>
      <component glyphName="uni030C.cap" x="332" y="0" flags="0x0"/>
    </TTGlyph>
    <TTGlyph name="Rcaron.ss03" xMin="61" yMin="0" xMax="667" yMax="881">
      <component glyphName="R.ss03" x="0" y="0" flags="0x0"/>
      <component glyphName="uni030C.cap" x="332" y="0" flags="0x0"/>
    </TTGlyph>
    <TTGlyph name="Rcaron.swsh" xMin="10" yMin="-110" xMax="953" yMax="881">
      <component glyphName="R.swsh" x="0" y="0" flags="0x0"/>
      <component glyphName="uni030C.cap" x="590" y="0" flags="0x0"/>
    </TTGlyph>
    <TTGlyph name="Rcaron.swsh.001" xMin="61" yMin="-99" xMax="763" yMax="881">
      <component glyphName="R.swsh.001" x="0" y="0" flags="0x0"/>
      <component glyphName="uni030C.cap" x="332" y="0" flags="0x0"/>
    </TTGlyph>
    <TTGlyph name="Rcommaaccent.sc" xMin="61" yMin="-242" xMax="627" yMax="560">
      <component glyphName="r.sc" x="0" y="0" flags="0x0"/>
      <component glyphName="uni0326" x="743" y="0" flags="0x0"/>
    </TTGlyph>
    <TTGlyph name="Rcommaaccent.sc.ss03" xMin="61" yMin="-242" xMax="611" yMax="560">
      <component glyphName="r.sc.ss03" x="0" y="0" flags="0x0"/>
      <component glyphName="uni0326" x="735" y="0" flags="0x0"/>
    </TTGlyph>
    <TTGlyph name="Rcommaaccent.ss03" xMin="61" yMin="-242" xMax="667" yMax="660">
      <component glyphName="R.ss03" x="0" y="0" flags="0x0"/>
      <component glyphName="uni0326" x="770" y="0" flags="0x0"/>
    </TTGlyph>
    <TTGlyph name="Rcommaaccent.swsh" xMin="10" yMin="-242" xMax="953" yMax="660">
      <component glyphName="R.swsh" x="0" y="0" flags="0x0"/>
      <component glyphName="uni0326" x="1028" y="0" flags="0x0"/>
    </TTGlyph>
    <TTGlyph name="Rcommaaccent.swsh.001" xMin="61" yMin="-242" xMax="763" yMax="660">
      <component glyphName="R.swsh.001" x="0" y="0" flags="0x0"/>
      <component glyphName="uni0326" x="770" y="0" flags="0x0"/>
    </TTGlyph>
    <TTGlyph name="S" xMin="18" yMin="-10" xMax="629" yMax="670">
      <contour>
        <pt x="429" y="670" on="0"/>
        <pt x="566" y="619" on="0"/>
        <pt x="629" y="558" on="1"/>
        <pt x="529" y="429" on="1"/>
        <pt x="489" y="475" on="0"/>
        <pt x="398" y="516" on="0"/>
        <pt x="339" y="516" on="1"/>
        <pt x="296" y="516" on="0"/>
        <pt x="248" y="488" on="0"/>
        <pt x="248" y="465" on="1"/>
        <pt x="248" y="447" on="0"/>
        <pt x="298" y="427" on="0"/>
        <pt x="356" y="416" on="1"/>
        <pt x="452" y="399" on="0"/>
        <pt x="567" y="344" on="0"/>
        <pt x="620" y="260" on="0"/>
        <pt x="620" y="198" on="1"/>
        <pt x="620" y="132" on="0"/>
        <pt x="544" y="38" on="0"/>
        <pt x="414" y="-10" on="0"/>
        <pt x="332" y="-10" on="1"/>
        <pt x="218" y="-10" on="0"/>
        <pt x="78" y="39" on="0"/>
        <pt x="18" y="92" on="1"/>
        <pt x="113" y="232" on="1"/>
        <pt x="153" y="185" on="0"/>
        <pt x="252" y="144" on="0"/>
        <pt x="319" y="144" on="1"/>
        <pt x="410" y="144" on="0"/>
        <pt x="410" y="188" on="1"/>
        <pt x="410" y="207" on="0"/>
        <pt x="357" y="229" on="0"/>
        <pt x="298" y="240" on="1"/>
        <pt x="218" y="255" on="0"/>
        <pt x="109" y="297" on="0"/>
        <pt x="37" y="380" on="0"/>
        <pt x="37" y="449" on="1"/>
        <pt x="37" y="514" on="0"/>
        <pt x="107" y="614" on="0"/>
        <pt x="241" y="670" on="0"/>
        <pt x="334" y="670" on="1"/>
      </contour>
    </TTGlyph>
    <TTGlyph name="S.swsh" xMin="28" yMin="-110" xMax="621" yMax="670">
      <contour>
        <pt x="224" y="-110" on="0"/>
        <pt x="97" y="-66" on="0"/>
        <pt x="28" y="13" on="0"/>
        <pt x="28" y="64" on="1"/>
        <pt x="28" y="98" on="0"/>
        <pt x="33" y="120" on="1"/>
        <pt x="212" y="167" on="1"/>
        <pt x="206" y="142" on="0"/>
        <pt x="206" y="126" on="1"/>
        <pt x="206" y="86" on="0"/>
        <pt x="264" y="46" on="0"/>
        <pt x="326" y="46" on="1"/>
        <pt x="379" y="46" on="0"/>
        <pt x="430" y="82" on="0"/>
        <pt x="430" y="113" on="1"/>
        <pt x="430" y="146" on="0"/>
        <pt x="370" y="185" on="0"/>
        <pt x="290" y="200" on="1"/>
        <pt x="155" y="225" on="0"/>
        <pt x="38" y="335" on="0"/>
        <pt x="38" y="436" on="1"/>
        <pt x="38" y="504" on="0"/>
        <pt x="108" y="610" on="0"/>
        <pt x="243" y="670" on="0"/>
        <pt x="336" y="670" on="1"/>
        <pt x="474" y="670" on="0"/>
        <pt x="607" y="574" on="0"/>
        <pt x="610" y="467" on="1"/>
        <pt x="428" y="398" on="1"/>
        <pt x="430" y="451" on="0"/>
        <pt x="382" y="514" on="0"/>
        <pt x="331" y="514" on="1"/>
        <pt x="292" y="514" on="0"/>
        <pt x="248" y="472" on="0"/>
        <pt x="248" y="436" on="1"/>
        <pt x="248" y="402" on="0"/>
        <pt x="310" y="360" on="0"/>
        <pt x="388" y="343" on="1"/>
        <pt x="474" y="325" on="0"/>
        <pt x="575" y="269" on="0"/>
        <pt x="621" y="185" on="0"/>
        <pt x="621" y="123" on="1"/>
        <pt x="621" y="11" on="0"/>
        <pt x="451" y="-110" on="0"/>
        <pt x="308" y="-110" on="1"/>
      </contour>
    </TTGlyph>
    <TTGlyph name="Sacute" xMin="18" yMin="-10" xMax="629" yMax="881">
      <component glyphName="S" x="0" y="0" flags="0x0"/>
      <component glyphName="acutecomb.cap" x="330" y="0" flags="0x0"/>
    </TTGlyph>
    <TTGlyph name="Sacute.swsh" xMin="28" yMin="-110" xMax="621" yMax="881">
      <component glyphName="S.swsh" x="0" y="0" flags="0x0"/>
      <component glyphName="acutecomb.cap" x="330" y="0" flags="0x0"/>
    </TTGlyph>
    <TTGlyph name="Scaron" xMin="18" yMin="-10" xMax="629" yMax="881">
      <component glyphName="S" x="0" y="0" flags="0x0"/>
      <component glyphName="uni030C.cap" x="330" y="0" flags="0x0"/>
    </TTGlyph>
    <TTGlyph name="Scaron.swsh" xMin="28" yMin="-110" xMax="621" yMax="881">
      <component glyphName="S.swsh" x="0" y="0" flags="0x0"/>
      <component glyphName="uni030C.cap" x="330" y="0" flags="0x0"/>
    </TTGlyph>
    <TTGlyph name="Scedilla.sc" xMin="19" yMin="-215" xMax="559" yMax="568">
      <contour>
        <pt x="229" y="375" on="0"/>
        <pt x="275" y="361" on="0"/>
        <pt x="325" y="354" on="1"/>
        <pt x="394" y="345" on="0"/>
        <pt x="487" y="318" on="0"/>
        <pt x="557" y="247" on="0"/>
        <pt x="557" y="182" on="1"/>
        <pt x="557" y="112" on="0"/>
        <pt x="465" y="18" on="0"/>
        <pt x="383" y="1" on="1"/>
        <pt x="439" y="-35" on="0"/>
        <pt x="439" y="-93" on="1"/>
        <pt x="439" y="-155" on="0"/>
        <pt x="355" y="-215" on="0"/>
        <pt x="286" y="-215" on="1"/>
        <pt x="239" y="-215" on="0"/>
        <pt x="178" y="-193" on="0"/>
        <pt x="157" y="-173" on="1"/>
        <pt x="199" y="-85" on="1"/>
        <pt x="228" y="-114" on="0"/>
        <pt x="272" y="-114" on="1"/>
        <pt x="297" y="-114" on="0"/>
        <pt x="327" y="-89" on="0"/>
        <pt x="327" y="-67" on="1"/>
        <pt x="327" y="-47" on="0"/>
        <pt x="297" y="-18" on="0"/>
        <pt x="260" y="-8" on="1"/>
        <pt x="184" y="-5" on="0"/>
        <pt x="69" y="31" on="0"/>
        <pt x="19" y="69" on="1"/>
        <pt x="97" y="201" on="1"/>
        <pt x="144" y="163" on="0"/>
        <pt x="227" y="134" on="0"/>
        <pt x="286" y="134" on="1"/>
        <pt x="354" y="134" on="0"/>
        <pt x="354" y="165" on="1"/>
        <pt x="354" y="182" on="0"/>
        <pt x="310" y="195" on="0"/>
        <pt x="259" y="202" on="1"/>
        <pt x="190" y="211" on="0"/>
        <pt x="96" y="237" on="0"/>
        <pt x="26" y="309" on="0"/>
        <pt x="26" y="376" on="1"/>
        <pt x="26" y="465" on="0"/>
        <pt x="171" y="568" on="0"/>
        <pt x="294" y="568" on="1"/>
        <pt x="386" y="568" on="0"/>
        <pt x="502" y="531" on="0"/>
        <pt x="559" y="488" on="1"/>
        <pt x="478" y="358" on="1"/>
        <pt x="428" y="398" on="0"/>
        <pt x="353" y="427" on="0"/>
        <pt x="296" y="427" on="1"/>
        <pt x="263" y="427" on="0"/>
        <pt x="229" y="407" on="0"/>
        <pt x="229" y="391" on="1"/>
      </contour>
    </TTGlyph>
    <TTGlyph name="Scedilla.swsh" xMin="28" yMin="-315" xMax="621" yMax="670">
      <contour>
        <pt x="621" y="28" on="0"/>
        <pt x="497" y="-89" on="0"/>
        <pt x="388" y="-104" on="1"/>
        <pt x="436" y="-140" on="0"/>
        <pt x="436" y="-193" on="1"/>
        <pt x="436" y="-255" on="0"/>
        <pt x="352" y="-315" on="0"/>
        <pt x="283" y="-315" on="1"/>
        <pt x="236" y="-315" on="0"/>
        <pt x="175" y="-293" on="0"/>
        <pt x="154" y="-273" on="1"/>
        <pt x="196" y="-185" on="1"/>
        <pt x="225" y="-214" on="0"/>
        <pt x="269" y="-214" on="1"/>
        <pt x="294" y="-214" on="0"/>
        <pt x="324" y="-189" on="0"/>
        <pt x="324" y="-167" on="1"/>
        <pt x="324" y="-147" on="0"/>
        <pt x="294" y="-118" on="0"/>
        <pt x="258" y="-108" on="1"/>
        <pt x="152" y="-98" on="0"/>
        <pt x="28" y="-5" on="0"/>
        <pt x="28" y="64" on="1"/>
        <pt x="28" y="98" on="0"/>
        <pt x="33" y="120" on="1"/>
        <pt x="212" y="167" on="1"/>
        <pt x="206" y="142" on="0"/>
        <pt x="206" y="126" on="1"/>
        <pt x="206" y="86" on="0"/>
        <pt x="264" y="46" on="0"/>
        <pt x="326" y="46" on="1"/>
        <pt x="379" y="46" on="0"/>
        <pt x="430" y="82" on="0"/>
        <pt x="430" y="113" on="1"/>
        <pt x="430" y="146" on="0"/>
        <pt x="370" y="185" on="0"/>
        <pt x="290" y="200" on="1"/>
        <pt x="155" y="225" on="0"/>
        <pt x="38" y="335" on="0"/>
        <pt x="38" y="436" on="1"/>
        <pt x="38" y="504" on="0"/>
        <pt x="108" y="610" on="0"/>
        <pt x="243" y="670" on="0"/>
        <pt x="336" y="670" on="1"/>
        <pt x="474" y="670" on="0"/>
        <pt x="607" y="574" on="0"/>
        <pt x="610" y="467" on="1"/>
        <pt x="428" y="398" on="1"/>
        <pt x="430" y="451" on="0"/>
        <pt x="382" y="514" on="0"/>
        <pt x="331" y="514" on="1"/>
        <pt x="292" y="514" on="0"/>
        <pt x="248" y="472" on="0"/>
        <pt x="248" y="436" on="1"/>
        <pt x="248" y="402" on="0"/>
        <pt x="310" y="360" on="0"/>
        <pt x="388" y="343" on="1"/>
        <pt x="474" y="325" on="0"/>
        <pt x="575" y="269" on="0"/>
        <pt x="621" y="185" on="0"/>
        <pt x="621" y="123" on="1"/>
      </contour>
    </TTGlyph>
    <TTGlyph name="Scommaaccent.sc" xMin="19" yMin="-242" xMax="559" yMax="568">
      <component glyphName="s.sc" x="0" y="0" flags="0x0"/>
      <component glyphName="uni0326" x="718" y="0" flags="0x0"/>
    </TTGlyph>
    <TTGlyph name="Scommaaccent.swsh" xMin="28" yMin="-342" xMax="621" yMax="670">
      <component glyphName="S.swsh" x="0" y="0" flags="0x0"/>
      <component glyphName="uni0326" x="717" y="-100" flags="0x4"/>
    </TTGlyph>
    <TTGlyph name="T" xMin="22" yMin="0" xMax="648" yMax="660">
      <contour>
        <pt x="648" y="507" on="1"/>
        <pt x="438" y="507" on="1"/>
        <pt x="438" y="0" on="1"/>
        <pt x="234" y="0" on="1"/>
        <pt x="234" y="507" on="1"/>
        <pt x="22" y="507" on="1"/>
        <pt x="22" y="660" on="1"/>
        <pt x="648" y="660" on="1"/>
      </contour>
    </TTGlyph>
    <TTGlyph name="T.swsh" xMin="10" yMin="0" xMax="797" yMax="660">
      <contour>
        <pt x="797" y="507" on="1"/>
        <pt x="587" y="507" on="1"/>
        <pt x="587" y="0" on="1"/>
        <pt x="382" y="0" on="1"/>
        <pt x="382" y="507" on="1"/>
        <pt x="277" y="507" on="1"/>
        <pt x="234" y="507" on="0"/>
        <pt x="191" y="471" on="0"/>
        <pt x="191" y="441" on="1"/>
        <pt x="191" y="408" on="0"/>
        <pt x="232" y="366" on="0"/>
        <pt x="273" y="363" on="1"/>
        <pt x="216" y="229" on="1"/>
        <pt x="156" y="231" on="0"/>
        <pt x="62" y="287" on="0"/>
        <pt x="10" y="382" on="0"/>
        <pt x="10" y="444" on="1"/>
        <pt x="10" y="548" on="0"/>
        <pt x="141" y="660" on="0"/>
        <pt x="266" y="660" on="1"/>
        <pt x="797" y="660" on="1"/>
      </contour>
    </TTGlyph>
    <TTGlyph name="Tcaron" xMin="22" yMin="0" xMax="648" yMax="881">
      <component glyphName="T" x="0" y="0" flags="0x0"/>
      <component glyphName="uni030C.cap" x="335" y="0" flags="0x0"/>
    </TTGlyph>
    <TTGlyph name="Tcaron.swsh" xMin="10" yMin="0" xMax="797" yMax="881">
      <component glyphName="T.swsh" x="0" y="0" flags="0x0"/>
      <component glyphName="uni030C.cap" x="484" y="0" flags="0x0"/>
    </TTGlyph>
    <TTGlyph name="Thorn" xMin="61" yMin="0" xMax="647" yMax="660">
      <contour>
        <pt x="509" y="566" on="0"/>
        <pt x="647" y="449" on="0"/>
        <pt x="646" y="337" on="1"/>
        <pt x="647" y="225" on="0"/>
        <pt x="509" y="108" on="0"/>
        <pt x="380" y="108" on="1"/>
        <pt x="265" y="108" on="1"/>
        <pt x="265" y="0" on="1"/>
        <pt x="61" y="0" on="1"/>
        <pt x="61" y="660" on="1"/>
        <pt x="265" y="660" on="1"/>
        <pt x="265" y="566" on="1"/>
        <pt x="380" y="566" on="1"/>
      </contour>
      <contour>
        <pt x="442" y="256" on="0"/>
        <pt x="441" y="337" on="1"/>
        <pt x="442" y="417" on="0"/>
        <pt x="350" y="417" on="1"/>
        <pt x="265" y="417" on="1"/>
        <pt x="265" y="256" on="1"/>
        <pt x="350" y="256" on="1"/>
      </contour>
    </TTGlyph>
    <TTGlyph name="U" xMin="47" yMin="-10" xMax="663" yMax="660">
      <contour>
        <pt x="663" y="277" on="1"/>
        <pt x="663" y="-10" on="0"/>
        <pt x="355" y="-10" on="1"/>
        <pt x="47" y="-10" on="0"/>
        <pt x="47" y="277" on="1"/>
        <pt x="47" y="660" on="1"/>
        <pt x="253" y="660" on="1"/>
        <pt x="253" y="266" on="1"/>
        <pt x="253" y="146" on="0"/>
        <pt x="355" y="146" on="1"/>
        <pt x="458" y="146" on="0"/>
        <pt x="458" y="266" on="1"/>
        <pt x="458" y="660" on="1"/>
        <pt x="663" y="660" on="1"/>
      </contour>
    </TTGlyph>
    <TTGlyph name="Uacute" xMin="47" yMin="-10" xMax="663" yMax="881">
      <component glyphName="U" x="0" y="0" flags="0x0"/>
      <component glyphName="acutecomb.cap" x="355" y="0" flags="0x0"/>
    </TTGlyph>
    <TTGlyph name="Ucircumflex" xMin="47" yMin="-10" xMax="663" yMax="880">
      <component glyphName="U" x="0" y="0" flags="0x0"/>
      <component glyphName="uni0302.cap" x="355" y="0" flags="0x0"/>
    </TTGlyph>
    <TTGlyph name="Udieresis" xMin="47" yMin="-10" xMax="663" yMax="876">
      <component glyphName="U" x="0" y="0" flags="0x0"/>
      <component glyphName="dieresis" x="104" y="160" flags="0x4"/>
    </TTGlyph>
    <TTGlyph name="Udieresis.titl" xMin="47" yMin="-10" xMax="663" yMax="662">
      <contour>
        <pt x="323" y="536" on="0"/>
        <pt x="286" y="570" on="0"/>
        <pt x="286" y="600" on="1"/>
        <pt x="286" y="629" on="0"/>
        <pt x="323" y="662" on="0"/>
        <pt x="355" y="662" on="1"/>
        <pt x="389" y="662" on="0"/>
        <pt x="427" y="629" on="0"/>
        <pt x="427" y="600" on="1"/>
        <pt x="427" y="570" on="0"/>
        <pt x="389" y="536" on="0"/>
        <pt x="355" y="536" on="1"/>
      </contour>
      <contour>
        <pt x="663" y="277" on="1"/>
        <pt x="663" y="-10" on="0"/>
        <pt x="355" y="-10" on="1"/>
        <pt x="47" y="-10" on="0"/>
        <pt x="47" y="277" on="1"/>
        <pt x="47" y="660" on="1"/>
        <pt x="253" y="660" on="1"/>
        <pt x="253" y="266" on="1"/>
        <pt x="253" y="146" on="0"/>
        <pt x="355" y="146" on="1"/>
        <pt x="458" y="146" on="0"/>
        <pt x="458" y="266" on="1"/>
        <pt x="458" y="660" on="1"/>
        <pt x="663" y="660" on="1"/>
      </contour>
      <contour>
        <pt x="323" y="389" on="0"/>
        <pt x="286" y="422" on="0"/>
        <pt x="286" y="451" on="1"/>
        <pt x="286" y="481" on="0"/>
        <pt x="323" y="515" on="0"/>
        <pt x="355" y="515" on="1"/>
        <pt x="389" y="515" on="0"/>
        <pt x="427" y="481" on="0"/>
        <pt x="427" y="451" on="1"/>
        <pt x="427" y="422" on="0"/>
        <pt x="389" y="389" on="0"/>
        <pt x="355" y="389" on="1"/>
      </contour>
    </TTGlyph>
    <TTGlyph name="Ugrave" xMin="47" yMin="-10" xMax="663" yMax="881">
      <component glyphName="U" x="0" y="0" flags="0x0"/>
      <component glyphName="gravecomb.cap" x="358" y="0" flags="0x0"/>
    </TTGlyph>
    <TTGlyph name="Uhungarumlaut" xMin="47" yMin="-10" xMax="663" yMax="881">
      <component glyphName="U" x="0" y="0" flags="0x0"/>
      <component glyphName="acutecomb.cap" x="478" y="0" flags="0x0"/>
      <component glyphName="acutecomb.cap" x="237" y="0" flags="0x0"/>
    </TTGlyph>
    <TTGlyph name="Umacron" xMin="47" yMin="-10" xMax="663" yMax="838">
      <component glyphName="U" x="0" y="0" flags="0x0"/>
      <component glyphName="macron" x="105" y="160" flags="0x4"/>
    </TTGlyph>
    <TTGlyph name="Uogonek" xMin="47" yMin="-215" xMax="663" yMax="660">
      <contour>
        <pt x="663" y="660" on="1"/>
        <pt x="663" y="277" on="1"/>
        <pt x="663" y="34" on="0"/>
        <pt x="443" y="-3" on="1"/>
        <pt x="410" y="-15" on="0"/>
        <pt x="381" y="-46" on="0"/>
        <pt x="381" y="-65" on="1"/>
        <pt x="381" y="-84" on="0"/>
        <pt x="408" y="-106" on="0"/>
        <pt x="432" y="-106" on="1"/>
        <pt x="461" y="-106" on="0"/>
        <pt x="475" y="-97" on="1"/>
        <pt x="500" y="-190" on="1"/>
        <pt x="479" y="-204" on="0"/>
        <pt x="425" y="-215" on="0"/>
        <pt x="389" y="-215" on="1"/>
        <pt x="325" y="-215" on="0"/>
        <pt x="243" y="-157" on="0"/>
        <pt x="243" y="-100" on="1"/>
        <pt x="243" y="-41" on="0"/>
        <pt x="293" y="-7" on="1"/>
        <pt x="47" y="22" on="0"/>
        <pt x="47" y="277" on="1"/>
        <pt x="47" y="660" on="1"/>
        <pt x="253" y="660" on="1"/>
        <pt x="253" y="266" on="1"/>
        <pt x="253" y="146" on="0"/>
        <pt x="355" y="146" on="1"/>
        <pt x="458" y="146" on="0"/>
        <pt x="458" y="266" on="1"/>
        <pt x="458" y="660" on="1"/>
      </contour>
    </TTGlyph>
    <TTGlyph name="Uring" xMin="47" yMin="-10" xMax="663" yMax="904">
      <component glyphName="U" x="0" y="0" flags="0x0"/>
      <component glyphName="ring" x="103" y="117" flags="0x4"/>
    </TTGlyph>
    <TTGlyph name="V" xMin="-1" yMin="0" xMax="697" yMax="660">
      <contour>
        <pt x="469" y="0" on="1"/>
        <pt x="227" y="0" on="1"/>
        <pt x="-1" y="660" on="1"/>
        <pt x="212" y="660" on="1"/>
        <pt x="318" y="281" on="1"/>
        <pt x="352" y="152" on="1"/>
        <pt x="384" y="279" on="1"/>
        <pt x="491" y="660" on="1"/>
        <pt x="697" y="660" on="1"/>
      </contour>
    </TTGlyph>
    <TTGlyph name="W" xMin="0" yMin="0" xMax="1009" yMax="660">
      <contour>
        <pt x="415" y="0" on="1"/>
        <pt x="189" y="0" on="1"/>
        <pt x="0" y="660" on="1"/>
        <pt x="220" y="660" on="1"/>
        <pt x="313" y="161" on="1"/>
        <pt x="417" y="660" on="1"/>
        <pt x="597" y="660" on="1"/>
        <pt x="706" y="163" on="1"/>
        <pt x="797" y="660" on="1"/>
        <pt x="1009" y="660" on="1"/>
        <pt x="820" y="0" on="1"/>
        <pt x="600" y="0" on="1"/>
        <pt x="536" y="282" on="1"/>
        <pt x="509" y="447" on="1"/>
        <pt x="506" y="447" on="1"/>
        <pt x="479" y="282" on="1"/>
      </contour>
    </TTGlyph>
    <TTGlyph name="W.swsh" xMin="10" yMin="0" xMax="1318" yMax="660">
      <contour>
        <pt x="1318" y="660" on="1"/>
        <pt x="1129" y="0" on="1"/>
        <pt x="909" y="0" on="1"/>
        <pt x="845" y="282" on="1"/>
        <pt x="818" y="447" on="1"/>
        <pt x="815" y="447" on="1"/>
        <pt x="788" y="282" on="1"/>
        <pt x="724" y="0" on="1"/>
        <pt x="498" y="0" on="1"/>
        <pt x="351" y="513" on="1"/>
        <pt x="273" y="513" on="1"/>
        <pt x="230" y="513" on="0"/>
        <pt x="191" y="474" on="0"/>
        <pt x="191" y="441" on="1"/>
        <pt x="191" y="409" on="0"/>
        <pt x="234" y="366" on="0"/>
        <pt x="276" y="363" on="1"/>
        <pt x="216" y="229" on="1"/>
        <pt x="156" y="230" on="0"/>
        <pt x="62" y="284" on="0"/>
        <pt x="10" y="381" on="0"/>
        <pt x="10" y="444" on="1"/>
        <pt x="10" y="548" on="0"/>
        <pt x="141" y="660" on="0"/>
        <pt x="266" y="660" on="1"/>
        <pt x="529" y="660" on="1"/>
        <pt x="622" y="161" on="1"/>
        <pt x="726" y="660" on="1"/>
        <pt x="906" y="660" on="1"/>
        <pt x="1015" y="163" on="1"/>
        <pt x="1106" y="660" on="1"/>
      </contour>
    </TTGlyph>
    <TTGlyph name="X" xMin="6" yMin="0" xMax="686" yMax="660">
      <contour>
        <pt x="440" y="0" on="1"/>
        <pt x="336" y="193" on="1"/>
        <pt x="238" y="0" on="1"/>
        <pt x="6" y="0" on="1"/>
        <pt x="228" y="330" on="1"/>
        <pt x="17" y="660" on="1"/>
        <pt x="258" y="660" on="1"/>
        <pt x="352" y="472" on="1"/>
        <pt x="447" y="660" on="1"/>
        <pt x="669" y="660" on="1"/>
        <pt x="459" y="336" on="1"/>
        <pt x="686" y="0" on="1"/>
      </contour>
    </TTGlyph>
    <TTGlyph name="Y" xMin="9" yMin="0" xMax="677" yMax="660">
      <contour>
        <pt x="446" y="234" on="1"/>
        <pt x="446" y="0" on="1"/>
        <pt x="241" y="0" on="1"/>
        <pt x="241" y="234" on="1"/>
        <pt x="9" y="660" on="1"/>
        <pt x="216" y="660" on="1"/>
        <pt x="296" y="495" on="1"/>
        <pt x="345" y="380" on="1"/>
        <pt x="393" y="495" on="1"/>
        <pt x="474" y="660" on="1"/>
        <pt x="677" y="660" on="1"/>
      </contour>
    </TTGlyph>
    <TTGlyph name="Yacute" xMin="9" yMin="0" xMax="677" yMax="881">
      <component glyphName="Y" x="0" y="0" flags="0x0"/>
      <component glyphName="acutecomb.cap" x="343" y="0" flags="0x0"/>
    </TTGlyph>
    <TTGlyph name="Ydieresis" xMin="9" yMin="0" xMax="677" yMax="876">
      <component glyphName="Y" x="0" y="0" flags="0x0"/>
      <component glyphName="dieresis" x="92" y="160" flags="0x4"/>
    </TTGlyph>
    <TTGlyph name="Z" xMin="31" yMin="0" xMax="613" yMax="660">
      <contour>
        <pt x="613" y="149" on="1"/>
        <pt x="613" y="0" on="1"/>
        <pt x="31" y="0" on="1"/>
        <pt x="31" y="143" on="1"/>
        <pt x="382" y="511" on="1"/>
        <pt x="36" y="511" on="1"/>
        <pt x="36" y="660" on="1"/>
        <pt x="602" y="660" on="1"/>
        <pt x="602" y="517" on="1"/>
        <pt x="252" y="149" on="1"/>
      </contour>
    </TTGlyph>
    <TTGlyph name="Zacute" xMin="31" yMin="0" xMax="613" yMax="881">
      <component glyphName="Z" x="0" y="0" flags="0x0"/>
      <component glyphName="acutecomb.cap" x="325" y="0" flags="0x0"/>
    </TTGlyph>
    <TTGlyph name="Zcaron" xMin="31" yMin="0" xMax="613" yMax="881">
      <component glyphName="Z" x="0" y="0" flags="0x0"/>
      <component glyphName="uni030C.cap" x="325" y="0" flags="0x0"/>
    </TTGlyph>
    <TTGlyph name="Zdotaccent" xMin="31" yMin="0" xMax="613" yMax="884">
      <component glyphName="Z" x="0" y="0" flags="0x0"/>
      <component glyphName="dotaccent" x="75" y="160" flags="0x4"/>
    </TTGlyph>
    <TTGlyph name="a" xMin="23" yMin="-10" xMax="587" yMax="510">
      <contour>
        <pt x="576" y="111" on="0"/>
        <pt x="587" y="115" on="1"/>
        <pt x="571" y="8" on="1"/>
        <pt x="538" y="-10" on="0"/>
        <pt x="500" y="-10" on="1"/>
        <pt x="443" y="-10" on="0"/>
        <pt x="368" y="31" on="0"/>
        <pt x="356" y="71" on="1"/>
        <pt x="334" y="33" on="0"/>
        <pt x="245" y="-10" on="0"/>
        <pt x="178" y="-10" on="1"/>
        <pt x="102" y="-10" on="0"/>
        <pt x="23" y="53" on="0"/>
        <pt x="23" y="112" on="1"/>
        <pt x="23" y="175" on="0"/>
        <pt x="113" y="253" on="0"/>
        <pt x="218" y="274" on="1"/>
        <pt x="324" y="296" on="1"/>
        <pt x="324" y="315" on="1"/>
        <pt x="324" y="344" on="0"/>
        <pt x="294" y="376" on="0"/>
        <pt x="267" y="376" on="1"/>
        <pt x="237" y="376" on="0"/>
        <pt x="199" y="345" on="0"/>
        <pt x="195" y="307" on="1"/>
        <pt x="29" y="342" on="1"/>
        <pt x="40" y="422" on="0"/>
        <pt x="163" y="510" on="0"/>
        <pt x="274" y="510" on="1"/>
        <pt x="524" y="510" on="0"/>
        <pt x="524" y="311" on="1"/>
        <pt x="524" y="151" on="1"/>
        <pt x="524" y="111" on="0"/>
        <pt x="559" y="111" on="1"/>
      </contour>
      <contour>
        <pt x="285" y="108" on="0"/>
        <pt x="324" y="139" on="0"/>
        <pt x="324" y="167" on="1"/>
        <pt x="324" y="213" on="1"/>
        <pt x="269" y="199" on="1"/>
        <pt x="217" y="186" on="0"/>
        <pt x="217" y="147" on="1"/>
        <pt x="217" y="128" on="0"/>
        <pt x="240" y="108" on="0"/>
        <pt x="259" y="108" on="1"/>
      </contour>
    </TTGlyph>
    <TTGlyph name="a.sc" xMin="1" yMin="0" xMax="640" yMax="560">
      <contour>
        <pt x="411" y="103" on="1"/>
        <pt x="222" y="103" on="1"/>
        <pt x="190" y="0" on="1"/>
        <pt x="1" y="0" on="1"/>
        <pt x="200" y="560" on="1"/>
        <pt x="442" y="560" on="1"/>
        <pt x="640" y="0" on="1"/>
        <pt x="442" y="0" on="1"/>
      </contour>
      <contour>
        <pt x="314" y="417" on="1"/>
        <pt x="261" y="233" on="1"/>
        <pt x="372" y="233" on="1"/>
        <pt x="318" y="417" on="1"/>
      </contour>
    </TTGlyph>
    <TTGlyph name="aacute" xMin="23" yMin="-10" xMax="587" yMax="734">
      <component glyphName="a" x="0" y="0" flags="0x0"/>
      <component glyphName="acute" x="16" y="0" flags="0x0"/>
    </TTGlyph>
    <TTGlyph name="aacute.sc" xMin="1" yMin="0" xMax="640" yMax="781">
      <component glyphName="a.sc" x="0" y="0" flags="0x0"/>
      <component glyphName="acutecomb.cap" x="321" y="-100" flags="0x4"/>
    </TTGlyph>
    <TTGlyph name="abreve" xMin="23" yMin="-10" xMax="587" yMax="715">
      <component glyphName="a" x="0" y="0" flags="0x0"/>
      <component glyphName="breve" x="27" y="0" flags="0x0"/>
    </TTGlyph>
    <TTGlyph name="abreve.sc" xMin="1" yMin="0" xMax="640" yMax="775">
      <component glyphName="a.sc" x="0" y="0" flags="0x0"/>
      <component glyphName="breve" x="71" y="60" flags="0x4"/>
    </TTGlyph>
    <TTGlyph name="acircumflex" xMin="23" yMin="-10" xMax="587" yMax="727">
      <component glyphName="a" x="0" y="0" flags="0x0"/>
      <component glyphName="circumflex" x="27" y="0" flags="0x0"/>
    </TTGlyph>
    <TTGlyph name="acircumflex.sc" xMin="1" yMin="0" xMax="640" yMax="780">
      <component glyphName="a.sc" x="0" y="0" flags="0x0"/>
      <component glyphName="uni0302.cap" x="321" y="-100" flags="0x4"/>
    </TTGlyph>
    <TTGlyph name="acute" xMin="175" yMin="559" xMax="421" yMax="734">
      <contour>
        <pt x="421" y="734" on="1"/>
        <pt x="319" y="559" on="1"/>
        <pt x="175" y="559" on="1"/>
        <pt x="238" y="734" on="1"/>
      </contour>
    </TTGlyph>
    <TTGlyph name="acutecmb" xMin="-86" yMin="559" xMax="160" yMax="734">
      <component glyphName="acute" x="-261" y="0" flags="0x0"/>
    </TTGlyph>
    <TTGlyph name="acutecomb.asc" xMin="-62" yMin="756" xMax="170" yMax="916">
      <contour>
        <pt x="170" y="916" on="1"/>
        <pt x="82" y="756" on="1"/>
        <pt x="-62" y="756" on="1"/>
        <pt x="-5" y="916" on="1"/>
      </contour>
    </TTGlyph>
    <TTGlyph name="acutecomb.cap" xMin="-82" yMin="715" xMax="153" yMax="881">
      <contour>
        <pt x="153" y="881" on="1"/>
        <pt x="62" y="715" on="1"/>
        <pt x="-82" y="715" on="1"/>
        <pt x="-23" y="881" on="1"/>
      </contour>
    </TTGlyph>
    <TTGlyph name="adieresis" xMin="23" yMin="-10" xMax="587" yMax="716">
      <component glyphName="a" x="0" y="0" flags="0x0"/>
      <component glyphName="dieresis" x="26" y="0" flags="0x0"/>
    </TTGlyph>
    <TTGlyph name="adieresis.sc" xMin="1" yMin="0" xMax="640" yMax="776">
      <component glyphName="a.sc" x="0" y="0" flags="0x0"/>
      <component glyphName="dieresis" x="70" y="60" flags="0x4"/>
    </TTGlyph>
    <TTGlyph name="ae" xMin="24" yMin="-10" xMax="848" yMax="510">
      <contour>
        <pt x="848" y="229" on="0"/>
        <pt x="843" y="207" on="1"/>
        <pt x="521" y="207" on="1"/>
        <pt x="528" y="164" on="0"/>
        <pt x="574" y="128" on="0"/>
        <pt x="611" y="128" on="1"/>
        <pt x="640" y="128" on="0"/>
        <pt x="669" y="151" on="0"/>
        <pt x="676" y="176" on="1"/>
        <pt x="839" y="129" on="1"/>
        <pt x="820" y="61" on="0"/>
        <pt x="695" y="-10" on="0"/>
        <pt x="603" y="-10" on="1"/>
        <pt x="471" y="-10" on="0"/>
        <pt x="415" y="84" on="1"/>
        <pt x="386" y="40" on="0"/>
        <pt x="271" y="-10" on="0"/>
        <pt x="187" y="-10" on="1"/>
        <pt x="105" y="-10" on="0"/>
        <pt x="24" y="55" on="0"/>
        <pt x="24" y="110" on="1"/>
        <pt x="24" y="175" on="0"/>
        <pt x="110" y="246" on="0"/>
        <pt x="210" y="266" on="1"/>
        <pt x="326" y="290" on="1"/>
        <pt x="326" y="315" on="1"/>
        <pt x="326" y="376" on="0"/>
        <pt x="266" y="376" on="1"/>
        <pt x="235" y="376" on="0"/>
        <pt x="202" y="345" on="0"/>
        <pt x="196" y="308" on="1"/>
        <pt x="30" y="341" on="1"/>
        <pt x="40" y="420" on="0"/>
        <pt x="155" y="510" on="0"/>
        <pt x="262" y="510" on="1"/>
        <pt x="319" y="510" on="0"/>
        <pt x="410" y="476" on="0"/>
        <pt x="440" y="444" on="1"/>
        <pt x="500" y="510" on="0"/>
        <pt x="600" y="510" on="1"/>
        <pt x="719" y="510" on="0"/>
        <pt x="848" y="378" on="0"/>
        <pt x="848" y="268" on="1"/>
      </contour>
      <contour>
        <pt x="561" y="373" on="0"/>
        <pt x="524" y="333" on="0"/>
        <pt x="520" y="287" on="1"/>
        <pt x="660" y="287" on="1"/>
        <pt x="656" y="331" on="0"/>
        <pt x="627" y="373" on="0"/>
        <pt x="595" y="373" on="1"/>
      </contour>
      <contour>
        <pt x="286" y="99" on="0"/>
        <pt x="326" y="133" on="0"/>
        <pt x="326" y="168" on="1"/>
        <pt x="326" y="211" on="1"/>
        <pt x="275" y="199" on="1"/>
        <pt x="242" y="190" on="0"/>
        <pt x="213" y="165" on="0"/>
        <pt x="213" y="142" on="1"/>
        <pt x="213" y="99" on="0"/>
        <pt x="258" y="99" on="1"/>
      </contour>
    </TTGlyph>
    <TTGlyph name="ae.sc" xMin="-5" yMin="0" xMax="842" yMax="560">
      <contour>
        <pt x="842" y="134" on="1"/>
        <pt x="842" y="0" on="1"/>
        <pt x="375" y="0" on="1"/>
        <pt x="375" y="149" on="1"/>
        <pt x="232" y="149" on="1"/>
        <pt x="183" y="0" on="1"/>
        <pt x="-5" y="0" on="1"/>
        <pt x="209" y="560" on="1"/>
        <pt x="831" y="560" on="1"/>
        <pt x="831" y="426" on="1"/>
        <pt x="559" y="426" on="1"/>
        <pt x="559" y="343" on="1"/>
        <pt x="762" y="343" on="1"/>
        <pt x="762" y="213" on="1"/>
        <pt x="559" y="213" on="1"/>
        <pt x="559" y="134" on="1"/>
      </contour>
      <contour>
        <pt x="375" y="279" on="1"/>
        <pt x="375" y="430" on="1"/>
        <pt x="324" y="430" on="1"/>
        <pt x="275" y="279" on="1"/>
      </contour>
    </TTGlyph>
    <TTGlyph name="agrave" xMin="23" yMin="-10" xMax="587" yMax="734">
      <component glyphName="a" x="0" y="0" flags="0x0"/>
      <component glyphName="grave" x="27" y="0" flags="0x0"/>
    </TTGlyph>
    <TTGlyph name="agrave.sc" xMin="1" yMin="0" xMax="640" yMax="781">
      <component glyphName="a.sc" x="0" y="0" flags="0x0"/>
      <component glyphName="gravecomb.cap" x="319" y="-100" flags="0x4"/>
    </TTGlyph>
    <TTGlyph name="amacron" xMin="23" yMin="-10" xMax="587" yMax="678">
      <component glyphName="a" x="0" y="0" flags="0x0"/>
      <component glyphName="macron" x="27" y="0" flags="0x0"/>
    </TTGlyph>
    <TTGlyph name="amacron.sc" xMin="1" yMin="0" xMax="640" yMax="738">
      <component glyphName="a.sc" x="0" y="0" flags="0x0"/>
      <component glyphName="macron" x="71" y="60" flags="0x4"/>
    </TTGlyph>
    <TTGlyph name="ampersand" xMin="17" yMin="-10" xMax="647" yMax="670">
      <contour>
        <pt x="634" y="-10" on="1"/>
        <pt x="572" y="-10" on="0"/>
        <pt x="491" y="12" on="0"/>
        <pt x="444" y="47" on="1"/>
        <pt x="373" y="-10" on="0"/>
        <pt x="257" y="-10" on="1"/>
        <pt x="148" y="-10" on="0"/>
        <pt x="17" y="84" on="0"/>
        <pt x="17" y="175" on="1"/>
        <pt x="17" y="225" on="0"/>
        <pt x="75" y="318" on="0"/>
        <pt x="142" y="343" on="1"/>
        <pt x="105" y="388" on="0"/>
        <pt x="79" y="453" on="0"/>
        <pt x="79" y="494" on="1"/>
        <pt x="79" y="540" on="0"/>
        <pt x="127" y="620" on="0"/>
        <pt x="225" y="670" on="0"/>
        <pt x="296" y="670" on="1"/>
        <pt x="368" y="670" on="0"/>
        <pt x="464" y="624" on="0"/>
        <pt x="509" y="550" on="0"/>
        <pt x="509" y="506" on="1"/>
        <pt x="509" y="446" on="0"/>
        <pt x="437" y="353" on="0"/>
        <pt x="365" y="326" on="1"/>
        <pt x="403" y="287" on="1"/>
        <pt x="464" y="224" on="1"/>
        <pt x="482" y="274" on="0"/>
        <pt x="481" y="334" on="1"/>
        <pt x="612" y="332" on="1"/>
        <pt x="609" y="221" on="0"/>
        <pt x="549" y="149" on="1"/>
        <pt x="582" y="128" on="0"/>
        <pt x="617" y="128" on="1"/>
        <pt x="631" y="128" on="0"/>
        <pt x="647" y="131" on="1"/>
      </contour>
      <contour>
        <pt x="277" y="543" on="0"/>
        <pt x="249" y="513" on="0"/>
        <pt x="249" y="486" on="1"/>
        <pt x="249" y="467" on="0"/>
        <pt x="269" y="431" on="0"/>
        <pt x="297" y="399" on="1"/>
        <pt x="330" y="425" on="0"/>
        <pt x="352" y="468" on="0"/>
        <pt x="352" y="495" on="1"/>
        <pt x="352" y="518" on="0"/>
        <pt x="324" y="543" on="0"/>
        <pt x="301" y="543" on="1"/>
      </contour>
      <contour>
        <pt x="314" y="118" on="0"/>
        <pt x="351" y="128" on="1"/>
        <pt x="310" y="168" on="1"/>
        <pt x="257" y="219" on="0"/>
        <pt x="220" y="258" on="1"/>
        <pt x="201" y="241" on="0"/>
        <pt x="188" y="209" on="0"/>
        <pt x="188" y="187" on="1"/>
        <pt x="188" y="156" on="0"/>
        <pt x="238" y="118" on="0"/>
        <pt x="281" y="118" on="1"/>
      </contour>
    </TTGlyph>
    <TTGlyph name="ampersand.sc" xMin="14" yMin="-8" xMax="593" yMax="568">
      <contour>
        <pt x="571" y="-8" on="1"/>
        <pt x="523" y="-8" on="0"/>
        <pt x="453" y="12" on="0"/>
        <pt x="410" y="41" on="1"/>
        <pt x="352" y="-7" on="0"/>
        <pt x="242" y="-7" on="1"/>
        <pt x="14" y="-7" on="0"/>
        <pt x="14" y="140" on="1"/>
        <pt x="14" y="189" on="0"/>
        <pt x="65" y="262" on="0"/>
        <pt x="133" y="286" on="1"/>
        <pt x="98" y="324" on="0"/>
        <pt x="70" y="383" on="0"/>
        <pt x="70" y="417" on="1"/>
        <pt x="70" y="456" on="0"/>
        <pt x="112" y="525" on="0"/>
        <pt x="202" y="568" on="0"/>
        <pt x="268" y="568" on="1"/>
        <pt x="356" y="568" on="0"/>
        <pt x="448" y="493" on="0"/>
        <pt x="448" y="429" on="1"/>
        <pt x="448" y="376" on="0"/>
        <pt x="398" y="302" on="0"/>
        <pt x="333" y="273" on="1"/>
        <pt x="365" y="240" on="1"/>
        <pt x="397" y="208" on="0"/>
        <pt x="422" y="186" on="1"/>
        <pt x="437" y="222" on="0"/>
        <pt x="434" y="278" on="1"/>
        <pt x="547" y="275" on="1"/>
        <pt x="547" y="181" on="0"/>
        <pt x="504" y="128" on="1"/>
        <pt x="525" y="118" on="0"/>
        <pt x="566" y="112" on="0"/>
        <pt x="593" y="112" on="1"/>
      </contour>
      <contour>
        <pt x="236" y="451" on="0"/>
        <pt x="236" y="410" on="1"/>
        <pt x="236" y="394" on="0"/>
        <pt x="250" y="363" on="0"/>
        <pt x="270" y="340" on="1"/>
        <pt x="292" y="358" on="0"/>
        <pt x="307" y="389" on="0"/>
        <pt x="307" y="411" on="1"/>
        <pt x="307" y="451" on="0"/>
        <pt x="272" y="451" on="1"/>
      </contour>
      <contour>
        <pt x="290" y="109" on="0"/>
        <pt x="317" y="115" on="1"/>
        <pt x="297" y="133" on="1"/>
        <pt x="280" y="148" on="1"/>
        <pt x="224" y="198" on="0"/>
        <pt x="208" y="213" on="1"/>
        <pt x="180" y="190" on="0"/>
        <pt x="180" y="164" on="1"/>
        <pt x="180" y="139" on="0"/>
        <pt x="225" y="109" on="0"/>
        <pt x="258" y="109" on="1"/>
      </contour>
    </TTGlyph>
    <TTGlyph name="aogonek" xMin="23" yMin="-215" xMax="587" yMax="510">
      <contour>
        <pt x="543" y="-106" on="0"/>
        <pt x="557" y="-97" on="1"/>
        <pt x="582" y="-190" on="1"/>
        <pt x="560" y="-204" on="0"/>
        <pt x="507" y="-215" on="0"/>
        <pt x="472" y="-215" on="1"/>
        <pt x="406" y="-215" on="0"/>
        <pt x="326" y="-156" on="0"/>
        <pt x="326" y="-96" on="1"/>
        <pt x="326" y="-53" on="0"/>
        <pt x="379" y="6" on="0"/>
        <pt x="429" y="19" on="1"/>
        <pt x="378" y="38" on="0"/>
        <pt x="366" y="90" on="1"/>
        <pt x="347" y="44" on="0"/>
        <pt x="253" y="-10" on="0"/>
        <pt x="178" y="-10" on="1"/>
        <pt x="102" y="-10" on="0"/>
        <pt x="23" y="53" on="0"/>
        <pt x="23" y="112" on="1"/>
        <pt x="23" y="175" on="0"/>
        <pt x="113" y="252" on="0"/>
        <pt x="218" y="274" on="1"/>
        <pt x="324" y="296" on="1"/>
        <pt x="324" y="315" on="1"/>
        <pt x="324" y="344" on="0"/>
        <pt x="294" y="376" on="0"/>
        <pt x="267" y="376" on="1"/>
        <pt x="237" y="376" on="0"/>
        <pt x="199" y="345" on="0"/>
        <pt x="195" y="307" on="1"/>
        <pt x="29" y="342" on="1"/>
        <pt x="40" y="422" on="0"/>
        <pt x="163" y="510" on="0"/>
        <pt x="274" y="510" on="1"/>
        <pt x="524" y="510" on="0"/>
        <pt x="524" y="311" on="1"/>
        <pt x="524" y="151" on="1"/>
        <pt x="524" y="111" on="0"/>
        <pt x="559" y="111" on="1"/>
        <pt x="576" y="111" on="0"/>
        <pt x="587" y="115" on="1"/>
        <pt x="571" y="5" on="1"/>
        <pt x="516" y="-3" on="0"/>
        <pt x="464" y="-37" on="0"/>
        <pt x="464" y="-65" on="1"/>
        <pt x="464" y="-85" on="0"/>
        <pt x="490" y="-106" on="0"/>
        <pt x="514" y="-106" on="1"/>
      </contour>
      <contour>
        <pt x="285" y="108" on="0"/>
        <pt x="324" y="139" on="0"/>
        <pt x="324" y="167" on="1"/>
        <pt x="324" y="213" on="1"/>
        <pt x="269" y="199" on="1"/>
        <pt x="217" y="186" on="0"/>
        <pt x="217" y="147" on="1"/>
        <pt x="217" y="128" on="0"/>
        <pt x="240" y="108" on="0"/>
        <pt x="259" y="108" on="1"/>
      </contour>
    </TTGlyph>
    <TTGlyph name="aogonek.sc" xMin="1" yMin="-215" xMax="645" yMax="560">
      <contour>
        <pt x="645" y="-190" on="1"/>
        <pt x="623" y="-204" on="0"/>
        <pt x="570" y="-215" on="0"/>
        <pt x="534" y="-215" on="1"/>
        <pt x="469" y="-215" on="0"/>
        <pt x="388" y="-156" on="0"/>
        <pt x="388" y="-99" on="1"/>
        <pt x="388" y="-35" on="0"/>
        <pt x="448" y="0" on="1"/>
        <pt x="442" y="0" on="1"/>
        <pt x="411" y="103" on="1"/>
        <pt x="222" y="103" on="1"/>
        <pt x="190" y="0" on="1"/>
        <pt x="1" y="0" on="1"/>
        <pt x="200" y="560" on="1"/>
        <pt x="442" y="560" on="1"/>
        <pt x="640" y="0" on="1"/>
        <pt x="577" y="-7" on="0"/>
        <pt x="525" y="-39" on="0"/>
        <pt x="525" y="-65" on="1"/>
        <pt x="525" y="-85" on="0"/>
        <pt x="552" y="-106" on="0"/>
        <pt x="577" y="-106" on="1"/>
        <pt x="606" y="-106" on="0"/>
        <pt x="620" y="-97" on="1"/>
      </contour>
      <contour>
        <pt x="314" y="417" on="1"/>
        <pt x="261" y="233" on="1"/>
        <pt x="372" y="233" on="1"/>
        <pt x="318" y="417" on="1"/>
      </contour>
    </TTGlyph>
    <TTGlyph name="approxequal" xMin="57" yMin="98" xMax="547" yMax="546">
      <contour>
        <pt x="223" y="546" on="0"/>
        <pt x="279" y="529" on="0"/>
        <pt x="319" y="512" on="1"/>
        <pt x="354" y="498" on="0"/>
        <pt x="391" y="486" on="0"/>
        <pt x="411" y="486" on="1"/>
        <pt x="451" y="486" on="0"/>
        <pt x="512" y="508" on="0"/>
        <pt x="547" y="538" on="1"/>
        <pt x="547" y="394" on="1"/>
        <pt x="490" y="344" on="0"/>
        <pt x="418" y="344" on="1"/>
        <pt x="387" y="344" on="0"/>
        <pt x="332" y="359" on="0"/>
        <pt x="296" y="374" on="1"/>
        <pt x="260" y="388" on="0"/>
        <pt x="214" y="402" on="0"/>
        <pt x="189" y="402" on="1"/>
        <pt x="146" y="402" on="0"/>
        <pt x="88" y="379" on="0"/>
        <pt x="57" y="351" on="1"/>
        <pt x="57" y="495" on="1"/>
        <pt x="90" y="523" on="0"/>
        <pt x="148" y="546" on="0"/>
        <pt x="189" y="546" on="1"/>
      </contour>
      <contour>
        <pt x="223" y="300" on="0"/>
        <pt x="281" y="283" on="0"/>
        <pt x="319" y="267" on="1"/>
        <pt x="349" y="254" on="0"/>
        <pt x="390" y="241" on="0"/>
        <pt x="411" y="241" on="1"/>
        <pt x="451" y="241" on="0"/>
        <pt x="513" y="263" on="0"/>
        <pt x="547" y="292" on="1"/>
        <pt x="547" y="148" on="1"/>
        <pt x="488" y="98" on="0"/>
        <pt x="418" y="98" on="1"/>
        <pt x="387" y="98" on="0"/>
        <pt x="334" y="114" on="0"/>
        <pt x="296" y="129" on="1"/>
        <pt x="260" y="143" on="0"/>
        <pt x="214" y="157" on="0"/>
        <pt x="189" y="157" on="1"/>
        <pt x="146" y="157" on="0"/>
        <pt x="88" y="133" on="0"/>
        <pt x="57" y="105" on="1"/>
        <pt x="57" y="250" on="1"/>
        <pt x="90" y="278" on="0"/>
        <pt x="147" y="300" on="0"/>
        <pt x="189" y="300" on="1"/>
      </contour>
    </TTGlyph>
    <TTGlyph name="aring" xMin="23" yMin="-10" xMax="587" yMax="787">
      <component glyphName="a" x="0" y="0" flags="0x0"/>
      <component glyphName="ring" x="26" y="0" flags="0x0"/>
    </TTGlyph>
    <TTGlyph name="aring.sc" xMin="1" yMin="0" xMax="640" yMax="764">
      <contour>
        <pt x="411" y="103" on="1"/>
        <pt x="224" y="103" on="1"/>
        <pt x="192" y="0" on="1"/>
        <pt x="1" y="0" on="1"/>
        <pt x="200" y="543" on="1"/>
        <pt x="162" y="573" on="0"/>
        <pt x="162" y="631" on="1"/>
        <pt x="162" y="692" on="0"/>
        <pt x="247" y="764" on="0"/>
        <pt x="321" y="764" on="1"/>
        <pt x="395" y="764" on="0"/>
        <pt x="479" y="692" on="0"/>
        <pt x="479" y="631" on="1"/>
        <pt x="479" y="577" on="0"/>
        <pt x="441" y="544" on="1"/>
        <pt x="640" y="0" on="1"/>
        <pt x="444" y="0" on="1"/>
      </contour>
      <contour>
        <pt x="296" y="675" on="0"/>
        <pt x="267" y="647" on="0"/>
        <pt x="267" y="623" on="1"/>
        <pt x="267" y="600" on="0"/>
        <pt x="296" y="572" on="0"/>
        <pt x="321" y="572" on="1"/>
        <pt x="346" y="572" on="0"/>
        <pt x="375" y="600" on="0"/>
        <pt x="375" y="623" on="1"/>
        <pt x="375" y="647" on="0"/>
        <pt x="346" y="675" on="0"/>
        <pt x="321" y="675" on="1"/>
      </contour>
      <contour>
        <pt x="321" y="409" on="1"/>
        <pt x="317" y="409" on="1"/>
        <pt x="263" y="233" on="1"/>
        <pt x="371" y="233" on="1"/>
      </contour>
    </TTGlyph>
    <TTGlyph name="arrowboth" xMin="26" yMin="-1" xMax="1084" yMax="701">
      <contour>
        <pt x="859" y="581" on="0"/>
        <pt x="1001" y="414" on="0"/>
        <pt x="1084" y="353" on="1"/>
        <pt x="1084" y="347" on="1"/>
        <pt x="1001" y="286" on="0"/>
        <pt x="860" y="119" on="0"/>
        <pt x="789" y="-1" on="1"/>
        <pt x="637" y="98" on="1"/>
        <pt x="699" y="193" on="0"/>
        <pt x="788" y="261" on="1"/>
        <pt x="707" y="249" on="0"/>
        <pt x="617" y="249" on="1"/>
        <pt x="493" y="249" on="1"/>
        <pt x="403" y="249" on="0"/>
        <pt x="322" y="261" on="1"/>
        <pt x="411" y="193" on="0"/>
        <pt x="473" y="98" on="1"/>
        <pt x="321" y="-1" on="1"/>
        <pt x="250" y="119" on="0"/>
        <pt x="109" y="286" on="0"/>
        <pt x="26" y="347" on="1"/>
        <pt x="26" y="353" on="1"/>
        <pt x="109" y="414" on="0"/>
        <pt x="251" y="581" on="0"/>
        <pt x="321" y="701" on="1"/>
        <pt x="473" y="602" on="1"/>
        <pt x="411" y="507" on="0"/>
        <pt x="322" y="439" on="1"/>
        <pt x="403" y="451" on="0"/>
        <pt x="493" y="451" on="1"/>
        <pt x="617" y="451" on="1"/>
        <pt x="707" y="451" on="0"/>
        <pt x="788" y="439" on="1"/>
        <pt x="699" y="507" on="0"/>
        <pt x="637" y="602" on="1"/>
        <pt x="789" y="701" on="1"/>
      </contour>
    </TTGlyph>
    <TTGlyph name="arrowdown" xMin="25" yMin="-6" xMax="727" yMax="660">
      <contour>
        <pt x="727" y="289" on="1"/>
        <pt x="607" y="217" on="0"/>
        <pt x="440" y="77" on="0"/>
        <pt x="379" y="-6" on="1"/>
        <pt x="373" y="-6" on="1"/>
        <pt x="312" y="77" on="0"/>
        <pt x="145" y="217" on="0"/>
        <pt x="25" y="289" on="1"/>
        <pt x="126" y="439" on="1"/>
        <pt x="220" y="377" on="0"/>
        <pt x="288" y="289" on="1"/>
        <pt x="275" y="382" on="0"/>
        <pt x="275" y="468" on="1"/>
        <pt x="275" y="660" on="1"/>
        <pt x="477" y="660" on="1"/>
        <pt x="477" y="468" on="1"/>
        <pt x="477" y="382" on="0"/>
        <pt x="464" y="289" on="1"/>
        <pt x="532" y="377" on="0"/>
        <pt x="626" y="439" on="1"/>
      </contour>
    </TTGlyph>
    <TTGlyph name="arrowleft" xMin="27" yMin="-20" xMax="693" yMax="682">
      <contour>
        <pt x="693" y="432" on="1"/>
        <pt x="693" y="230" on="1"/>
        <pt x="501" y="230" on="1"/>
        <pt x="415" y="230" on="0"/>
        <pt x="322" y="243" on="1"/>
        <pt x="410" y="175" on="0"/>
        <pt x="472" y="81" on="1"/>
        <pt x="322" y="-20" on="1"/>
        <pt x="250" y="100" on="0"/>
        <pt x="110" y="267" on="0"/>
        <pt x="27" y="328" on="1"/>
        <pt x="27" y="334" on="1"/>
        <pt x="110" y="395" on="0"/>
        <pt x="250" y="562" on="0"/>
        <pt x="322" y="682" on="1"/>
        <pt x="472" y="581" on="1"/>
        <pt x="410" y="487" on="0"/>
        <pt x="322" y="419" on="1"/>
        <pt x="415" y="432" on="0"/>
        <pt x="501" y="432" on="1"/>
      </contour>
    </TTGlyph>
    <TTGlyph name="arrowright" xMin="57" yMin="-20" xMax="723" yMax="682">
      <contour>
        <pt x="500" y="562" on="0"/>
        <pt x="640" y="395" on="0"/>
        <pt x="723" y="334" on="1"/>
        <pt x="723" y="328" on="1"/>
        <pt x="640" y="267" on="0"/>
        <pt x="500" y="100" on="0"/>
        <pt x="428" y="-20" on="1"/>
        <pt x="278" y="81" on="1"/>
        <pt x="340" y="175" on="0"/>
        <pt x="428" y="243" on="1"/>
        <pt x="335" y="230" on="0"/>
        <pt x="249" y="230" on="1"/>
        <pt x="57" y="230" on="1"/>
        <pt x="57" y="432" on="1"/>
        <pt x="249" y="432" on="1"/>
        <pt x="335" y="432" on="0"/>
        <pt x="428" y="419" on="1"/>
        <pt x="340" y="487" on="0"/>
        <pt x="278" y="581" on="1"/>
        <pt x="428" y="682" on="1"/>
      </contour>
    </TTGlyph>
    <TTGlyph name="arrowup" xMin="23" yMin="0" xMax="725" yMax="666">
      <contour>
        <pt x="438" y="583" on="0"/>
        <pt x="605" y="443" on="0"/>
        <pt x="725" y="371" on="1"/>
        <pt x="624" y="221" on="1"/>
        <pt x="530" y="283" on="0"/>
        <pt x="462" y="371" on="1"/>
        <pt x="475" y="278" on="0"/>
        <pt x="475" y="192" on="1"/>
        <pt x="475" y="0" on="1"/>
        <pt x="273" y="0" on="1"/>
        <pt x="273" y="192" on="1"/>
        <pt x="273" y="278" on="0"/>
        <pt x="286" y="371" on="1"/>
        <pt x="218" y="283" on="0"/>
        <pt x="124" y="221" on="1"/>
        <pt x="23" y="371" on="1"/>
        <pt x="143" y="443" on="0"/>
        <pt x="310" y="583" on="0"/>
        <pt x="371" y="666" on="1"/>
        <pt x="377" y="666" on="1"/>
      </contour>
    </TTGlyph>
    <TTGlyph name="arrowupdn" xMin="24" yMin="-199" xMax="726" yMax="859">
      <contour>
        <pt x="532" y="186" on="0"/>
        <pt x="627" y="248" on="1"/>
        <pt x="726" y="96" on="1"/>
        <pt x="606" y="26" on="0"/>
        <pt x="439" y="-116" on="0"/>
        <pt x="378" y="-199" on="1"/>
        <pt x="372" y="-199" on="1"/>
        <pt x="311" y="-116" on="0"/>
        <pt x="144" y="25" on="0"/>
        <pt x="24" y="96" on="1"/>
        <pt x="123" y="248" on="1"/>
        <pt x="218" y="186" on="0"/>
        <pt x="286" y="97" on="1"/>
        <pt x="274" y="178" on="0"/>
        <pt x="274" y="268" on="1"/>
        <pt x="274" y="392" on="1"/>
        <pt x="274" y="482" on="0"/>
        <pt x="286" y="563" on="1"/>
        <pt x="218" y="474" on="0"/>
        <pt x="123" y="412" on="1"/>
        <pt x="24" y="564" on="1"/>
        <pt x="144" y="635" on="0"/>
        <pt x="311" y="776" on="0"/>
        <pt x="372" y="859" on="1"/>
        <pt x="378" y="859" on="1"/>
        <pt x="439" y="776" on="0"/>
        <pt x="606" y="634" on="0"/>
        <pt x="726" y="564" on="1"/>
        <pt x="627" y="412" on="1"/>
        <pt x="532" y="474" on="0"/>
        <pt x="464" y="563" on="1"/>
        <pt x="476" y="482" on="0"/>
        <pt x="476" y="392" on="1"/>
        <pt x="476" y="268" on="1"/>
        <pt x="476" y="178" on="0"/>
        <pt x="464" y="97" on="1"/>
      </contour>
    </TTGlyph>
    <TTGlyph name="asciicircum" xMin="24" yMin="355" xMax="607" yMax="722">
      <contour>
        <pt x="432" y="355" on="1"/>
        <pt x="315" y="596" on="1"/>
        <pt x="198" y="355" on="1"/>
        <pt x="24" y="355" on="1"/>
        <pt x="231" y="722" on="1"/>
        <pt x="399" y="722" on="1"/>
        <pt x="607" y="355" on="1"/>
      </contour>
    </TTGlyph>
    <TTGlyph name="asciitilde" xMin="43" yMin="229" xMax="574" yMax="446">
      <contour>
        <pt x="570" y="336" on="0"/>
        <pt x="484" y="229" on="0"/>
        <pt x="403" y="229" on="1"/>
        <pt x="366" y="229" on="0"/>
        <pt x="317" y="249" on="0"/>
        <pt x="289" y="267" on="1"/>
        <pt x="272" y="278" on="0"/>
        <pt x="250" y="289" on="0"/>
        <pt x="238" y="289" on="1"/>
        <pt x="219" y="289" on="0"/>
        <pt x="199" y="264" on="0"/>
        <pt x="195" y="236" on="1"/>
        <pt x="43" y="236" on="1"/>
        <pt x="48" y="339" on="0"/>
        <pt x="134" y="446" on="0"/>
        <pt x="215" y="446" on="1"/>
        <pt x="252" y="446" on="0"/>
        <pt x="301" y="426" on="0"/>
        <pt x="329" y="408" on="1"/>
        <pt x="345" y="397" on="0"/>
        <pt x="367" y="386" on="0"/>
        <pt x="379" y="386" on="1"/>
        <pt x="398" y="386" on="0"/>
        <pt x="418" y="411" on="0"/>
        <pt x="422" y="439" on="1"/>
        <pt x="574" y="439" on="1"/>
      </contour>
    </TTGlyph>
    <TTGlyph name="asterisk" xMin="33" yMin="229" xMax="560" yMax="730">
      <contour>
        <pt x="416" y="424" on="1"/>
        <pt x="503" y="312" on="1"/>
        <pt x="389" y="229" on="1"/>
        <pt x="309" y="347" on="1"/>
        <pt x="297" y="376" on="1"/>
        <pt x="284" y="347" on="1"/>
        <pt x="204" y="229" on="1"/>
        <pt x="90" y="312" on="1"/>
        <pt x="178" y="424" on="1"/>
        <pt x="202" y="445" on="1"/>
        <pt x="170" y="448" on="1"/>
        <pt x="33" y="487" on="1"/>
        <pt x="77" y="622" on="1"/>
        <pt x="211" y="573" on="1"/>
        <pt x="238" y="557" on="1"/>
        <pt x="231" y="588" on="1"/>
        <pt x="226" y="730" on="1"/>
        <pt x="367" y="730" on="1"/>
        <pt x="362" y="588" on="1"/>
        <pt x="355" y="557" on="1"/>
        <pt x="382" y="573" on="1"/>
        <pt x="517" y="622" on="1"/>
        <pt x="560" y="487" on="1"/>
        <pt x="423" y="448" on="1"/>
        <pt x="392" y="445" on="1"/>
      </contour>
    </TTGlyph>
    <TTGlyph name="at" xMin="43" yMin="-180" xMax="887" yMax="660">
      <contour>
        <pt x="607" y="660" on="0"/>
        <pt x="787" y="568" on="0"/>
        <pt x="887" y="388" on="0"/>
        <pt x="887" y="260" on="1"/>
        <pt x="887" y="171" on="0"/>
        <pt x="825" y="55" on="0"/>
        <pt x="726" y="2" on="0"/>
        <pt x="669" y="2" on="1"/>
        <pt x="617" y="2" on="0"/>
        <pt x="541" y="44" on="0"/>
        <pt x="521" y="85" on="1"/>
        <pt x="469" y="3" on="0"/>
        <pt x="376" y="3" on="1"/>
        <pt x="302" y="3" on="0"/>
        <pt x="217" y="106" on="0"/>
        <pt x="217" y="187" on="1"/>
        <pt x="217" y="279" on="0"/>
        <pt x="278" y="405" on="0"/>
        <pt x="382" y="468" on="0"/>
        <pt x="448" y="468" on="1"/>
        <pt x="492" y="468" on="0"/>
        <pt x="540" y="422" on="0"/>
        <pt x="546" y="394" on="1"/>
        <pt x="567" y="457" on="1"/>
        <pt x="714" y="457" on="1"/>
        <pt x="668" y="180" on="1"/>
        <pt x="665" y="162" on="0"/>
        <pt x="665" y="148" on="1"/>
        <pt x="665" y="122" on="0"/>
        <pt x="688" y="98" on="0"/>
        <pt x="715" y="98" on="1"/>
        <pt x="754" y="98" on="0"/>
        <pt x="804" y="182" on="0"/>
        <pt x="804" y="260" on="1"/>
        <pt x="804" y="418" on="0"/>
        <pt x="635" y="579" on="0"/>
        <pt x="488" y="579" on="1"/>
        <pt x="384" y="579" on="0"/>
        <pt x="224" y="494" on="0"/>
        <pt x="135" y="333" on="0"/>
        <pt x="135" y="223" on="1"/>
        <pt x="135" y="120" on="0"/>
        <pt x="222" y="-26" on="0"/>
        <pt x="365" y="-100" on="0"/>
        <pt x="448" y="-100" on="1"/>
        <pt x="523" y="-100" on="0"/>
        <pt x="610" y="-74" on="0"/>
        <pt x="645" y="-47" on="1"/>
        <pt x="690" y="-111" on="1"/>
        <pt x="641" y="-146" on="0"/>
        <pt x="534" y="-180" on="0"/>
        <pt x="444" y="-180" on="1"/>
        <pt x="329" y="-180" on="0"/>
        <pt x="147" y="-85" on="0"/>
        <pt x="43" y="97" on="0"/>
        <pt x="43" y="223" on="1"/>
        <pt x="43" y="353" on="0"/>
        <pt x="158" y="552" on="0"/>
        <pt x="360" y="660" on="0"/>
        <pt x="488" y="660" on="1"/>
      </contour>
      <contour>
        <pt x="438" y="340" on="0"/>
        <pt x="389" y="270" on="0"/>
        <pt x="389" y="213" on="1"/>
        <pt x="389" y="177" on="0"/>
        <pt x="415" y="139" on="0"/>
        <pt x="439" y="139" on="1"/>
        <pt x="460" y="139" on="0"/>
        <pt x="492" y="165" on="0"/>
        <pt x="496" y="189" on="1"/>
        <pt x="509" y="281" on="1"/>
        <pt x="510" y="287" on="0"/>
        <pt x="510" y="298" on="1"/>
        <pt x="510" y="319" on="0"/>
        <pt x="492" y="340" on="0"/>
        <pt x="471" y="340" on="1"/>
      </contour>
    </TTGlyph>
    <TTGlyph name="at.case" xMin="43" yMin="-92" xMax="887" yMax="748">
      <component glyphName="at" x="0" y="88" flags="0x4"/>
    </TTGlyph>
    <TTGlyph name="atilde" xMin="23" yMin="-10" xMax="587" yMax="720">
      <component glyphName="a" x="0" y="0" flags="0x0"/>
      <component glyphName="tilde" x="27" y="0" flags="0x0"/>
    </TTGlyph>
    <TTGlyph name="atilde.sc" xMin="1" yMin="0" xMax="640" yMax="780">
      <component glyphName="a.sc" x="0" y="0" flags="0x0"/>
      <component glyphName="tilde" x="71" y="60" flags="0x4"/>
    </TTGlyph>
    <TTGlyph name="b" xMin="49" yMin="-10" xMax="595" yMax="706">
      <contour>
        <pt x="490" y="510" on="0"/>
        <pt x="595" y="372" on="0"/>
        <pt x="595" y="248" on="1"/>
        <pt x="595" y="126" on="0"/>
        <pt x="491" y="-10" on="0"/>
        <pt x="397" y="-10" on="1"/>
        <pt x="338" y="-10" on="0"/>
        <pt x="252" y="55" on="0"/>
        <pt x="232" y="110" on="1"/>
        <pt x="226" y="0" on="1"/>
        <pt x="49" y="0" on="1"/>
        <pt x="49" y="706" on="1"/>
        <pt x="251" y="706" on="1"/>
        <pt x="251" y="416" on="1"/>
        <pt x="271" y="460" on="0"/>
        <pt x="344" y="510" on="0"/>
        <pt x="396" y="510" on="1"/>
      </contour>
      <contour>
        <pt x="355" y="134" on="0"/>
        <pt x="391" y="188" on="0"/>
        <pt x="391" y="250" on="1"/>
        <pt x="391" y="312" on="0"/>
        <pt x="355" y="365" on="0"/>
        <pt x="320" y="365" on="1"/>
        <pt x="251" y="365" on="0"/>
        <pt x="251" y="254" on="1"/>
        <pt x="251" y="246" on="1"/>
        <pt x="251" y="134" on="0"/>
        <pt x="320" y="134" on="1"/>
      </contour>
    </TTGlyph>
    <TTGlyph name="b.sc" xMin="61" yMin="0" xMax="611" yMax="560">
      <contour>
        <pt x="61" y="560" on="1"/>
        <pt x="389" y="560" on="1"/>
        <pt x="494" y="559" on="0"/>
        <pt x="596" y="485" on="0"/>
        <pt x="596" y="410" on="1"/>
        <pt x="596" y="359" on="0"/>
        <pt x="536" y="291" on="0"/>
        <pt x="477" y="281" on="1"/>
        <pt x="477" y="278" on="1"/>
        <pt x="544" y="271" on="0"/>
        <pt x="611" y="203" on="0"/>
        <pt x="611" y="148" on="1"/>
        <pt x="611" y="0" on="0"/>
        <pt x="407" y="0" on="1"/>
        <pt x="61" y="0" on="1"/>
      </contour>
      <contour>
        <pt x="335" y="339" on="1"/>
        <pt x="368" y="339" on="0"/>
        <pt x="397" y="362" on="0"/>
        <pt x="397" y="387" on="1"/>
        <pt x="397" y="412" on="0"/>
        <pt x="368" y="435" on="0"/>
        <pt x="335" y="435" on="1"/>
        <pt x="249" y="435" on="1"/>
        <pt x="249" y="339" on="1"/>
      </contour>
      <contour>
        <pt x="356" y="125" on="1"/>
        <pt x="382" y="125" on="0"/>
        <pt x="412" y="149" on="0"/>
        <pt x="412" y="173" on="1"/>
        <pt x="412" y="222" on="0"/>
        <pt x="356" y="222" on="1"/>
        <pt x="249" y="222" on="1"/>
        <pt x="249" y="125" on="1"/>
      </contour>
    </TTGlyph>
    <TTGlyph name="backslash" xMin="11" yMin="-70" xMax="469" yMax="706">
      <contour>
        <pt x="198" y="706" on="1"/>
        <pt x="469" y="-70" on="1"/>
        <pt x="282" y="-70" on="1"/>
        <pt x="11" y="706" on="1"/>
      </contour>
    </TTGlyph>
    <TTGlyph name="bar" xMin="85" yMin="-168" xMax="263" yMax="706">
      <contour>
        <pt x="263" y="-168" on="1"/>
        <pt x="85" y="-168" on="1"/>
        <pt x="85" y="706" on="1"/>
        <pt x="263" y="706" on="1"/>
      </contour>
    </TTGlyph>
    <TTGlyph name="bar.case" xMin="85" yMin="-97" xMax="263" yMax="752">
      <contour>
        <pt x="263" y="-97" on="1"/>
        <pt x="85" y="-97" on="1"/>
        <pt x="85" y="752" on="1"/>
        <pt x="263" y="752" on="1"/>
      </contour>
    </TTGlyph>
    <TTGlyph name="braceleft" xMin="46" yMin="-192" xMax="426" yMax="731">
      <contour>
        <pt x="316" y="-26" on="0"/>
        <pt x="368" y="-69" on="0"/>
        <pt x="426" y="-69" on="1"/>
        <pt x="424" y="-192" on="1"/>
        <pt x="326" y="-192" on="0"/>
        <pt x="211" y="-157" on="0"/>
        <pt x="158" y="-76" on="0"/>
        <pt x="158" y="-6" on="1"/>
        <pt x="158" y="103" on="1"/>
        <pt x="158" y="159" on="0"/>
        <pt x="107" y="207" on="0"/>
        <pt x="46" y="207" on="1"/>
        <pt x="46" y="331" on="1"/>
        <pt x="107" y="331" on="0"/>
        <pt x="158" y="379" on="0"/>
        <pt x="158" y="435" on="1"/>
        <pt x="158" y="545" on="1"/>
        <pt x="158" y="614" on="0"/>
        <pt x="211" y="695" on="0"/>
        <pt x="326" y="731" on="0"/>
        <pt x="424" y="731" on="1"/>
        <pt x="426" y="607" on="1"/>
        <pt x="368" y="607" on="0"/>
        <pt x="316" y="564" on="0"/>
        <pt x="316" y="516" on="1"/>
        <pt x="316" y="389" on="1"/>
        <pt x="316" y="342" on="0"/>
        <pt x="269" y="284" on="0"/>
        <pt x="223" y="269" on="1"/>
        <pt x="269" y="254" on="0"/>
        <pt x="316" y="197" on="0"/>
        <pt x="316" y="149" on="1"/>
        <pt x="316" y="23" on="1"/>
      </contour>
    </TTGlyph>
    <TTGlyph name="braceleft.case" xMin="46" yMin="-120" xMax="426" yMax="778">
      <contour>
        <pt x="316" y="47" on="0"/>
        <pt x="368" y="4" on="0"/>
        <pt x="426" y="4" on="1"/>
        <pt x="424" y="-120" on="1"/>
        <pt x="326" y="-120" on="0"/>
        <pt x="211" y="-84" on="0"/>
        <pt x="158" y="-3" on="0"/>
        <pt x="158" y="67" on="1"/>
        <pt x="158" y="163" on="1"/>
        <pt x="158" y="219" on="0"/>
        <pt x="107" y="267" on="0"/>
        <pt x="46" y="267" on="1"/>
        <pt x="46" y="391" on="1"/>
        <pt x="107" y="391" on="0"/>
        <pt x="158" y="439" on="0"/>
        <pt x="158" y="495" on="1"/>
        <pt x="158" y="592" on="1"/>
        <pt x="158" y="661" on="0"/>
        <pt x="211" y="742" on="0"/>
        <pt x="326" y="778" on="0"/>
        <pt x="424" y="778" on="1"/>
        <pt x="426" y="654" on="1"/>
        <pt x="368" y="654" on="0"/>
        <pt x="316" y="612" on="0"/>
        <pt x="316" y="563" on="1"/>
        <pt x="316" y="449" on="1"/>
        <pt x="316" y="402" on="0"/>
        <pt x="269" y="344" on="0"/>
        <pt x="223" y="329" on="1"/>
        <pt x="269" y="314" on="0"/>
        <pt x="316" y="257" on="0"/>
        <pt x="316" y="209" on="1"/>
        <pt x="316" y="96" on="1"/>
      </contour>
    </TTGlyph>
    <TTGlyph name="braceright" xMin="19" yMin="-192" xMax="399" yMax="731">
      <contour>
        <pt x="287" y="379" on="0"/>
        <pt x="338" y="331" on="0"/>
        <pt x="399" y="331" on="1"/>
        <pt x="399" y="207" on="1"/>
        <pt x="338" y="207" on="0"/>
        <pt x="287" y="159" on="0"/>
        <pt x="287" y="103" on="1"/>
        <pt x="287" y="-6" on="1"/>
        <pt x="287" y="-76" on="0"/>
        <pt x="234" y="-157" on="0"/>
        <pt x="119" y="-192" on="0"/>
        <pt x="21" y="-192" on="1"/>
        <pt x="19" y="-69" on="1"/>
        <pt x="77" y="-69" on="0"/>
        <pt x="129" y="-26" on="0"/>
        <pt x="129" y="23" on="1"/>
        <pt x="129" y="149" on="1"/>
        <pt x="129" y="197" on="0"/>
        <pt x="176" y="254" on="0"/>
        <pt x="222" y="269" on="1"/>
        <pt x="176" y="284" on="0"/>
        <pt x="129" y="342" on="0"/>
        <pt x="129" y="389" on="1"/>
        <pt x="129" y="516" on="1"/>
        <pt x="129" y="564" on="0"/>
        <pt x="77" y="607" on="0"/>
        <pt x="19" y="607" on="1"/>
        <pt x="21" y="731" on="1"/>
        <pt x="119" y="731" on="0"/>
        <pt x="234" y="695" on="0"/>
        <pt x="287" y="614" on="0"/>
        <pt x="287" y="545" on="1"/>
        <pt x="287" y="435" on="1"/>
      </contour>
    </TTGlyph>
    <TTGlyph name="braceright.case" xMin="19" yMin="-120" xMax="399" yMax="778">
      <contour>
        <pt x="287" y="439" on="0"/>
        <pt x="338" y="391" on="0"/>
        <pt x="399" y="391" on="1"/>
        <pt x="399" y="267" on="1"/>
        <pt x="338" y="267" on="0"/>
        <pt x="287" y="219" on="0"/>
        <pt x="287" y="163" on="1"/>
        <pt x="287" y="67" on="1"/>
        <pt x="287" y="-3" on="0"/>
        <pt x="234" y="-84" on="0"/>
        <pt x="119" y="-120" on="0"/>
        <pt x="21" y="-120" on="1"/>
        <pt x="19" y="4" on="1"/>
        <pt x="77" y="4" on="0"/>
        <pt x="129" y="47" on="0"/>
        <pt x="129" y="96" on="1"/>
        <pt x="129" y="209" on="1"/>
        <pt x="129" y="257" on="0"/>
        <pt x="176" y="314" on="0"/>
        <pt x="222" y="329" on="1"/>
        <pt x="176" y="344" on="0"/>
        <pt x="129" y="402" on="0"/>
        <pt x="129" y="449" on="1"/>
        <pt x="129" y="563" on="1"/>
        <pt x="129" y="612" on="0"/>
        <pt x="77" y="654" on="0"/>
        <pt x="19" y="654" on="1"/>
        <pt x="21" y="778" on="1"/>
        <pt x="119" y="778" on="0"/>
        <pt x="234" y="742" on="0"/>
        <pt x="287" y="661" on="0"/>
        <pt x="287" y="592" on="1"/>
        <pt x="287" y="495" on="1"/>
      </contour>
    </TTGlyph>
    <TTGlyph name="bracketleft" xMin="85" yMin="-168" xMax="383" yMax="706">
      <contour>
        <pt x="257" y="571" on="1"/>
        <pt x="257" y="-32" on="1"/>
        <pt x="383" y="-32" on="1"/>
        <pt x="383" y="-168" on="1"/>
        <pt x="85" y="-168" on="1"/>
        <pt x="85" y="706" on="1"/>
        <pt x="383" y="706" on="1"/>
        <pt x="383" y="571" on="1"/>
      </contour>
    </TTGlyph>
    <TTGlyph name="bracketleft.case" xMin="85" yMin="-97" xMax="383" yMax="752">
      <contour>
        <pt x="257" y="616" on="1"/>
        <pt x="257" y="39" on="1"/>
        <pt x="383" y="39" on="1"/>
        <pt x="383" y="-97" on="1"/>
        <pt x="85" y="-97" on="1"/>
        <pt x="85" y="752" on="1"/>
        <pt x="383" y="752" on="1"/>
        <pt x="383" y="616" on="1"/>
      </contour>
    </TTGlyph>
    <TTGlyph name="bracketleftinferior" xMin="50" yMin="-269" xMax="253" yMax="288">
      <component glyphName="bracketleftsuperior" x="0" y="-522" flags="0x4"/>
    </TTGlyph>
    <TTGlyph name="bracketleftsuperior" xMin="50" yMin="253" xMax="253" yMax="810">
      <contour>
        <pt x="166" y="716" on="1"/>
        <pt x="166" y="347" on="1"/>
        <pt x="253" y="347" on="1"/>
        <pt x="253" y="253" on="1"/>
        <pt x="50" y="253" on="1"/>
        <pt x="50" y="810" on="1"/>
        <pt x="253" y="810" on="1"/>
        <pt x="253" y="716" on="1"/>
      </contour>
    </TTGlyph>
    <TTGlyph name="bracketright" xMin="24" yMin="-168" xMax="322" yMax="706">
      <contour>
        <pt x="322" y="-168" on="1"/>
        <pt x="24" y="-168" on="1"/>
        <pt x="24" y="-32" on="1"/>
        <pt x="150" y="-32" on="1"/>
        <pt x="150" y="571" on="1"/>
        <pt x="24" y="571" on="1"/>
        <pt x="24" y="706" on="1"/>
        <pt x="322" y="706" on="1"/>
      </contour>
    </TTGlyph>
    <TTGlyph name="bracketright.case" xMin="24" yMin="-97" xMax="322" yMax="752">
      <contour>
        <pt x="322" y="-97" on="1"/>
        <pt x="24" y="-97" on="1"/>
        <pt x="24" y="39" on="1"/>
        <pt x="150" y="39" on="1"/>
        <pt x="150" y="616" on="1"/>
        <pt x="24" y="616" on="1"/>
        <pt x="24" y="752" on="1"/>
        <pt x="322" y="752" on="1"/>
      </contour>
    </TTGlyph>
    <TTGlyph name="bracketrightinferior" xMin="17" yMin="-269" xMax="220" yMax="288">
      <component glyphName="bracketrightsuperior" x="0" y="-522" flags="0x4"/>
    </TTGlyph>
    <TTGlyph name="bracketrightsuperior" xMin="17" yMin="253" xMax="220" yMax="810">
      <contour>
        <pt x="220" y="253" on="1"/>
        <pt x="17" y="253" on="1"/>
        <pt x="17" y="347" on="1"/>
        <pt x="104" y="347" on="1"/>
        <pt x="104" y="716" on="1"/>
        <pt x="17" y="716" on="1"/>
        <pt x="17" y="810" on="1"/>
        <pt x="220" y="810" on="1"/>
      </contour>
    </TTGlyph>
    <TTGlyph name="breve" xMin="74" yMin="547" xMax="426" yMax="715">
      <contour>
        <pt x="426" y="636" on="0"/>
        <pt x="333" y="547" on="0"/>
        <pt x="250" y="547" on="1"/>
        <pt x="167" y="547" on="0"/>
        <pt x="74" y="636" on="0"/>
        <pt x="74" y="715" on="1"/>
        <pt x="199" y="715" on="1"/>
        <pt x="199" y="686" on="0"/>
        <pt x="225" y="654" on="0"/>
        <pt x="250" y="654" on="1"/>
        <pt x="275" y="654" on="0"/>
        <pt x="301" y="686" on="0"/>
        <pt x="301" y="715" on="1"/>
        <pt x="426" y="715" on="1"/>
      </contour>
    </TTGlyph>
    <TTGlyph name="brokenbar" xMin="50" yMin="-168" xMax="229" yMax="706">
      <contour>
        <pt x="229" y="321" on="1"/>
        <pt x="50" y="321" on="1"/>
        <pt x="50" y="706" on="1"/>
        <pt x="229" y="706" on="1"/>
      </contour>
      <contour>
        <pt x="229" y="-168" on="1"/>
        <pt x="50" y="-168" on="1"/>
        <pt x="50" y="218" on="1"/>
        <pt x="229" y="218" on="1"/>
      </contour>
    </TTGlyph>
    <TTGlyph name="bullet" xMin="51" yMin="173" xMax="379" yMax="490">
      <contour>
        <pt x="292" y="490" on="0"/>
        <pt x="379" y="406" on="0"/>
        <pt x="379" y="331" on="1"/>
        <pt x="379" y="257" on="0"/>
        <pt x="292" y="173" on="0"/>
        <pt x="215" y="173" on="1"/>
        <pt x="138" y="173" on="0"/>
        <pt x="51" y="257" on="0"/>
        <pt x="51" y="331" on="1"/>
        <pt x="51" y="406" on="0"/>
        <pt x="138" y="490" on="0"/>
        <pt x="215" y="490" on="1"/>
      </contour>
    </TTGlyph>
    <TTGlyph name="c" xMin="28" yMin="-10" xMax="552" yMax="510">
      <contour>
        <pt x="425" y="510" on="0"/>
        <pt x="544" y="417" on="0"/>
        <pt x="552" y="347" on="1"/>
        <pt x="365" y="290" on="1"/>
        <pt x="362" y="371" on="0"/>
        <pt x="308" y="371" on="1"/>
        <pt x="268" y="371" on="0"/>
        <pt x="231" y="314" on="0"/>
        <pt x="231" y="248" on="1"/>
        <pt x="231" y="182" on="0"/>
        <pt x="270" y="129" on="0"/>
        <pt x="307" y="129" on="1"/>
        <pt x="361" y="129" on="0"/>
        <pt x="370" y="202" on="1"/>
        <pt x="551" y="145" on="1"/>
        <pt x="548" y="102" on="0"/>
        <pt x="489" y="31" on="0"/>
        <pt x="382" y="-10" on="0"/>
        <pt x="308" y="-10" on="1"/>
        <pt x="172" y="-10" on="0"/>
        <pt x="28" y="125" on="0"/>
        <pt x="28" y="250" on="1"/>
        <pt x="28" y="374" on="0"/>
        <pt x="170" y="510" on="0"/>
        <pt x="298" y="510" on="1"/>
      </contour>
    </TTGlyph>
    <TTGlyph name="c.sc" xMin="32" yMin="-8" xMax="594" yMax="568">
      <contour>
        <pt x="583" y="92" on="0"/>
        <pt x="441" y="-8" on="0"/>
        <pt x="326" y="-8" on="1"/>
        <pt x="187" y="-8" on="0"/>
        <pt x="32" y="143" on="0"/>
        <pt x="32" y="280" on="1"/>
        <pt x="32" y="418" on="0"/>
        <pt x="190" y="568" on="0"/>
        <pt x="332" y="568" on="1"/>
        <pt x="433" y="568" on="0"/>
        <pt x="578" y="472" on="0"/>
        <pt x="591" y="385" on="1"/>
        <pt x="411" y="336" on="1"/>
        <pt x="406" y="417" on="0"/>
        <pt x="331" y="417" on="1"/>
        <pt x="285" y="417" on="0"/>
        <pt x="235" y="350" on="0"/>
        <pt x="235" y="280" on="1"/>
        <pt x="235" y="209" on="0"/>
        <pt x="285" y="143" on="0"/>
        <pt x="334" y="143" on="1"/>
        <pt x="411" y="143" on="0"/>
        <pt x="417" y="221" on="1"/>
        <pt x="594" y="174" on="1"/>
      </contour>
    </TTGlyph>
    <TTGlyph name="c_t" xMin="28" yMin="-10" xMax="960" yMax="722">
      <contour>
        <pt x="960" y="26" on="1"/>
        <pt x="936" y="10" on="0"/>
        <pt x="854" y="-10" on="0"/>
        <pt x="815" y="-10" on="1"/>
        <pt x="715" y="-10" on="0"/>
        <pt x="615" y="70" on="0"/>
        <pt x="615" y="160" on="1"/>
        <pt x="615" y="501" on="1"/>
        <pt x="615" y="544" on="0"/>
        <pt x="584" y="583" on="0"/>
        <pt x="560" y="583" on="1"/>
        <pt x="508" y="583" on="0"/>
        <pt x="508" y="508" on="1"/>
        <pt x="508" y="447" on="0"/>
        <pt x="551" y="347" on="1"/>
        <pt x="365" y="290" on="1"/>
        <pt x="361" y="371" on="0"/>
        <pt x="308" y="371" on="1"/>
        <pt x="268" y="371" on="0"/>
        <pt x="231" y="314" on="0"/>
        <pt x="231" y="248" on="1"/>
        <pt x="231" y="182" on="0"/>
        <pt x="270" y="129" on="0"/>
        <pt x="307" y="129" on="1"/>
        <pt x="359" y="129" on="0"/>
        <pt x="370" y="202" on="1"/>
        <pt x="551" y="145" on="1"/>
        <pt x="548" y="102" on="0"/>
        <pt x="489" y="31" on="0"/>
        <pt x="382" y="-10" on="0"/>
        <pt x="308" y="-10" on="1"/>
        <pt x="172" y="-10" on="0"/>
        <pt x="28" y="125" on="0"/>
        <pt x="28" y="250" on="1"/>
        <pt x="28" y="374" on="0"/>
        <pt x="170" y="510" on="0"/>
        <pt x="298" y="510" on="1"/>
        <pt x="335" y="510" on="0"/>
        <pt x="372" y="501" on="1"/>
        <pt x="363" y="522" on="0"/>
        <pt x="363" y="551" on="1"/>
        <pt x="363" y="631" on="0"/>
        <pt x="480" y="722" on="0"/>
        <pt x="579" y="722" on="1"/>
        <pt x="639" y="722" on="0"/>
        <pt x="747" y="682" on="0"/>
        <pt x="817" y="596" on="0"/>
        <pt x="817" y="530" on="1"/>
        <pt x="817" y="500" on="1"/>
        <pt x="954" y="500" on="1"/>
        <pt x="954" y="361" on="1"/>
        <pt x="817" y="361" on="1"/>
        <pt x="817" y="192" on="1"/>
        <pt x="817" y="157" on="0"/>
        <pt x="848" y="127" on="0"/>
        <pt x="880" y="127" on="1"/>
        <pt x="918" y="127" on="0"/>
        <pt x="947" y="144" on="1"/>
      </contour>
    </TTGlyph>
    <TTGlyph name="cacute" xMin="28" yMin="-10" xMax="552" yMax="734">
      <component glyphName="c" x="0" y="0" flags="0x0"/>
      <component glyphName="acute" x="36" y="0" flags="0x0"/>
    </TTGlyph>
    <TTGlyph name="cacute.sc" xMin="32" yMin="-8" xMax="594" yMax="781">
      <component glyphName="c.sc" x="0" y="0" flags="0x0"/>
      <component glyphName="acutecomb.cap" x="337" y="-100" flags="0x4"/>
    </TTGlyph>
    <TTGlyph name="caron" xMin="47" yMin="559" xMax="453" yMax="734">
      <contour>
        <pt x="345" y="559" on="1"/>
        <pt x="155" y="559" on="1"/>
        <pt x="47" y="734" on="1"/>
        <pt x="188" y="734" on="1"/>
        <pt x="250" y="655" on="1"/>
        <pt x="312" y="734" on="1"/>
        <pt x="453" y="734" on="1"/>
      </contour>
    </TTGlyph>
    <TTGlyph name="ccaron" xMin="28" yMin="-10" xMax="552" yMax="734">
      <component glyphName="c" x="0" y="0" flags="0x0"/>
      <component glyphName="caron" x="42" y="0" flags="0x0"/>
    </TTGlyph>
    <TTGlyph name="ccaron.sc" xMin="32" yMin="-8" xMax="594" yMax="781">
      <component glyphName="c.sc" x="0" y="0" flags="0x0"/>
      <component glyphName="uni030C.cap" x="337" y="-100" flags="0x4"/>
    </TTGlyph>
    <TTGlyph name="ccedilla" xMin="28" yMin="-215" xMax="552" yMax="510">
      <contour>
        <pt x="361" y="129" on="0"/>
        <pt x="370" y="202" on="1"/>
        <pt x="551" y="145" on="1"/>
        <pt x="547" y="93" on="0"/>
        <pt x="467" y="15" on="0"/>
        <pt x="396" y="-1" on="1"/>
        <pt x="449" y="-37" on="0"/>
        <pt x="449" y="-93" on="1"/>
        <pt x="449" y="-155" on="0"/>
        <pt x="365" y="-215" on="0"/>
        <pt x="296" y="-215" on="1"/>
        <pt x="249" y="-215" on="0"/>
        <pt x="188" y="-193" on="0"/>
        <pt x="167" y="-173" on="1"/>
        <pt x="209" y="-85" on="1"/>
        <pt x="238" y="-114" on="0"/>
        <pt x="282" y="-114" on="1"/>
        <pt x="307" y="-114" on="0"/>
        <pt x="337" y="-89" on="0"/>
        <pt x="337" y="-67" on="1"/>
        <pt x="337" y="-48" on="0"/>
        <pt x="309" y="-19" on="0"/>
        <pt x="274" y="-9" on="1"/>
        <pt x="154" y="-1" on="0"/>
        <pt x="28" y="133" on="0"/>
        <pt x="28" y="250" on="1"/>
        <pt x="28" y="374" on="0"/>
        <pt x="170" y="510" on="0"/>
        <pt x="298" y="510" on="1"/>
        <pt x="425" y="510" on="0"/>
        <pt x="544" y="417" on="0"/>
        <pt x="552" y="347" on="1"/>
        <pt x="365" y="290" on="1"/>
        <pt x="362" y="371" on="0"/>
        <pt x="308" y="371" on="1"/>
        <pt x="268" y="371" on="0"/>
        <pt x="231" y="314" on="0"/>
        <pt x="231" y="248" on="1"/>
        <pt x="231" y="182" on="0"/>
        <pt x="270" y="129" on="0"/>
        <pt x="307" y="129" on="1"/>
      </contour>
    </TTGlyph>
    <TTGlyph name="ccedilla.sc" xMin="32" yMin="-215" xMax="594" yMax="568">
      <contour>
        <pt x="586" y="110" on="0"/>
        <pt x="493" y="19" on="0"/>
        <pt x="416" y="2" on="1"/>
        <pt x="473" y="-36" on="0"/>
        <pt x="473" y="-93" on="1"/>
        <pt x="473" y="-155" on="0"/>
        <pt x="389" y="-215" on="0"/>
        <pt x="320" y="-215" on="1"/>
        <pt x="273" y="-215" on="0"/>
        <pt x="212" y="-193" on="0"/>
        <pt x="191" y="-173" on="1"/>
        <pt x="233" y="-85" on="1"/>
        <pt x="262" y="-114" on="0"/>
        <pt x="306" y="-114" on="1"/>
        <pt x="331" y="-114" on="0"/>
        <pt x="361" y="-89" on="0"/>
        <pt x="361" y="-67" on="1"/>
        <pt x="361" y="-46" on="0"/>
        <pt x="330" y="-17" on="0"/>
        <pt x="291" y="-7" on="1"/>
        <pt x="167" y="3" on="0"/>
        <pt x="32" y="152" on="0"/>
        <pt x="32" y="280" on="1"/>
        <pt x="32" y="418" on="0"/>
        <pt x="190" y="568" on="0"/>
        <pt x="332" y="568" on="1"/>
        <pt x="433" y="568" on="0"/>
        <pt x="578" y="472" on="0"/>
        <pt x="591" y="385" on="1"/>
        <pt x="411" y="336" on="1"/>
        <pt x="406" y="417" on="0"/>
        <pt x="331" y="417" on="1"/>
        <pt x="285" y="417" on="0"/>
        <pt x="235" y="350" on="0"/>
        <pt x="235" y="280" on="1"/>
        <pt x="235" y="209" on="0"/>
        <pt x="285" y="143" on="0"/>
        <pt x="334" y="143" on="1"/>
        <pt x="411" y="143" on="0"/>
        <pt x="417" y="221" on="1"/>
        <pt x="594" y="174" on="1"/>
      </contour>
    </TTGlyph>
    <TTGlyph name="cedilla" xMin="116" yMin="-215" xMax="398" yMax="40">
      <contour>
        <pt x="215" y="40" on="1"/>
        <pt x="303" y="31" on="0"/>
        <pt x="398" y="-41" on="0"/>
        <pt x="398" y="-93" on="1"/>
        <pt x="398" y="-155" on="0"/>
        <pt x="314" y="-215" on="0"/>
        <pt x="245" y="-215" on="1"/>
        <pt x="198" y="-215" on="0"/>
        <pt x="137" y="-193" on="0"/>
        <pt x="116" y="-173" on="1"/>
        <pt x="158" y="-85" on="1"/>
        <pt x="187" y="-114" on="0"/>
        <pt x="231" y="-114" on="1"/>
        <pt x="256" y="-114" on="0"/>
        <pt x="286" y="-89" on="0"/>
        <pt x="286" y="-67" on="1"/>
        <pt x="286" y="-42" on="0"/>
        <pt x="238" y="-9" on="0"/>
        <pt x="175" y="2" on="1"/>
      </contour>
    </TTGlyph>
    <TTGlyph name="cent" xMin="36" yMin="-100" xMax="557" yMax="600">
      <contour>
        <pt x="402" y="125" on="0"/>
        <pt x="414" y="196" on="1"/>
        <pt x="557" y="146" on="1"/>
        <pt x="556" y="79" on="0"/>
        <pt x="442" y="-5" on="0"/>
        <pt x="339" y="-9" on="1"/>
        <pt x="339" y="-100" on="1"/>
        <pt x="280" y="-100" on="1"/>
        <pt x="280" y="-9" on="1"/>
        <pt x="161" y="0" on="0"/>
        <pt x="36" y="134" on="0"/>
        <pt x="36" y="250" on="1"/>
        <pt x="36" y="367" on="0"/>
        <pt x="164" y="502" on="0"/>
        <pt x="280" y="509" on="1"/>
        <pt x="280" y="600" on="1"/>
        <pt x="339" y="600" on="1"/>
        <pt x="339" y="509" on="1"/>
        <pt x="450" y="503" on="0"/>
        <pt x="554" y="414" on="0"/>
        <pt x="557" y="347" on="1"/>
        <pt x="411" y="297" on="1"/>
        <pt x="407" y="335" on="0"/>
        <pt x="369" y="380" on="0"/>
        <pt x="339" y="386" on="1"/>
        <pt x="339" y="113" on="1"/>
      </contour>
      <contour>
        <pt x="211" y="185" on="0"/>
        <pt x="246" y="123" on="0"/>
        <pt x="280" y="115" on="1"/>
        <pt x="280" y="385" on="1"/>
        <pt x="244" y="377" on="0"/>
        <pt x="211" y="312" on="0"/>
        <pt x="211" y="248" on="1"/>
      </contour>
    </TTGlyph>
    <TTGlyph name="cent.tf" xMin="39" yMin="-100" xMax="560" yMax="600">
      <component glyphName="cent" x="3" y="0" flags="0x0"/>
    </TTGlyph>
    <TTGlyph name="circle" xMin="29" yMin="-10" xMax="571" yMax="510">
      <contour>
        <pt x="224" y="-10" on="0"/>
        <pt x="100" y="58" on="0"/>
        <pt x="29" y="177" on="0"/>
        <pt x="29" y="250" on="1"/>
        <pt x="29" y="323" on="0"/>
        <pt x="100" y="442" on="0"/>
        <pt x="224" y="510" on="0"/>
        <pt x="300" y="510" on="1"/>
        <pt x="376" y="510" on="0"/>
        <pt x="500" y="442" on="0"/>
        <pt x="571" y="323" on="0"/>
        <pt x="571" y="250" on="1"/>
        <pt x="571" y="177" on="0"/>
        <pt x="500" y="58" on="0"/>
        <pt x="376" y="-10" on="0"/>
        <pt x="300" y="-10" on="1"/>
      </contour>
      <contour>
        <pt x="356" y="118" on="0"/>
        <pt x="430" y="194" on="0"/>
        <pt x="430" y="250" on="1"/>
        <pt x="430" y="306" on="0"/>
        <pt x="356" y="382" on="0"/>
        <pt x="300" y="382" on="1"/>
        <pt x="244" y="382" on="0"/>
        <pt x="170" y="306" on="0"/>
        <pt x="170" y="250" on="1"/>
        <pt x="170" y="194" on="0"/>
        <pt x="244" y="118" on="0"/>
        <pt x="300" y="118" on="1"/>
      </contour>
    </TTGlyph>
    <TTGlyph name="circle.case" xMin="60" yMin="-10" xMax="753" yMax="670">
      <contour>
        <pt x="308" y="-10" on="0"/>
        <pt x="150" y="79" on="0"/>
        <pt x="60" y="234" on="0"/>
        <pt x="60" y="330" on="1"/>
        <pt x="60" y="426" on="0"/>
        <pt x="150" y="581" on="0"/>
        <pt x="308" y="670" on="0"/>
        <pt x="406" y="670" on="1"/>
        <pt x="504" y="670" on="0"/>
        <pt x="662" y="581" on="0"/>
        <pt x="753" y="426" on="0"/>
        <pt x="753" y="330" on="1"/>
        <pt x="753" y="234" on="0"/>
        <pt x="662" y="79" on="0"/>
        <pt x="504" y="-10" on="0"/>
        <pt x="406" y="-10" on="1"/>
      </contour>
      <contour>
        <pt x="465" y="118" on="0"/>
        <pt x="559" y="172" on="0"/>
        <pt x="612" y="268" on="0"/>
        <pt x="612" y="330" on="1"/>
        <pt x="612" y="392" on="0"/>
        <pt x="559" y="488" on="0"/>
        <pt x="465" y="542" on="0"/>
        <pt x="406" y="542" on="1"/>
        <pt x="347" y="542" on="0"/>
        <pt x="253" y="488" on="0"/>
        <pt x="201" y="392" on="0"/>
        <pt x="201" y="330" on="1"/>
        <pt x="201" y="268" on="0"/>
        <pt x="253" y="172" on="0"/>
        <pt x="347" y="118" on="0"/>
        <pt x="406" y="118" on="1"/>
      </contour>
    </TTGlyph>
    <TTGlyph name="circumflex" xMin="47" yMin="552" xMax="453" yMax="727">
      <contour>
        <pt x="312" y="552" on="1"/>
        <pt x="250" y="631" on="1"/>
        <pt x="188" y="552" on="1"/>
        <pt x="47" y="552" on="1"/>
        <pt x="155" y="727" on="1"/>
        <pt x="345" y="727" on="1"/>
        <pt x="453" y="552" on="1"/>
      </contour>
    </TTGlyph>
    <TTGlyph name="colon" xMin="40" yMin="-8" xMax="264" yMax="510">
      <component glyphName="period" x="3" y="320" flags="0x4"/>
      <component glyphName="period" x="3" y="0" flags="0x0"/>
    </TTGlyph>
    <TTGlyph name="colon.tf" xMin="39" yMin="-8" xMax="263" yMax="510">
      <component glyphName="period" x="2" y="320" flags="0x4"/>
      <component glyphName="period" x="2" y="0" flags="0x0"/>
    </TTGlyph>
    <TTGlyph name="coloninferior" xMin="35" yMin="-195" xMax="206" yMax="148">
      <component glyphName="periodsuperior" x="0" y="-522" flags="0x4"/>
      <component glyphName="periodsuperior" x="0" y="-326" flags="0x4"/>
    </TTGlyph>
    <TTGlyph name="colonsuperior" xMin="35" yMin="327" xMax="206" yMax="670">
      <component glyphName="periodsuperior" x="0" y="0" flags="0x0"/>
      <component glyphName="periodsuperior" x="0" y="196" flags="0x4"/>
    </TTGlyph>
    <TTGlyph name="comma" xMin="29" yMin="-162" xMax="265" yMax="190">
      <contour>
        <pt x="204" y="190" on="0"/>
        <pt x="265" y="112" on="0"/>
        <pt x="265" y="51" on="1"/>
        <pt x="265" y="-19" on="0"/>
        <pt x="188" y="-132" on="0"/>
        <pt x="115" y="-162" on="1"/>
        <pt x="29" y="-105" on="1"/>
        <pt x="80" y="-84" on="0"/>
        <pt x="148" y="-31" on="0"/>
        <pt x="162" y="4" on="1"/>
        <pt x="158" y="8" on="1"/>
        <pt x="145" y="-5" on="0"/>
        <pt x="126" y="-5" on="1"/>
        <pt x="89" y="-5" on="0"/>
        <pt x="33" y="43" on="0"/>
        <pt x="33" y="87" on="1"/>
        <pt x="33" y="138" on="0"/>
        <pt x="93" y="190" on="0"/>
        <pt x="145" y="190" on="1"/>
      </contour>
    </TTGlyph>
    <TTGlyph name="comma.tf" xMin="35" yMin="-162" xMax="271" yMax="190">
      <component glyphName="comma" x="6" y="0" flags="0x0"/>
    </TTGlyph>
    <TTGlyph name="commainferior" xMin="31" yMin="-314" xMax="210" yMax="-48">
      <component glyphName="commasuperior" x="0" y="-522" flags="0x4"/>
    </TTGlyph>
    <TTGlyph name="commasuperior" xMin="31" yMin="208" xMax="210" yMax="474">
      <contour>
        <pt x="165" y="474" on="0"/>
        <pt x="210" y="419" on="0"/>
        <pt x="210" y="369" on="1"/>
        <pt x="210" y="316" on="0"/>
        <pt x="152" y="231" on="0"/>
        <pt x="97" y="208" on="1"/>
        <pt x="31" y="252" on="1"/>
        <pt x="114" y="285" on="0"/>
        <pt x="130" y="330" on="1"/>
        <pt x="127" y="333" on="1"/>
        <pt x="118" y="327" on="0"/>
        <pt x="107" y="327" on="1"/>
        <pt x="81" y="327" on="0"/>
        <pt x="35" y="366" on="0"/>
        <pt x="35" y="399" on="1"/>
        <pt x="35" y="436" on="0"/>
        <pt x="78" y="474" on="0"/>
        <pt x="119" y="474" on="1"/>
      </contour>
    </TTGlyph>
    <TTGlyph name="copyright" xMin="32" yMin="-10" xMax="723" yMax="670">
      <contour>
        <pt x="480" y="670" on="0"/>
        <pt x="637" y="586" on="0"/>
        <pt x="723" y="432" on="0"/>
        <pt x="723" y="330" on="1"/>
        <pt x="723" y="228" on="0"/>
        <pt x="637" y="74" on="0"/>
        <pt x="480" y="-10" on="0"/>
        <pt x="377" y="-10" on="1"/>
        <pt x="274" y="-10" on="0"/>
        <pt x="118" y="74" on="0"/>
        <pt x="32" y="228" on="0"/>
        <pt x="32" y="330" on="1"/>
        <pt x="32" y="432" on="0"/>
        <pt x="118" y="586" on="0"/>
        <pt x="274" y="670" on="0"/>
        <pt x="377" y="670" on="1"/>
      </contour>
      <contour>
        <pt x="302" y="580" on="0"/>
        <pt x="189" y="518" on="0"/>
        <pt x="128" y="405" on="0"/>
        <pt x="128" y="330" on="1"/>
        <pt x="128" y="255" on="0"/>
        <pt x="189" y="142" on="0"/>
        <pt x="302" y="80" on="0"/>
        <pt x="377" y="80" on="1"/>
        <pt x="452" y="80" on="0"/>
        <pt x="565" y="142" on="0"/>
        <pt x="627" y="255" on="0"/>
        <pt x="627" y="330" on="1"/>
        <pt x="627" y="405" on="0"/>
        <pt x="565" y="518" on="0"/>
        <pt x="452" y="580" on="0"/>
        <pt x="377" y="580" on="1"/>
      </contour>
      <contour>
        <pt x="522" y="523" on="0"/>
        <pt x="558" y="407" on="1"/>
        <pt x="449" y="353" on="1"/>
        <pt x="439" y="372" on="0"/>
        <pt x="411" y="387" on="0"/>
        <pt x="384" y="387" on="1"/>
        <pt x="330" y="387" on="0"/>
        <pt x="330" y="330" on="1"/>
        <pt x="330" y="272" on="0"/>
        <pt x="385" y="272" on="1"/>
        <pt x="413" y="272" on="0"/>
        <pt x="442" y="287" on="0"/>
        <pt x="451" y="309" on="1"/>
        <pt x="555" y="256" on="1"/>
        <pt x="529" y="190" on="0"/>
        <pt x="449" y="136" on="0"/>
        <pt x="370" y="136" on="1"/>
        <pt x="290" y="136" on="0"/>
        <pt x="193" y="242" on="0"/>
        <pt x="193" y="330" on="1"/>
        <pt x="193" y="418" on="0"/>
        <pt x="290" y="523" on="0"/>
        <pt x="370" y="523" on="1"/>
      </contour>
    </TTGlyph>
    <TTGlyph name="currency" xMin="24" yMin="34" xMax="615" yMax="624">
      <contour>
        <pt x="534" y="278" on="0"/>
        <pt x="514" y="235" on="1"/>
        <pt x="615" y="149" on="1"/>
        <pt x="500" y="34" on="1"/>
        <pt x="410" y="138" on="1"/>
        <pt x="368" y="122" on="0"/>
        <pt x="321" y="122" on="1"/>
        <pt x="271" y="122" on="0"/>
        <pt x="229" y="139" on="1"/>
        <pt x="139" y="34" on="1"/>
        <pt x="24" y="149" on="1"/>
        <pt x="125" y="236" on="1"/>
        <pt x="106" y="280" on="0"/>
        <pt x="106" y="330" on="1"/>
        <pt x="106" y="380" on="0"/>
        <pt x="125" y="423" on="1"/>
        <pt x="24" y="510" on="1"/>
        <pt x="139" y="624" on="1"/>
        <pt x="228" y="520" on="1"/>
        <pt x="271" y="537" on="0"/>
        <pt x="321" y="537" on="1"/>
        <pt x="368" y="537" on="0"/>
        <pt x="411" y="521" on="1"/>
        <pt x="500" y="624" on="1"/>
        <pt x="615" y="510" on="1"/>
        <pt x="515" y="423" on="1"/>
        <pt x="534" y="379" on="0"/>
        <pt x="534" y="330" on="1"/>
      </contour>
      <contour>
        <pt x="351" y="260" on="0"/>
        <pt x="387" y="298" on="0"/>
        <pt x="387" y="330" on="1"/>
        <pt x="387" y="361" on="0"/>
        <pt x="351" y="399" on="0"/>
        <pt x="321" y="399" on="1"/>
        <pt x="290" y="399" on="0"/>
        <pt x="253" y="361" on="0"/>
        <pt x="253" y="330" on="1"/>
        <pt x="253" y="298" on="0"/>
        <pt x="290" y="260" on="0"/>
        <pt x="321" y="260" on="1"/>
      </contour>
    </TTGlyph>
    <TTGlyph name="currency.tf" xMin="6" yMin="34" xMax="597" yMax="624">
      <component glyphName="currency" x="-18" y="0" flags="0x0"/>
    </TTGlyph>
    <TTGlyph name="d" xMin="32" yMin="-10" xMax="578" yMax="706">
      <contour>
        <pt x="578" y="706" on="1"/>
        <pt x="578" y="0" on="1"/>
        <pt x="397" y="0" on="1"/>
        <pt x="390" y="97" on="1"/>
        <pt x="368" y="48" on="0"/>
        <pt x="286" y="-10" on="0"/>
        <pt x="230" y="-10" on="1"/>
        <pt x="136" y="-10" on="0"/>
        <pt x="32" y="126" on="0"/>
        <pt x="32" y="248" on="1"/>
        <pt x="32" y="372" on="0"/>
        <pt x="137" y="510" on="0"/>
        <pt x="231" y="510" on="1"/>
        <pt x="283" y="510" on="0"/>
        <pt x="356" y="460" on="0"/>
        <pt x="376" y="416" on="1"/>
        <pt x="376" y="706" on="1"/>
      </contour>
      <contour>
        <pt x="376" y="134" on="0"/>
        <pt x="376" y="246" on="1"/>
        <pt x="376" y="254" on="1"/>
        <pt x="376" y="365" on="0"/>
        <pt x="307" y="365" on="1"/>
        <pt x="272" y="365" on="0"/>
        <pt x="236" y="312" on="0"/>
        <pt x="236" y="250" on="1"/>
        <pt x="236" y="188" on="0"/>
        <pt x="272" y="134" on="0"/>
        <pt x="307" y="134" on="1"/>
      </contour>
    </TTGlyph>
    <TTGlyph name="d.sc" xMin="61" yMin="0" xMax="623" yMax="560">
      <contour>
        <pt x="470" y="560" on="0"/>
        <pt x="623" y="413" on="0"/>
        <pt x="623" y="280" on="1"/>
        <pt x="623" y="147" on="0"/>
        <pt x="470" y="0" on="0"/>
        <pt x="330" y="0" on="1"/>
        <pt x="61" y="0" on="1"/>
        <pt x="61" y="560" on="1"/>
        <pt x="330" y="560" on="1"/>
      </contour>
      <contour>
        <pt x="378" y="147" on="0"/>
        <pt x="420" y="212" on="0"/>
        <pt x="420" y="280" on="1"/>
        <pt x="420" y="348" on="0"/>
        <pt x="378" y="413" on="0"/>
        <pt x="328" y="413" on="1"/>
        <pt x="259" y="413" on="1"/>
        <pt x="259" y="147" on="1"/>
        <pt x="328" y="147" on="1"/>
      </contour>
    </TTGlyph>
    <TTGlyph name="dagger" xMin="32" yMin="-100" xMax="592" yMax="660">
      <contour>
        <pt x="592" y="314" on="1"/>
        <pt x="404" y="314" on="1"/>
        <pt x="404" y="-100" on="1"/>
        <pt x="219" y="-100" on="1"/>
        <pt x="219" y="314" on="1"/>
        <pt x="32" y="314" on="1"/>
        <pt x="32" y="466" on="1"/>
        <pt x="219" y="466" on="1"/>
        <pt x="219" y="660" on="1"/>
        <pt x="404" y="660" on="1"/>
        <pt x="404" y="466" on="1"/>
        <pt x="592" y="466" on="1"/>
      </contour>
    </TTGlyph>
    <TTGlyph name="daggerdbl" xMin="38" yMin="-100" xMax="587" yMax="660">
      <contour>
        <pt x="399" y="330" on="1"/>
        <pt x="399" y="224" on="1"/>
        <pt x="587" y="224" on="1"/>
        <pt x="587" y="78" on="1"/>
        <pt x="399" y="78" on="1"/>
        <pt x="399" y="-100" on="1"/>
        <pt x="224" y="-100" on="1"/>
        <pt x="224" y="78" on="1"/>
        <pt x="38" y="78" on="1"/>
        <pt x="38" y="224" on="1"/>
        <pt x="224" y="224" on="1"/>
        <pt x="224" y="330" on="1"/>
        <pt x="38" y="330" on="1"/>
        <pt x="38" y="477" on="1"/>
        <pt x="224" y="477" on="1"/>
        <pt x="224" y="660" on="1"/>
        <pt x="399" y="660" on="1"/>
        <pt x="399" y="477" on="1"/>
        <pt x="587" y="477" on="1"/>
        <pt x="587" y="330" on="1"/>
      </contour>
    </TTGlyph>
    <TTGlyph name="daggerdblsuperior" xMin="35" yMin="196" xMax="474" yMax="730">
      <contour>
        <pt x="326" y="502" on="1"/>
        <pt x="326" y="424" on="1"/>
        <pt x="474" y="424" on="1"/>
        <pt x="474" y="320" on="1"/>
        <pt x="326" y="320" on="1"/>
        <pt x="326" y="196" on="1"/>
        <pt x="183" y="196" on="1"/>
        <pt x="183" y="320" on="1"/>
        <pt x="35" y="320" on="1"/>
        <pt x="35" y="424" on="1"/>
        <pt x="183" y="424" on="1"/>
        <pt x="183" y="502" on="1"/>
        <pt x="35" y="502" on="1"/>
        <pt x="35" y="606" on="1"/>
        <pt x="183" y="606" on="1"/>
        <pt x="183" y="730" on="1"/>
        <pt x="326" y="730" on="1"/>
        <pt x="326" y="606" on="1"/>
        <pt x="474" y="606" on="1"/>
        <pt x="474" y="502" on="1"/>
      </contour>
    </TTGlyph>
    <TTGlyph name="daggersuperior" xMin="35" yMin="196" xMax="474" yMax="730">
      <contour>
        <pt x="474" y="461" on="1"/>
        <pt x="326" y="461" on="1"/>
        <pt x="326" y="196" on="1"/>
        <pt x="183" y="196" on="1"/>
        <pt x="183" y="461" on="1"/>
        <pt x="35" y="461" on="1"/>
        <pt x="35" y="581" on="1"/>
        <pt x="183" y="581" on="1"/>
        <pt x="183" y="730" on="1"/>
        <pt x="326" y="730" on="1"/>
        <pt x="326" y="581" on="1"/>
        <pt x="474" y="581" on="1"/>
      </contour>
    </TTGlyph>
    <TTGlyph name="dcaron" xMin="32" yMin="-10" xMax="785" yMax="706">
      <contour>
        <pt x="376" y="706" on="1"/>
        <pt x="578" y="706" on="1"/>
        <pt x="578" y="0" on="1"/>
        <pt x="397" y="0" on="1"/>
        <pt x="390" y="97" on="1"/>
        <pt x="368" y="48" on="0"/>
        <pt x="286" y="-10" on="0"/>
        <pt x="230" y="-10" on="1"/>
        <pt x="136" y="-10" on="0"/>
        <pt x="32" y="126" on="0"/>
        <pt x="32" y="248" on="1"/>
        <pt x="32" y="372" on="0"/>
        <pt x="137" y="510" on="0"/>
        <pt x="231" y="510" on="1"/>
        <pt x="283" y="510" on="0"/>
        <pt x="356" y="460" on="0"/>
        <pt x="376" y="416" on="1"/>
      </contour>
      <contour>
        <pt x="785" y="706" on="1"/>
        <pt x="728" y="452" on="1"/>
        <pt x="615" y="452" on="1"/>
        <pt x="637" y="706" on="1"/>
      </contour>
      <contour>
        <pt x="376" y="134" on="0"/>
        <pt x="376" y="246" on="1"/>
        <pt x="376" y="254" on="1"/>
        <pt x="376" y="365" on="0"/>
        <pt x="307" y="365" on="1"/>
        <pt x="272" y="365" on="0"/>
        <pt x="236" y="312" on="0"/>
        <pt x="236" y="250" on="1"/>
        <pt x="236" y="188" on="0"/>
        <pt x="272" y="134" on="0"/>
        <pt x="307" y="134" on="1"/>
      </contour>
    </TTGlyph>
    <TTGlyph name="dcaron.sc" xMin="61" yMin="0" xMax="623" yMax="781">
      <component glyphName="d.sc" x="0" y="0" flags="0x0"/>
      <component glyphName="uni030C.cap" x="303" y="-100" flags="0x4"/>
    </TTGlyph>
    <TTGlyph name="dcroat" xMin="32" yMin="-10" xMax="663" yMax="706">
      <contour>
        <pt x="663" y="544" on="1"/>
        <pt x="578" y="544" on="1"/>
        <pt x="578" y="0" on="1"/>
        <pt x="397" y="0" on="1"/>
        <pt x="390" y="97" on="1"/>
        <pt x="368" y="48" on="0"/>
        <pt x="286" y="-10" on="0"/>
        <pt x="230" y="-10" on="1"/>
        <pt x="136" y="-10" on="0"/>
        <pt x="32" y="126" on="0"/>
        <pt x="32" y="248" on="1"/>
        <pt x="32" y="372" on="0"/>
        <pt x="137" y="510" on="0"/>
        <pt x="231" y="510" on="1"/>
        <pt x="283" y="510" on="0"/>
        <pt x="356" y="460" on="0"/>
        <pt x="376" y="416" on="1"/>
        <pt x="376" y="544" on="1"/>
        <pt x="256" y="544" on="1"/>
        <pt x="256" y="629" on="1"/>
        <pt x="376" y="629" on="1"/>
        <pt x="376" y="706" on="1"/>
        <pt x="578" y="706" on="1"/>
        <pt x="578" y="629" on="1"/>
        <pt x="663" y="629" on="1"/>
      </contour>
      <contour>
        <pt x="376" y="134" on="0"/>
        <pt x="376" y="246" on="1"/>
        <pt x="376" y="254" on="1"/>
        <pt x="376" y="365" on="0"/>
        <pt x="307" y="365" on="1"/>
        <pt x="272" y="365" on="0"/>
        <pt x="236" y="312" on="0"/>
        <pt x="236" y="250" on="1"/>
        <pt x="236" y="188" on="0"/>
        <pt x="272" y="134" on="0"/>
        <pt x="307" y="134" on="1"/>
      </contour>
    </TTGlyph>
    <TTGlyph name="dcroat.sc" xMin="4" yMin="0" xMax="642" yMax="560">
      <contour>
        <pt x="489" y="560" on="0"/>
        <pt x="642" y="413" on="0"/>
        <pt x="642" y="280" on="1"/>
        <pt x="642" y="147" on="0"/>
        <pt x="489" y="0" on="0"/>
        <pt x="349" y="0" on="1"/>
        <pt x="80" y="0" on="1"/>
        <pt x="80" y="239" on="1"/>
        <pt x="4" y="239" on="1"/>
        <pt x="4" y="318" on="1"/>
        <pt x="80" y="318" on="1"/>
        <pt x="80" y="560" on="1"/>
        <pt x="349" y="560" on="1"/>
      </contour>
      <contour>
        <pt x="397" y="147" on="0"/>
        <pt x="439" y="212" on="0"/>
        <pt x="439" y="280" on="1"/>
        <pt x="439" y="348" on="0"/>
        <pt x="397" y="413" on="0"/>
        <pt x="347" y="413" on="1"/>
        <pt x="278" y="413" on="1"/>
        <pt x="278" y="318" on="1"/>
        <pt x="372" y="318" on="1"/>
        <pt x="372" y="239" on="1"/>
        <pt x="278" y="239" on="1"/>
        <pt x="278" y="147" on="1"/>
        <pt x="347" y="147" on="1"/>
      </contour>
    </TTGlyph>
    <TTGlyph name="degree" xMin="40" yMin="283" xMax="468" yMax="670">
      <contour>
        <pt x="155" y="283" on="0"/>
        <pt x="40" y="387" on="0"/>
        <pt x="40" y="477" on="1"/>
        <pt x="40" y="566" on="0"/>
        <pt x="155" y="670" on="0"/>
        <pt x="254" y="670" on="1"/>
        <pt x="353" y="670" on="0"/>
        <pt x="468" y="566" on="0"/>
        <pt x="468" y="477" on="1"/>
        <pt x="468" y="387" on="0"/>
        <pt x="353" y="283" on="0"/>
        <pt x="254" y="283" on="1"/>
      </contour>
      <contour>
        <pt x="285" y="407" on="0"/>
        <pt x="325" y="446" on="0"/>
        <pt x="325" y="477" on="1"/>
        <pt x="325" y="508" on="0"/>
        <pt x="286" y="546" on="0"/>
        <pt x="254" y="546" on="1"/>
        <pt x="222" y="546" on="0"/>
        <pt x="183" y="508" on="0"/>
        <pt x="183" y="477" on="1"/>
        <pt x="183" y="446" on="0"/>
        <pt x="223" y="407" on="0"/>
        <pt x="254" y="407" on="1"/>
      </contour>
    </TTGlyph>
    <TTGlyph name="dieresis" xMin="41" yMin="546" xMax="460" yMax="716">
      <contour>
        <pt x="181" y="716" on="0"/>
        <pt x="231" y="671" on="0"/>
        <pt x="231" y="631" on="1"/>
        <pt x="231" y="590" on="0"/>
        <pt x="181" y="546" on="0"/>
        <pt x="135" y="546" on="1"/>
        <pt x="91" y="546" on="0"/>
        <pt x="41" y="591" on="0"/>
        <pt x="41" y="631" on="1"/>
        <pt x="41" y="671" on="0"/>
        <pt x="91" y="716" on="0"/>
        <pt x="135" y="716" on="1"/>
      </contour>
      <contour>
        <pt x="410" y="716" on="0"/>
        <pt x="460" y="671" on="0"/>
        <pt x="460" y="631" on="1"/>
        <pt x="460" y="590" on="0"/>
        <pt x="410" y="546" on="0"/>
        <pt x="364" y="546" on="1"/>
        <pt x="320" y="546" on="0"/>
        <pt x="270" y="591" on="0"/>
        <pt x="270" y="631" on="1"/>
        <pt x="270" y="671" on="0"/>
        <pt x="320" y="716" on="0"/>
        <pt x="364" y="716" on="1"/>
      </contour>
    </TTGlyph>
    <TTGlyph name="divide" xMin="47" yMin="19" xMax="557" yMax="639">
      <contour>
        <pt x="345" y="639" on="0"/>
        <pt x="394" y="592" on="0"/>
        <pt x="394" y="551" on="1"/>
        <pt x="394" y="509" on="0"/>
        <pt x="346" y="463" on="0"/>
        <pt x="302" y="463" on="1"/>
        <pt x="259" y="463" on="0"/>
        <pt x="210" y="509" on="0"/>
        <pt x="210" y="551" on="1"/>
        <pt x="210" y="592" on="0"/>
        <pt x="259" y="639" on="0"/>
        <pt x="302" y="639" on="1"/>
      </contour>
      <contour>
        <pt x="557" y="259" on="1"/>
        <pt x="47" y="259" on="1"/>
        <pt x="47" y="397" on="1"/>
        <pt x="557" y="397" on="1"/>
      </contour>
      <contour>
        <pt x="345" y="195" on="0"/>
        <pt x="394" y="148" on="0"/>
        <pt x="394" y="107" on="1"/>
        <pt x="394" y="65" on="0"/>
        <pt x="346" y="19" on="0"/>
        <pt x="302" y="19" on="1"/>
        <pt x="259" y="19" on="0"/>
        <pt x="210" y="65" on="0"/>
        <pt x="210" y="107" on="1"/>
        <pt x="210" y="148" on="0"/>
        <pt x="259" y="195" on="0"/>
        <pt x="302" y="195" on="1"/>
      </contour>
    </TTGlyph>
    <TTGlyph name="dollar" xMin="18" yMin="-84" xMax="631" yMax="744">
      <contour>
        <pt x="297" y="1" on="1"/>
        <pt x="197" y="5" on="0"/>
        <pt x="67" y="59" on="0"/>
        <pt x="18" y="110" on="1"/>
        <pt x="106" y="230" on="1"/>
        <pt x="135" y="187" on="0"/>
        <pt x="233" y="139" on="0"/>
        <pt x="297" y="134" on="1"/>
        <pt x="297" y="256" on="1"/>
        <pt x="219" y="270" on="0"/>
        <pt x="114" y="305" on="0"/>
        <pt x="38" y="385" on="0"/>
        <pt x="38" y="454" on="1"/>
        <pt x="38" y="540" on="0"/>
        <pt x="174" y="651" on="0"/>
        <pt x="297" y="659" on="1"/>
        <pt x="297" y="744" on="1"/>
        <pt x="363" y="744" on="1"/>
        <pt x="363" y="660" on="1"/>
        <pt x="461" y="656" on="0"/>
        <pt x="580" y="599" on="0"/>
        <pt x="631" y="546" on="1"/>
        <pt x="539" y="434" on="1"/>
        <pt x="506" y="479" on="0"/>
        <pt x="421" y="523" on="0"/>
        <pt x="363" y="527" on="1"/>
        <pt x="363" y="398" on="1"/>
        <pt x="440" y="384" on="0"/>
        <pt x="547" y="347" on="0"/>
        <pt x="623" y="264" on="0"/>
        <pt x="623" y="194" on="1"/>
        <pt x="623" y="109" on="0"/>
        <pt x="478" y="6" on="0"/>
        <pt x="363" y="1" on="1"/>
        <pt x="363" y="-84" on="1"/>
        <pt x="297" y="-84" on="1"/>
      </contour>
      <contour>
        <pt x="297" y="523" on="1"/>
        <pt x="260" y="518" on="0"/>
        <pt x="221" y="488" on="0"/>
        <pt x="221" y="466" on="1"/>
        <pt x="221" y="445" on="0"/>
        <pt x="259" y="421" on="0"/>
        <pt x="297" y="411" on="1"/>
      </contour>
      <contour>
        <pt x="441" y="143" on="0"/>
        <pt x="441" y="186" on="1"/>
        <pt x="441" y="208" on="0"/>
        <pt x="401" y="234" on="0"/>
        <pt x="363" y="243" on="1"/>
        <pt x="363" y="135" on="1"/>
      </contour>
    </TTGlyph>
    <TTGlyph name="dollar.tf" xMin="19" yMin="-84" xMax="584" yMax="744">
      <contour>
        <pt x="412" y="379" on="0"/>
        <pt x="507" y="342" on="0"/>
        <pt x="574" y="262" on="0"/>
        <pt x="574" y="194" on="1"/>
        <pt x="574" y="110" on="0"/>
        <pt x="444" y="8" on="0"/>
        <pt x="341" y="1" on="1"/>
        <pt x="341" y="-84" on="1"/>
        <pt x="281" y="-84" on="1"/>
        <pt x="281" y="1" on="1"/>
        <pt x="188" y="4" on="0"/>
        <pt x="66" y="58" on="0"/>
        <pt x="19" y="110" on="1"/>
        <pt x="116" y="230" on="1"/>
        <pt x="137" y="189" on="0"/>
        <pt x="229" y="139" on="0"/>
        <pt x="281" y="134" on="1"/>
        <pt x="281" y="253" on="1"/>
        <pt x="211" y="267" on="0"/>
        <pt x="114" y="303" on="0"/>
        <pt x="46" y="384" on="0"/>
        <pt x="46" y="454" on="1"/>
        <pt x="46" y="539" on="0"/>
        <pt x="171" y="652" on="0"/>
        <pt x="281" y="659" on="1"/>
        <pt x="281" y="744" on="1"/>
        <pt x="341" y="744" on="1"/>
        <pt x="341" y="659" on="1"/>
        <pt x="400" y="657" on="0"/>
        <pt x="484" y="628" on="0"/>
        <pt x="545" y="584" on="0"/>
        <pt x="584" y="546" on="1"/>
        <pt x="490" y="433" on="1"/>
        <pt x="446" y="518" on="0"/>
        <pt x="341" y="526" on="1"/>
        <pt x="341" y="394" on="1"/>
      </contour>
      <contour>
        <pt x="206" y="444" on="0"/>
        <pt x="245" y="417" on="0"/>
        <pt x="281" y="407" on="1"/>
        <pt x="281" y="525" on="1"/>
        <pt x="206" y="515" on="0"/>
        <pt x="206" y="466" on="1"/>
      </contour>
      <contour>
        <pt x="380" y="139" on="0"/>
        <pt x="414" y="164" on="0"/>
        <pt x="414" y="186" on="1"/>
        <pt x="414" y="206" on="0"/>
        <pt x="377" y="231" on="0"/>
        <pt x="341" y="240" on="1"/>
        <pt x="341" y="135" on="1"/>
      </contour>
    </TTGlyph>
    <TTGlyph name="dotaccent" xMin="148" yMin="549" xMax="355" yMax="724">
      <contour>
        <pt x="302" y="724" on="0"/>
        <pt x="355" y="679" on="0"/>
        <pt x="355" y="636" on="1"/>
        <pt x="355" y="593" on="0"/>
        <pt x="302" y="549" on="0"/>
        <pt x="250" y="549" on="1"/>
        <pt x="148" y="549" on="0"/>
        <pt x="148" y="636" on="1"/>
        <pt x="148" y="724" on="0"/>
        <pt x="250" y="724" on="1"/>
      </contour>
    </TTGlyph>
    <TTGlyph name="dotlessi" xMin="49" yMin="0" xMax="251" yMax="500">
      <contour>
        <pt x="251" y="0" on="1"/>
        <pt x="49" y="0" on="1"/>
        <pt x="49" y="500" on="1"/>
        <pt x="251" y="500" on="1"/>
      </contour>
    </TTGlyph>
    <TTGlyph name="e" xMin="28" yMin="-10" xMax="556" yMax="510">
      <contour>
        <pt x="556" y="226" on="0"/>
        <pt x="551" y="204" on="1"/>
        <pt x="223" y="204" on="1"/>
        <pt x="229" y="162" on="0"/>
        <pt x="270" y="128" on="0"/>
        <pt x="308" y="128" on="1"/>
        <pt x="369" y="128" on="0"/>
        <pt x="383" y="176" on="1"/>
        <pt x="546" y="129" on="1"/>
        <pt x="527" y="61" on="0"/>
        <pt x="400" y="-10" on="0"/>
        <pt x="308" y="-10" on="1"/>
        <pt x="172" y="-10" on="0"/>
        <pt x="28" y="125" on="0"/>
        <pt x="28" y="250" on="1"/>
        <pt x="28" y="374" on="0"/>
        <pt x="169" y="510" on="0"/>
        <pt x="297" y="510" on="1"/>
        <pt x="422" y="510" on="0"/>
        <pt x="556" y="377" on="0"/>
        <pt x="556" y="262" on="1"/>
      </contour>
      <contour>
        <pt x="265" y="373" on="0"/>
        <pt x="228" y="335" on="0"/>
        <pt x="222" y="292" on="1"/>
        <pt x="367" y="292" on="1"/>
        <pt x="362" y="332" on="0"/>
        <pt x="329" y="373" on="0"/>
        <pt x="298" y="373" on="1"/>
      </contour>
    </TTGlyph>
    <TTGlyph name="e.sc" xMin="61" yMin="0" xMax="556" yMax="560">
      <contour>
        <pt x="556" y="137" on="1"/>
        <pt x="556" y="0" on="1"/>
        <pt x="61" y="0" on="1"/>
        <pt x="61" y="560" on="1"/>
        <pt x="553" y="560" on="1"/>
        <pt x="553" y="423" on="1"/>
        <pt x="259" y="423" on="1"/>
        <pt x="259" y="346" on="1"/>
        <pt x="488" y="346" on="1"/>
        <pt x="488" y="216" on="1"/>
        <pt x="259" y="216" on="1"/>
        <pt x="259" y="137" on="1"/>
      </contour>
    </TTGlyph>
    <TTGlyph name="eacute" xMin="28" yMin="-10" xMax="556" yMax="734">
      <component glyphName="e" x="0" y="0" flags="0x0"/>
      <component glyphName="acute" x="35" y="0" flags="0x0"/>
    </TTGlyph>
    <TTGlyph name="eacute.sc" xMin="61" yMin="0" xMax="556" yMax="781">
      <component glyphName="e.sc" x="0" y="0" flags="0x0"/>
      <component glyphName="acutecomb.cap" x="303" y="-100" flags="0x4"/>
    </TTGlyph>
    <TTGlyph name="ecaron" xMin="28" yMin="-10" xMax="556" yMax="734">
      <component glyphName="e" x="0" y="0" flags="0x0"/>
      <component glyphName="caron" x="41" y="0" flags="0x0"/>
    </TTGlyph>
    <TTGlyph name="ecaron.sc" xMin="61" yMin="0" xMax="556" yMax="781">
      <component glyphName="e.sc" x="0" y="0" flags="0x0"/>
      <component glyphName="uni030C.cap" x="301" y="-100" flags="0x4"/>
    </TTGlyph>
    <TTGlyph name="ecircumflex" xMin="28" yMin="-10" xMax="556" yMax="727">
      <component glyphName="e" x="0" y="0" flags="0x0"/>
      <component glyphName="circumflex" x="46" y="0" flags="0x0"/>
    </TTGlyph>
    <TTGlyph name="ecircumflex.sc" xMin="61" yMin="0" xMax="556" yMax="780">
      <component glyphName="e.sc" x="0" y="0" flags="0x0"/>
      <component glyphName="uni0302.cap" x="301" y="-100" flags="0x4"/>
    </TTGlyph>
    <TTGlyph name="edieresis" xMin="28" yMin="-10" xMax="556" yMax="716">
      <component glyphName="e" x="0" y="0" flags="0x0"/>
      <component glyphName="dieresis" x="45" y="0" flags="0x0"/>
    </TTGlyph>
    <TTGlyph name="edieresis.sc" xMin="61" yMin="0" xMax="556" yMax="776">
      <component glyphName="e.sc" x="0" y="0" flags="0x0"/>
      <component glyphName="dieresis" x="50" y="60" flags="0x4"/>
    </TTGlyph>
    <TTGlyph name="edotaccent" xMin="28" yMin="-10" xMax="556" yMax="724">
      <component glyphName="e" x="0" y="0" flags="0x0"/>
      <component glyphName="dotaccent" x="46" y="0" flags="0x0"/>
    </TTGlyph>
    <TTGlyph name="edotaccent.sc" xMin="61" yMin="0" xMax="556" yMax="784">
      <component glyphName="e.sc" x="0" y="0" flags="0x0"/>
      <component glyphName="dotaccent" x="51" y="60" flags="0x4"/>
    </TTGlyph>
    <TTGlyph name="egrave" xMin="28" yMin="-10" xMax="556" yMax="734">
      <component glyphName="e" x="0" y="0" flags="0x0"/>
      <component glyphName="grave" x="46" y="0" flags="0x0"/>
    </TTGlyph>
    <TTGlyph name="egrave.sc" xMin="61" yMin="0" xMax="556" yMax="781">
      <component glyphName="e.sc" x="0" y="0" flags="0x0"/>
      <component glyphName="gravecomb.cap" x="301" y="-100" flags="0x4"/>
    </TTGlyph>
    <TTGlyph name="eight" xMin="37" yMin="-10" xMax="594" yMax="667">
      <contour>
        <pt x="437" y="667" on="0"/>
        <pt x="576" y="566" on="0"/>
        <pt x="576" y="478" on="1"/>
        <pt x="576" y="427" on="0"/>
        <pt x="520" y="353" on="0"/>
        <pt x="467" y="334" on="1"/>
        <pt x="467" y="333" on="1"/>
        <pt x="529" y="314" on="0"/>
        <pt x="594" y="234" on="0"/>
        <pt x="594" y="174" on="1"/>
        <pt x="594" y="89" on="0"/>
        <pt x="446" y="-10" on="0"/>
        <pt x="315" y="-10" on="1"/>
        <pt x="185" y="-10" on="0"/>
        <pt x="37" y="89" on="0"/>
        <pt x="37" y="174" on="1"/>
        <pt x="37" y="234" on="0"/>
        <pt x="102" y="314" on="0"/>
        <pt x="164" y="333" on="1"/>
        <pt x="164" y="334" on="1"/>
        <pt x="111" y="353" on="0"/>
        <pt x="55" y="427" on="0"/>
        <pt x="55" y="478" on="1"/>
        <pt x="55" y="566" on="0"/>
        <pt x="193" y="667" on="0"/>
        <pt x="315" y="667" on="1"/>
      </contour>
      <contour>
        <pt x="281" y="525" on="0"/>
        <pt x="242" y="491" on="0"/>
        <pt x="242" y="460" on="1"/>
        <pt x="242" y="429" on="0"/>
        <pt x="281" y="394" on="0"/>
        <pt x="315" y="394" on="1"/>
        <pt x="349" y="394" on="0"/>
        <pt x="389" y="429" on="0"/>
        <pt x="389" y="460" on="1"/>
        <pt x="389" y="491" on="0"/>
        <pt x="350" y="525" on="0"/>
        <pt x="315" y="525" on="1"/>
      </contour>
      <contour>
        <pt x="355" y="133" on="0"/>
        <pt x="397" y="169" on="0"/>
        <pt x="397" y="201" on="1"/>
        <pt x="397" y="233" on="0"/>
        <pt x="354" y="269" on="0"/>
        <pt x="315" y="269" on="1"/>
        <pt x="277" y="269" on="0"/>
        <pt x="233" y="233" on="0"/>
        <pt x="233" y="201" on="1"/>
        <pt x="233" y="169" on="0"/>
        <pt x="276" y="133" on="0"/>
        <pt x="315" y="133" on="1"/>
      </contour>
    </TTGlyph>
    <TTGlyph name="eight.dnom" xMin="29" yMin="-10" xMax="399" yMax="398">
      <component glyphName="uni2078" x="0" y="-337" flags="0x4"/>
    </TTGlyph>
    <TTGlyph name="eight.numr" xMin="29" yMin="262" xMax="399" yMax="670">
      <component glyphName="uni2078" x="0" y="-65" flags="0x4"/>
    </TTGlyph>
    <TTGlyph name="eight.osf" xMin="38" yMin="-10" xMax="593" yMax="667">
      <contour>
        <pt x="435" y="667" on="0"/>
        <pt x="572" y="568" on="0"/>
        <pt x="572" y="480" on="1"/>
        <pt x="572" y="378" on="0"/>
        <pt x="462" y="334" on="1"/>
        <pt x="462" y="333" on="1"/>
        <pt x="523" y="314" on="0"/>
        <pt x="593" y="233" on="0"/>
        <pt x="593" y="178" on="1"/>
        <pt x="593" y="88" on="0"/>
        <pt x="446" y="-10" on="0"/>
        <pt x="315" y="-10" on="1"/>
        <pt x="185" y="-10" on="0"/>
        <pt x="38" y="88" on="0"/>
        <pt x="38" y="178" on="1"/>
        <pt x="38" y="233" on="0"/>
        <pt x="106" y="314" on="0"/>
        <pt x="168" y="333" on="1"/>
        <pt x="168" y="334" on="1"/>
        <pt x="115" y="355" on="0"/>
        <pt x="59" y="429" on="0"/>
        <pt x="59" y="480" on="1"/>
        <pt x="59" y="568" on="0"/>
        <pt x="195" y="667" on="0"/>
        <pt x="315" y="667" on="1"/>
      </contour>
      <contour>
        <pt x="280" y="533" on="0"/>
        <pt x="240" y="498" on="0"/>
        <pt x="240" y="467" on="1"/>
        <pt x="240" y="435" on="0"/>
        <pt x="279" y="401" on="0"/>
        <pt x="315" y="401" on="1"/>
        <pt x="351" y="401" on="0"/>
        <pt x="390" y="435" on="0"/>
        <pt x="390" y="467" on="1"/>
        <pt x="390" y="498" on="0"/>
        <pt x="350" y="533" on="0"/>
        <pt x="315" y="533" on="1"/>
      </contour>
      <contour>
        <pt x="354" y="125" on="0"/>
        <pt x="397" y="162" on="0"/>
        <pt x="397" y="195" on="1"/>
        <pt x="397" y="228" on="0"/>
        <pt x="354" y="265" on="0"/>
        <pt x="315" y="265" on="1"/>
        <pt x="277" y="265" on="0"/>
        <pt x="234" y="228" on="0"/>
        <pt x="234" y="195" on="1"/>
        <pt x="234" y="162" on="0"/>
        <pt x="277" y="125" on="0"/>
        <pt x="315" y="125" on="1"/>
      </contour>
    </TTGlyph>
</ttFont>
